<mxfile host="65bd71144e">
    <diagram id="mB0vNUS_F8U1Qlp_yC0Q" name="Page-1">
        <mxGraphModel dx="3412" dy="487" grid="1" gridSize="10" guides="1" tooltips="1" connect="1" arrows="1" fold="1" page="1" pageScale="1" pageWidth="2339" pageHeight="3300" math="0" shadow="0">
            <root>
                <object label="" id="0">
                    <mxCell/>
                </object>
                <mxCell id="1" parent="0"/>
                <mxCell id="2" value="" style="whiteSpace=wrap;html=1;" parent="1" vertex="1">
                    <mxGeometry x="-140" y="420" width="120" height="60" as="geometry"/>
                </mxCell>
                <mxCell id="3" value="" style="ellipse;whiteSpace=wrap;html=1;" parent="1" vertex="1">
                    <mxGeometry x="380" y="160" width="80" height="80" as="geometry"/>
                </mxCell>
                <mxCell id="4" value="" style="ellipse;whiteSpace=wrap;html=1;" parent="1" vertex="1">
                    <mxGeometry x="260" y="300" width="80" height="80" as="geometry"/>
                </mxCell>
                <mxCell id="5" value="" style="whiteSpace=wrap;html=1;" parent="1" vertex="1">
                    <mxGeometry x="-140" y="570" width="120" height="60" as="geometry"/>
                </mxCell>
                <mxCell id="6" value="" style="ellipse;whiteSpace=wrap;html=1;" parent="1" vertex="1">
                    <mxGeometry x="540" y="320" width="80" height="80" as="geometry"/>
                </mxCell>
                <mxCell id="18" value="" style="shape=stencil(lVbLctswDPwaXTEkwOc5Tf8jM3FqTV074zh9/H2hauSIoLSd3GQZKwKLxYKDPLwdn14PA7u32/Xy/fBrfL4dB/kyMI/n4+E63vRpkMdBHl4u18O36+X9/Dz/fn2aIqenH5ef0xd+zzjOFHhCsfszvxHi+u/F1zn+NJ5X8ZLIhSbeC5W0Dwh6QGkAemTK+4DkqLSAEIh5H5Ajed8Akqfo9gElUpUGoJ/IoIYqJG1K0yfACbXaGmok8RjQplQTJQGAQiG1gEwFNE4TqC1L+omKTmAKsQVUSoCloikZaThHDjUikDh7RAU0FddVXSkAQM4kYquOAYqJxfIqgNcclr9XnfOgaAUUAwiUCwCoEoyYhCJKqVLMLYChmIrOfLIAhwDKiQH4RcDbYvKdmPQENHKRXO1qQPrOnb4F+sykZmf7UEAfVmpetZqxDbhuSAMqInW+USgh35BOG3UZke3OqdF4C0A2oE6XupGroIbiN1JKyL8LcbZFo5WiM1qcpbXgkYvtklOioQt8GuDItzXoiAS05YItWq0KLa3IdkMkWfx2e1PnxSTue1TVGvcBzFZ8jKVRSdqZ9up8oNGdecfFp3bCzbQFSJCz2WB6/DKI92IpgFqlq5UiCI+2WW4Zu+2ZoZxNOLqEefVONvEOEO+j3VF4L/tiZ17zAVwqGV18Bvnw/UL3wWZA8clOF0N+Pnup/X+8PnzcoF/G02m+gK//tzdufTXf1uXxLw==);lineShape=1;strokeColor=default;" parent="1" vertex="1">
                    <mxGeometry x="274.84816441261364" y="333.1886156946298" width="13.67895094415063" height="42.841579638146385" as="geometry"/>
                </mxCell>
                <mxCell id="19" value="" style="shape=stencil(lVhJcttADHyNrqgZYDacHecfrrIcqaJYLtnO8vuAUQ2tAalWfNPCJgZAN9DkRu5edw8v2w2H17fT8fv21/7xbbeRLxvm/fNue9q/2aeN3G/k7ul42n47Hd+fH8/fXx6mK6dPP44/pzv8PuMSSZ1AHP6cf2iBYvj3y9fz9Yf988X1sVGWAVALlXYdwEqNR4BQ0+uAxMTjkWroMdcBheoIKJEKA4BSjQMgSz/kKiAzSRoAKVMAVcqJeASIHTJDQGsDgDMpBnAZANaZG0nHMUJkKhUAgq+S3QFdX6mNJ7IMbtRovH+cybgOUCpjAGOvluuAYn9H3wUBNSrq22bcEtCFypRHgGUVIgDUfuKZq0IBqKEJZSefuS/rgEpp7LPFbECgypTyOAISjKCNeARoIAECVaXsAEwBlDWG0OU1I4QUcGMKMdZVM5wyUxJjmbRC/Wgh1hHQIPvsxM3lYHMHNSJScJL+qMN6rxtJ8yEyYlOhwD4JCDCRii8T2g/GV6dqawRjggdHDoGaM0B1SUdKgBstd9HPBLedhCJUymMOVmg0Ko3/cQEICWrOzcpbgNxTvDwSYl/1w3JKGovUN87Kio6kfUFdNg4pyA6wpAYqa6PqJFcpIAXVNXqjCKn39VJAWKPqtugtjepiWmpP65pGa/ZJKDjTNK6zL1MBnfs0oNomdwqyPQZysL1YnCCMTABQli4xwa1VsrczxZoPWl0C8TiOc4HcyNU7rMlCgSqZS3RrTsyxIKebvRkwi8VAo2KaH6dxnFW7DpjNxQdd+1ZaB6Su+Q4IMIAZZ8durAZz5guTGBEvFl4jSu/jfxKJGXbNIjjnLRGWqCx8rrWFUYTSiXnhKtH+MUvoBmXGNtS43cY2T9b3U9w2xQpYJ3ZiHSNU7U9d15inI5Ga+UzAbWuTnzG5+6H1Uex9g01aaL0XG1S7BVyv0WJFK9xWyftD29BoRq5ZgIRM8WKhV/jgHfyQnxYLoGnwA9XqjxzGwqLbWslg/QfvL8zICT6/q6dRFPQ3UnX8ifD+vCBowA/Qn3xTcvt6+/DxWuZpfzic3+pc/u9f49hP51dAcv8X);lineShape=1;strokeColor=default;" parent="1" vertex="1">
                    <mxGeometry x="283.7830613667784" y="318.57171399264007" width="33.24886567548068" height="46.9069726329456" as="geometry"/>
                </mxCell>
                <mxCell id="20" value="" style="shape=stencil(7VpJchw3EHzNXBEoFNazLP9DEaLMCdOkgqK8/N4JT6DZKHQnxaPDvg17kEStWUvPRT98u//09e4S/LeX56df7/64fn65v+hPlxCuj/d3z9cXfLrox4t++PL0fPfL89P3x8+3v79+6if7p9+efu//4c8brrksHRT8X7cHUlxs/zz5+Xb+4fq4Oy/RxRkQisuBAJpLcQLo9uQQENS1OgFScDERQHFpFilHFzIBQGk/AYq4TERS78qsQynOMx2qy2UC1OAqEwk3zDpU73IlZoWbwixSdokBgvMzILfx5BDQXJuNlNVlEhnV+VnllF3w5+fzsOA4H2FTYiKEhYmj5AozqVMTqMklEkZ+OGiXCYWe97N9RFwh+noX5/PJeTk/nqz5IZ8S96p17ybfsXXEhdld4hKzZrL/v7pI5MH5OGcxmKMUCjAZAA2ES9SSdXB744ZZZTBH4DqEWeeuNPFZiE7nGEUWRaaDOpmtBKoJJMngpSoWUEnaw4gmDVScMIKvI6t+FFAG2e5FYoA0vt4BlMRqjxx9j1mRDNWERh10eQbQOdt6aBCCB0AWdmncD9GIBIIn9AKr1zn4JFO+jgg+Q2CBJhD42Zi1juA6Juyt0G8VgRq1gG9no8ZB4ccFJFqNdQh4XKDCKNqvjFpZQStOjUWV9jqtDkrcAHVk0zGgOTWBGmlRBqCaooZkIxwmfik7uhXeH5QpIlKZWZEqxqxKabJlq0T2tNI21JJZJIRWYJ5Te0MJLjC7yihOGwCWJlbqsWdyASIRV5elh2ye0mRRW3ChlSdWynkw0AZAQhErJfTVM6/2iCc3wK9lrj5t61vPKMYUdUQX6wkRm3EWaRfAZ51zy1aJxrr/NArmBhBK3WAVE99VaaMHgLkBzbxnfYMuweSpI3pzZQaSOtq/Y0C28wUGkvqugaQUOiP1kacuADYjYcDxFsAaPo22PEDpSpTu/X6wZmW0odn2PlVoswRAMI7TMR+fiRTNnJcoV0JpMTpk2nfDrKZogZgi08HbdgwARn0IDUkWUFiXmwcz7gA0p6PL2VqJDTNIIFPZwc+s8IaFXJGimYmkoy7vYok1rb2Qz1ZCBaA5ne08jPAWlqLF7j2QQMrIFUy6AISFRrCeBiCxaF1WMYUPQMgHrdZKLJaQcWK4Vain3w2I3s4CbbPbMSCPKXK7oblG/IA+2psEqnSdlMUVo0MZ48RZ520BcZTJs2bDsgbfocGIhjU63TNAtD1c8bTVrctCICdKZN0ms9JocNhCCVZPs0gp0IYJfpXZ02iNE/EDAGbphgZH2UjTLAn0sY5kHHTQWemwTVFnVsoG4OmYWJeSJUJrXGehZdHF9ixl3YwpzTj41az2JNFVWqy2dZDGe41iC/sbg1kfhWdP9w6KFZRg8wGepk3iv2V9xTvj/9dX/4n1Vb/BhIanZPy6Wtntf9naAQAz7la6RKjj+h0rCT2f5mSQTCemZme43sUyhYN9n9EHHOYD2GOWCNWHernYVwIp0gqKbJM5tPNG/meMYd6klUCJGATglxdjbIcImsxqb6AAsTdAB1auZClXsBLbs8BxZjqJQt9oFmtV5L+wyDio0DR17BtWFDdluWl7bnAgDTy7JpI35j3rAWQO3ciMkNmdZ/yotm3r1Z8Q8LKEEh7Vyxoa51nTlg/kYWVzef2M8+zVbV38lelg2EZ07c6zfdV7X+m/fR4fXn8/8OX68HD7+cH+e/t7Azy6/VZBP/4N);lineShape=1;strokeColor=default;" parent="1" vertex="1">
                    <mxGeometry x="559.3026538641857" y="342.8438431245229" width="46.68577404121101" height="57.10749643562369" as="geometry"/>
                </mxCell>
                <mxCell id="21" value="" style="shape=stencil(lVfbUhsxDP2afdXI8v2Z0v9ghtBkmhImhF7+vnLDJrG8eyhvYTmyJR0dSZ783ev24WUzCb+ejofvm1+7x9N28l8mkd3zdnPcnfTX5O8nf/d0OG6+HQ9vz4/nv18eGrL9+nH42U74fbarlaQ0K+E/5y9Ctf778PWM3++eb/GRfO7wkSLCM4X+/EIpruNLoNSf74RKWjfIel5/gctUwA1ZiFMfsafk1g1SoNC75B25sG4QE7naGQQmJ+sGIdsbIhMDA1+oSGeQmATQoB6L6w0qRXCDDDzkTAKCdoVin1alkgFxzpMzBnWmcrk0KPVZrYEc4C0S9yFXTTOIQGylqjbec7CC52DxFaTUUezxjpVlRgYLF4CAmRIPAQAlaMkkixfAmHobe3yhDBJ0ie4Gj0qIZzpvCMsgoUy+WDz2P5t40weEibd45I+jHAY84FdIxOILLNDkbbwO8KudfMBHIDBPbARW5i//jX/3cM0fE28lB/HJWXwE/Iptu4pHk0D5Gs5Hs2/ooQ2P623Qb4Z4P+gxgPpRvQz6qlBfox4D1JcZlFo/BeRH+0m2eOx/Eotn3N8+hfdzt7ngI9SLqs/0k0uLX64HR75PaMmU0MhLlHqPisAR1iTQl3TW/Qu1iDrM+TzfuZyjZDeJWOa2uryr6L7XBx0KnPMxkPRjQ7cXB8oiDbrXqBDPmS0PKlUPGktOtjO6OA//5dVDW50xYHhDuSjxuiYjaVZve4XA0domYx8yz8NqGV9sACpudL4WQbV4wFnbBKLFg9bSOr/1H42C1gmdwaP8X1e3Kx7t+G1SWDzkSzu/eXWQB+ffrHpXA7QbtAtsQTCo0DZaqsGjZbeN0mzwGeM/9078EK8/ro/Sp91+f37T3v7fPmL10/kB7O//Ag==);lineShape=1;strokeColor=default;" parent="1" vertex="1">
                    <mxGeometry x="165.08184610180115" y="360.35177658968587" width="104.9268334023557" height="98.48825855114443" as="geometry"/>
                </mxCell>
                <mxCell id="22" value="" style="shape=stencil(lVfZbttADPwavxJc7snnNP2PAHFqo24cOO7196UgrOOlpGn7JlucFYccHruLD++Hp7f9Tvj9ejl/3f88Pl8Pu/hpJ3J8Pewvx6s97eLjLj68nC/7L5fz99fn+ffb02Q5PX07/5hO+DXjIpOECSX8e/6nUpz/+Dzbn46vd/ZSKKTBPiTiDABCqQ4AYSq6DQiNWhsBlRL4QjCXZADESAFwCPY6DoBkLgn8Ao+kUyWOgHSgOJLOQgpIi1IaSRemCgCxkY4cilIr24DJY5foQoW3AdmiNHJo3DOzCjCP85iHlvsR64Dq89Bqj9sqoFqUigdk4JLGHvUboMGwqmmJR4CSIEAlHUkrUwRaUjtv1JIGqoiD+kwbqwzkPQGcS5liwi6NpI0VAy3Z6zbmQRt2qfRyuQG0i2UzcaNaAzMxkOsUxeA/0UDmLLGleoCAL5h0mD1rBqxb8Z3M4pBAIgyQXOYSFZAIA3gOQg30SquX4qIUMGld1KjCLmDncfMA1Cst1ZIXNQo4mJpdlKYvYLnG4gGK1NcW+g7dya0Kqs3nQdEI+lDzXaorCpP2CrsTE6y55mfQJFfQXe284kjcetU6wMS5qGrE2oKSlgDUXaXXyz8CqgHUk05AGyX65cHUkkCUbCxWpw07Ag1e631Orja00Gg3MTmAUAV5iCbOEVBznxnr24YN8lFLNooLWrEMMOYhK3aJ1NkLZRCkRTWkDHsA97F/W/lqT/x6EnyftIULrYjVDxNjFIH/wRa+0SHbGZGMQiZxpQAHYritITeP4NZgEXKLTOi63dpYw0iAsYQWaz3DHcPi19TZM+Ar2XcvPP7tXtLY2QuIvzRf9yZx5M9ibQt9kq4XwCL+Ardtsy/jFIxwHJi9G1Gpl9yWvVN0gV3rf++Ff7e3h49L6MvxdJrvsPfv/aXV/povvPHxDw==);lineShape=1;strokeColor=default;" parent="1" vertex="1">
                    <mxGeometry x="151.28912175059168" y="439.1786794760146" width="39.29429600669664" height="47.379196735879276" as="geometry"/>
                </mxCell>
                <mxCell id="23" value="" style="shape=stencil(lVnLchw3DPyavaL4Jnh2nP9wleVoK4rkkuUk/nuD2XB22JxplW8rDXpIAg2gwbnED98eP319uAT37e315c+Hf66f3x4v8bdLCNfnx4fX65v9usSPl/jhy8vrwx+vL9+fP9/+/vqpW/Zff7383d/w7w1XVHzpqOB+3P7jnQT97z+/3wBP1+c9IEp2E6BJdOf2WaXO9rZiJfZBXJ7si5R4bp+y+Nk+SfPn9rFJa5N9lNSIvS2vk32QEoh9Go/v9p74MwaJBe3Zfpyoh/3/74BDe3O3m8+bh4OP7ZOECPHK5Lxepc3x9YkSwpu/waFOWjoHqCRwqB2JRDihQ2MeLjs+scR5P8l2SDzkkUDZ9k8YHUVnh1pKKHl/lTjbF9s/d2iZGVEDTZnO4PkEtUllnNsovHGiSCCA5CXNMWj2CsKiZC4BQBHHykqUOm+pGStYXVGJCQGJ0M4KHXip1ZEax4CGcWhJKlmh5sGbDeDFkVqhXkrCOGRCbXuc5jOok0q415zkOQ41iSsEEAeXN7bW4ehjQBnlfwP4kbDHgIr5ny0OHKDzCjnRBDIAtChjFyPfnZu7ElBIPhgRwnyG1EYbPQZ47DpJqVtVR83aAEWUARJ6qXdScgYjX57pbXWyMHpb45gLWQpDbJzlg85sTW40l2OAaZH5DNbdlZyhWl2aAxe3wnOa0wvAk4wz9vs5RSNnaylSIwJYgzZAAkChOW2AUBAQmcQzAJwhj553BoAWagAmkgxQlh7NRIO51S1bYuXeACBTTZg15qUqTRcAC5wucchDap0BULnl0erPyOfq4lbOVg/atgy/nQIWaiS2JcWW1cnHD13mutTpzcinC/ksgXika0VA5JEObQEw8hUUJwbwzEtlSOadl2iZKWMDOwBr7D1FlyLABFZfAbaUqTjpZ8gISNxLbaG3ZytUVGQ94xg1rLGHBcAirUukM8+HXwVUd5APLA4mzRUibflAuGT6Cw/NO1CtYwO7phjYvNGwA1nbzUwJhPF419jZGXTRS4kP3dqwP5g4ccStJkMdnKFQtnYJB3qpcpFo1AD50+j80OwxyFBPJ3Xv3CIrA52MbYkG0jjT4moA4Ldpaabh+lA1b8nUupJQt4wjSm+sLHJhXDftJo5KaqUpXQfDqKfjrkY8g1aqTmrFFVqgI4pVARiz+pTDGoTNA3CJprQaZ8WpaceWs3u0NmdEJyThRuc/jK919IxjgBt9eQNEiewixOGWLBCsDASPHcLGV0Ymv1we9hGBHDpjo+7qmi2AE0pudKRZM5ofwOF8YoWSFfuA9yy95zKxhJU7VLp/77EQ+0Yvu3xFzerjKJxnl1Ew3vNbFjtCBF1CJ+l+PT2/3/P71TDuO4Y9z7O7hr/bM/XZtSa+nznUsgwKqqcjrjVKlMO0+1udgPcnOnPnhlK10NpopQ4I8Y46V9y/0vvzdUhSPi60paZIYkq7oQ7WcSVwZr9872ANs9tDs+FT5HZVe7en/jR7KOvv7R/uVNp7+4/LByQmBkvDDxIGoBFWlMze8RArfmEwQGQx/uWPYO8D7Mf9m9uX69PT7ZPd/jl+o7N/3b7vxY8/AQ==);lineShape=1;strokeColor=default;" parent="1" vertex="1">
                    <mxGeometry x="56.757829502876575" y="467.7964732143548" width="144.1616708983093" height="177.34139416202348" as="geometry"/>
                </mxCell>
                <mxCell id="24" value="" style="shape=stencil(7VnJcls3EPwaXqewDoCzl/9wleWIFUVyybKT/H0GYfD00OBrRjcffKNENAeDWboHOMV33+4/fb07Bfft5fnp97s/z59f7k/x/SmE8+P93fP5xT6d4odTfPfl6fnut+en74+fL39//dRX9k9/PP3ov/DXBRfFawcF9/flH06S+/cfHy/LH86Pu+XeSf9utz5L88fr7edCmtb7JLUdA2KQnCdAUKnEQlLxs4VkNusxIFfJs8s5SszHAG3i3ATQKDUdA0qRWCZA8VLLMaBGCW0GFElKADoOcQCqEyU+NCd1PtaaJJBAG+C/uG6ARi3YlsoMaNzpYr83H2uzOJBIa8VcbUmUAHIav7cBspRAcsmJnwPXVCIBBIu0IiCT1PB1cVqpDz5IawgoJA5WoSkjoJFcauPb/XqWGZLWDRGXrXoqrqe5PdzbrfdkP1bOS5CVFZvEhutZJazr08j0o/04XB/I+Zi/Ecug0vN3GdenSOOluN6zViFt7vDNUpD0055wfgGwlE5XPA7Eg85JbTkixjrWHt/UKYx1sHlluqVYRo3sWwsBJOO1Je0ooFzJ68S6XZBQ0OlGLGQdebYDRFI56kYz3MeBkLmmZUuWeySXtGAzqpWTiMfqNF5zZEslS559MKpVckpGU37uX8VJJoAasEDtGDxrAHFIrk2QNCmsQyakKQtlIk7XPDroTvJ4wmtdX8xOWzoy5jRxEGYLxqWRRNrEgc6nFP2QKNcBlmpz1zDtmpkFq+C5gHyhTcAADbRq5AAjpoYAx1q3cf2cfEbvmVkoi4UwYn8EqAkBjrHDQlfdAvOhYS4ZgEa6jTDtAJVtqaG4tWNlnc87hwrdOMYxzbOaMFLiXqMTmU4ZBnANAazfWyCA5LzyZCpYEB3Ac8MvPjCCeJWmO0AmfaYXxGKBdeMrJZck8aIG3vWRJ5Oi/DQAHXwU9ZKlKx2tFBW6AQJLvnKlCzhmoY5U+/8AGN78Jg6OsjUtbUNvFJBfjpV1sracEh+iO2AmiJ4aLJfeDKhLE6i0z1jg8nxK4YaFPJTCRnKBypk+Ac+pkTydJ41GI9x+bPPWEVGX2YJNycyCCbAMYuOGFCiYS+ppXzJ1UuY4qE1wzIeIFFQ4BfWrBhB9jc40phLxuoQPxWWV92Eo06NLJbDQ5wESBzsTnOvrLbUOUsAALHAWV7wusT5CLNjEoTDaN3p72EVkRkAhFvrUBK3yleuPBjPIvt6qiNdWkXD31hqdUWy4xHl3K5Gj8dXBNFroufa+lRDARvxfdz6/7nx+8jufgORsO2I8ZVScF4Bndz4FRVLfEolBXBRJC1Td2syMPnjaWrSgfm52buw2Y3G6VnqsxrU6d4paaPOqSeKcef3tgVWmG4mwo076+JHHvLkBeC2oInWqUh/yNuZsiiRTsZoi8pTxirJHKIf9yyoksmexMhJhd9fAVFVZXlfoFOOwP0baTi3LAiz39NfhOinQSdVhgAOdhNfZnBbNcvR+PLEcLIeqd3SkdShmHaVuh+Mpf1r0+O7n6PTrcYDn0iagPHP0ZieMO8TX5Z4c5Bsfgm8utw+vb85fzg8Plyfr/ff4Rm3/urxvxw//AA==);lineShape=1;strokeColor=default;" parent="1" vertex="1">
                    <mxGeometry x="596.3993247214644" y="408.43416678678136" width="84.30705899553787" height="85.60187320863241" as="geometry"/>
                </mxCell>
                <mxCell id="25" value="" style="shape=stencil(lVlJbhwxDHzNXAlJ1HrO8o8AceJBHDtwnO33oTKQelQ9XYFvdk+xWxKLZJE66Zvv9x++3Z2C+/7y/PTl7tf548v9Sd+eQjg/3t89n1/sr5O+O+mbT0/Pd5+fn348frz8/+1DR/a/vj797G/4fbELKr50q+D+XJ7Yg/bvwfsL/uH8eIX3TUpa8FFqIvgizi34LL4SvErLC76KY+sJ4uqC915CIQZOsl8Noqg7NqiSdMXbEeRjfBZdF2RPAtlBlBJXB9gR6DFecT3RSwvH+CB1XU+s9ICClNVhSSUTfBQP+CbOH+PL8OckRBwuv+0wL2XdcLEnzMNF4krRUqWxHYdxgJNzSQJxge2hrUtqTiLxgQZJK6tblEBIp/aFdQ8tS2YsMjfAF4oU4obkbxgkZtAkrERqSRJZUi7iV2a3IJHEfomSwA9VNJLQ9ON900BptqgZs0vhp9Q8LqnYHgiXzK8F6F1ESYI0v9b1lHKgXOpuWjN2KtwgI5fM942Qz/yq66Zjlkjiwfxa1xxgOUnJkmqTDEkvS2KeziMgp0EYUX7bIKAfLJEXsofSxK91ISRaqUpCP1gecWTTW9q6qiTsC505K1u9FReyh6wY072ckiWlKhUMjBrEDylKBgMngRk4PCXLxSTgjGm64gvPe7tylQcXbyfWhuU/DwF0G28/r8RLUsn6N1pu+EzwfXtQPmnKs/IfX4PvFEO8JxTyCVNqpOdp4mmnBzPHe8gtXG9O8bHpU3aeho+rvwJVUx0fAR/4+4Fvfuixw/2u63dUixi+esAnhrcslACv7DwtvvD9kfGnDDG34VnBNHxqcD7Uv2Ucx4Zn8eUrxmOgqsXwDiqNBJIR/dQDG75ysQn+jUP/H51/bICn55mwPTCCsPWbmMb3s/zZmx+P62f9nGKpV74exf3OGnWIhzJM67zhd3wrHN92/GT8N0265kPrH5l/02j2ruKL5YcsLiOe5c/X4tsIjw3P8nmvLxXPh+y3t0IB8JHXR5C7nuqBrgtBx1H9HWf62/jGJFPc8ZPXo1jGz1s9DYTPJrXjmh8yzecpDXpdzT/Y+9vQa7PJGpLutkSMWO+64iMBkysWeAsJxuiiY5wyDcrQdLcNyjjB6WLH2z6HI40+FCFfqBHbDaMtq/LWd+JUzItjHdBuSKGJdkDWYzkY4zjeJ04dPA24Em1tpxQ9HeR453BWZ51lYZto2OFbB8KiobeioNbr0C+3DXS0trMd4NMx8xzUS2vsaCuqo2mbARdpd2x9H3SWzdEv5IoTr2Z8JAYW08Bvc34lmzbHBkgCjRpY1gO6Xjn/KA/jmuykSWFQt0tMiU/h8u6YAl1SV9KrQc20xe+9DbiaF8+Gtd/I5+goFFJlznQHfsw8rkanrLnZx6eOxHaEh5Qx1fABHtJk9GNuebB+6IVUafOxu2uw4slKyS5HmppnYjkPKTrxgY7qK84a5ojzgA4VSzlLFFZYE44CWA0xeiq2usxbvRWCmwxa+sNulumo1OnKTAHvSK42ZaYoTWn87kZ0/3m/ovRydIbeRQG2xoxtvZPB/RY2iok7eo5ZyxHeIz69Es/41tez+jfQi62tc9vwmfFnd/MU6MXNa68W/4+3P7Z7zE/nh4fLNej173jvaY8ud6b67i8=);lineShape=1;strokeColor=default;" parent="1" vertex="1">
                    <mxGeometry x="659.8359111482123" y="477.497234085369" width="113.00338820063088" height="120.23184563152527" as="geometry"/>
                </mxCell>
                <mxCell id="26" value="" style="shape=stencil(lZZNctswDIVPoy2GBPi7TtN7ZCZOralrZxy3TW5fqCodCoxfJztJxEcKwAOISe5e9g/Pu4ndy+V8+r77PT9e9pN8mZjn4353ni/6NMn9JHdPp/Pu2/n08/i4vj8/LJbL04/Tr2WH15XjQL4sFLu39YunxH8/fF3tD/Oxt08kbmuvO8TbgAhx2gDLFuE2EBJV3gAhUEi3gSRtuQGJSfJtoHjisAFyJVdvA1Uob52ujmoBQG3LV6CQYKCIBQoIqy4nvwUqMfIhUQgWSOgEoZgsUNAJzmbaO0fOgUSktmF3RAX/VISKs0AG2tBUC1sgAPWpEvIQVycQ8EPmIlCfAilYwHssV+N0pgQSoVFKYgFBUUptvw7wANBUuzgAwAcV07+K7AAG0lC5crEAStwS9SFKBZ2gmR5qlEGmOzV3RMZHWG1U2CyXoEQLROR1oFgsUIAT1bc+1Jcc6EwlUx1rFKkvDHHVXwI+FCY3NJqI5Oo+CivwQUvOVpAmDhf1JwFuLl4BTwFIIzl7gp4ZwcUbuF1R3S2XgZY4tors7tEMEucdlW2N6k2dgA9i06CjAINED+XjKQOPNULZmAtoMdolt51er2iQMU2YN+YRBCe0zd7NBfy79qpizD0w19CztXfIV7HqwRetT7ZfOzjweJ0usrFnUJFLrIdooimS7Q3l4LSjUsvb8rpm+2P7z061/7XXh/cR+mk+HNYJvF+3I7d+Wsd1uf8D);lineShape=1;strokeColor=default;" parent="1" vertex="1">
                    <mxGeometry x="694.5647386700566" y="519.5681567884615" width="13.522390046413319" height="97.71986335732183" as="geometry"/>
                </mxCell>
                <mxCell id="27" value="" style="shape=stencil(7VjLbttADPwaXYl97/Kcpv8RIE5tNI0DJ339fam6Wotca4IcC+RmSxyJHA4fqynevOzvnndTcC+vp+PX3c/D/et+ip+mEA5P+93p8Cq/png7xZuH42n35XT8/nR//v98N1vOv74df8xP+HXGBfI8g4L7fb7Ankr8e+Xz2f7x8LSy945SUoBWKAFA8JT1GyqT89uAmMlFBSiNuG0DsiOnXcqFct0GlEguK0BKVMM2oAbKGiBORhBDbeQ1IDSKgKXmKHsNcBQSeEOhplnynkIBgGRZasuF6/aRirYvVB20z01nAVMUqWn7SIz8SQNDVIAqal5k2Qmigvwvy+3F3lFFfFbibOwD0hBTZGPvgD+iiJaMvQfPb4FCNPYZ+N8ipWL4QflqiVI1/EfkT6ag+RSBoAoQQWs+RdAJVHGTrmAckirmbYB0NtYZSBIykBBn2+typQI4YrmtOS1MDSSZeyvszbEQg6x511XTy5gpoSCYqqZJeED9d/ZJR81hke5W1Kxd4ohdKpZXTku/vA5IthbkSkSAuPTCFcAhgKdWbAwBxeAWra1Y8kDfAvDmDQ42VB7GmmTaA23wOJpFj6CCJOh/Fbya5REBgu3xUuUJaUnyatQqqURayssgXgNQ0NVmWlxCfYnb0hZXQQeUOKbsLK0JxcBLCXdAb1WbAN0FuK8DW4Bo6sHDtiFBm0yLvKGWip1uAkBLmCQuamnMJQrmuTzP9qVEAQUtA46tSxn3eyM+7nvcVgFFb2kNb5SoUSvDpeTdgPm2ZumyWm4BnAFIlaM9Q9Y6HXTugt9aNJLOdJJWCVwSj5MOOvRZ/7GqTh+r6n+3qko6s/UH+V+pan7qW5M/6ILxBTZfKfqsCQ39EL3FkFFojHDySw2bRTWJk+iM3aym52M6cCnnhcNexAEemcUBMwSljpBLYZhpkngGfcgPy8g801DhDFOWYe8tw0Try/p1juwKuToOXOfIjpvLbnKdomER4eVEc50h4uH5qPLl5GECbrBynC1kWfcS6LxumPhy1AD8DIcpxpNAnj8sOaiTOirD2oV2HD8sILgG3vv17m17+XH5VPhweHw8f2lc37efFuXS+bNkvP0D);lineShape=1;strokeColor=default;" parent="1" vertex="1">
                    <mxGeometry x="706.3349742075884" y="544.2344034085156" width="39.985915738406625" height="41.821057486591954" as="geometry"/>
                </mxCell>
                <mxCell id="28" value="" style="shape=stencil(lVbbchsxCP2afWUkELo8p+l/ZCZO7alrZxynl78v7lauxa5PJ29rmSPgcABN8vC2fXrdTBzezqfj182P3fN5O8mniXl32G5Ou7N9TfI4ycPL8bT5cjq+H57n369PF8vL17fj98sNP2ecCqV2QXH49feEavpz8Hm23+8ON/aZKcfBnpk03AcUploGQArUgIcqVGQA5EAFABpT0wFQKoncB8QQKIQB0YQCQLTmWWpKoQJApuQ8ZGoIEPt9V0AlBSHVRGHk1YJU4KFkimPlbnhYr3XtpNy4KBkAAuVFEhXEpIkqj4BCSQFgSZNSBjSlRtXlIJRB0uaBXUiRtACAUhxLXY0lAMiWQx4BplcEqJTGpGshZVhqLR4gAGBi0uABBcs1ic+hgsKZ/HMaaQ39instp67lmAR5aH4MtNSbcB1gKS56VFDSsmi52k/WabU6uJAacQOFMxKjBzTAUll2nAEinN+tLUIC01Uth1GtxhuaZMpe3kYrA5asRZsDJGLg4eMAJR3FV+wKIA0xtY4eLnsP1MGWoAMkhluu9W65rlEs1kDRZQBnzGLB2fBHG5HSOPMS3D2pD5NuLr3k623Qh9V18XSVrwdjD4BRogGOltj8EgnEqFYmR3X2aA0KU4nOPoJ0pfqVE/oF62yaeLPjJ4NhnSrlcQxxJ+DeRnND5epw3f6DT8L/29vHv/fny26/n5+vt//796odzW9defwN);lineShape=1;strokeColor=default;" parent="1" vertex="1">
                    <mxGeometry x="773.9339383479423" y="567.4405279178513" width="7.068159368656981" height="27.98671587482381" as="geometry"/>
                </mxCell>
                <mxCell id="29" value="" style="shape=stencil(nVbLctswDPwaXXdIgATJc5r8R2bi1Jq6dsZx0vbvC1WjJKRiROyNorDEa7HkwDfP+/un3UDu+XI+/dj9Gh8u+4G/DUTjcb87jxddDXw78M3j6bz7fj69HB/m76f7yXJa/Ty9Tif8nnElQeKEIvdn3vEOLP927mbAYTzWAC8VgApSMgHOVYCQIZaHDF+HJAHkrwO8c62LXODsmDhXgEKIBkDPy7WHEiHlOiBluLpMU1p8HSAMTjWgQOg6ICRQaTr3VodPEewRSuuCglFYJQfXgIRgdGLFjRKQrM7BNzlriEbOrk05J2SjC2Gp4Jt9QDDa7BmpIZJHNCpEglhHlAqC0YPgUeqQlClkhBSVNq4HkBiBe0LKAvarpKMxPbGdnqms2QCUhQUb+6azkhvi+SWrzwGEHFbMM5iUaVG5jdSWjNgogD08kRaB2DyfAvGtC0sCdH5KUyZbZFTbfaMAtozRKiLVSUO7e4W4194jd10N3Hn3rGj0xeWmLOq6PVVfmtlENsxTe+tEREtOA7g+XrXAUi9q+ePNbJlbLXIQS+y0OdLYWwMQI1LssBdB6YknpYVc2/LNOhypo546HNTTryKLkm+jw/881r4C6OL9bfg4Hg7z0/Lj//YtqVvzO5Rv/wI=);lineShape=1;strokeColor=default;" parent="1" vertex="1">
                    <mxGeometry x="315.16948054948534" y="513.4400358178623" width="4.652846626723759" height="21.256232754418914" as="geometry"/>
                </mxCell>
                <mxCell id="30" value="" style="shape=stencil(fZbdcgIhDIWfZm8zQAg/17Z9j85U606tdqz9e/tmZ0c0uJ47xP0I5JwEBl59bp8/1kNwn6fj4W39M76ctgM/DCGM++36OJ50NPDjwKvN4bh+PR6+9i/z74/n6ctp9H74nlb4nbmSKZeJCu5vngmZ6jzzNAO7cX8FVKEsBuBKrgKg9oAE8gkCbLeUhEoEQKSUDZDLeWYRKIl8MEDRmHwfyBrBG6Amyu4+kDxxMoB3jhwgYu7TVAsVkFcWCs4CTBEoF4RctKeOxHIf8IXYpikHikAIf+MNUW94AGSSaoAoFIE3AlOyeWU+p2E5S9yfQZcQILVuQOwZdJNoS9Ls3wA5u2XZTIHECqeJ9kDpSaauRiNVcAY1QhdBzeLBli5WazpkSsBLV25uRaqWRyFawTQzRRIQYirJzq5atkBqLfouwqUxLBepthWb10vrWZY6UOAeyKCCtDV625mm9gmUC4Wc3VLJMMIE1BsA2FW9JraVlQB7n3c9oMKhCLEvIM1zBPZ25/umNQ1tVEC2G+fFCC8g398O2hNQuQlVu752DBfA+q0ptnqO5JFmeuIuo9DY7KjY71UxdJV4EntifPWorW++R/dC4t7V3DlIB5cHx2bc7eb3yvX//QNFp+bHDT/+Aw==);lineShape=1;strokeColor=default;" parent="1" vertex="1">
                    <mxGeometry x="312.3491936878204" y="479.0211635552557" width="5.191710857905794" height="5.183595795952998" as="geometry"/>
                </mxCell>
                <mxCell id="31" value="" style="shape=stencil(lVfZctswDPwav2LACwSf0/Q/MhOn9jSNM47T4+8L1aUiwtZ68iZLWBPALg5u0t3b7uF1u4n8djoevm9/7R9Pu036solx/7LbHvcne9qk+026ezoct9+Oh/eXx/Pv14fJcnr6cfg5/cPvM65RDBMo8p/zCyblfy++ns2f9y8L8+nzaF8ppHX7VKjKYB8KFV0HlEQxDYBYqJV1gGh3oAOmM+s6oCq1EZATSVwHqFCsI6DBGFqg2AaARYWy2jK1OAIqKXCpqXdJElXkUvMufeTtKiAwE/PIdOyJW/OpOYBpQwDAlDACNFBqABApj8xpIQFUa/Vi0kYViMm0EXQANGMuA/UlKiMRU6YBERIoFA9QkNailMcTFtRcRxRfo3ZEBUSYOrN4QABRl0DiANr7yHUAUxnl1yoxcokpOSLmqNZc4pFqK6oCxFRMTM4l4xIRkUlGuZoekZishv8ncQFIoKpL61pbAKCYLIboAYKaZe6dbhE0KjkRCs2nNQMeDNAuiJMbAJdWIQXSEJsHruSUGNVo9s3S5M3IpUCteYAgLTVKFyc0BBAS9QBFAIuBPQARZ/L2xCkVpFbuWV+UaL5Roq6T2aBE8maqTny5i2Wtpt2knroxbmSXBdTAgPg0wKShLq1MEYivBspjlmydSCBoG5o8SkMT3DaqSW0kTrnPmOtTcS75eVALFJ95HEZ5T6sAOkGojmq1bQN1PgOo22eszYCgbfC7qWg1mNEJqZf8DChdjqtr4phWk2MBY9eYbiPT2U7AbcaVaLJGBsSXpSdx3o21D7Hr27p6HoLxANQakl/JAsNNwBY2t0vDsc59FMwR9/VpxTyIM2dA2cXGOu+La/8+8mW1DUTNfvxb7EAOwXPFcH+JfkYxlLNtbOzMEU029pMzhxukH8nYvPobGHbGVkXxoYLMfPKGetPcHj4uw0/75+fzXXr53V+e7dX54p3u/wI=);lineShape=1;strokeColor=default;" parent="1" vertex="1">
                    <mxGeometry x="312.8279908757895" y="479.5052127328288" width="35.848339706908014" height="77.23081460743187" as="geometry"/>
                </mxCell>
                <mxCell id="32" value="" style="shape=stencil(lVjZUhwxDPyafVX5kK9nkvwHVSxhK4SlgFx/n55sbMYapineZmfVY0vdkiUf4tXz3fXj8RDc88vT+dvx1+nm5e4QPx1COD3cHZ9OL3g6xM+HeHV7fjp+fTr/eLi5/H68XiyXp+/nn8sXfl9wQXJYQMH96S9K+vfiy8X8/vSwMm9S8mTuJfl9c18klMneUfugotHYO7dvH7H9aLafmH2TPO+/idZ9e02ibvaXAxL80wmALUYGiNYDrOlIiJJKbhMgZdFAV2jzljIASgBBvJ8ARSUSgEIVdQJUJ5X4oMWGtSLQRHYapKWZNyelEaKTtNmHBh8iAXhxRhn4BAGE1JU8AIVqD1LWOUqtSiHE+WCJ846nQ5Y6h7U1Kj7fgz7ssSSxH6uvaPOEZydxzv5SJTLW+r8r4f1n5U37ajkr0B35vsfn5mqXK1UFIhQMIEsgO8KW0hyijHwlIYrZcpAj5VizpDlI2YsngFS6BkbBqFILUVG1UUKFyQRQUOVnp1GkKuMtSphzB0UqEeJa7gVoAAKNEnJRmwV44gNyMUULyCQXltRK1gd2NABQk40SKxirbB+I1I/rvSXKnHBgrhB9A+BNmIoUIleEKRrmqiihGkQEtQCWo6DaFQtgRQmFvW1WyGwFHIibFRzTBuSabJQ8WyFsqM7iGXEAGPXBK+6DJS72E28PUKsF0AzSzZZCV/zbgGTP6CVHmfiK7TMWAM9RW2eCKAO0XhlXTlPiWj+RVzx45nTrNK1SNHBA3bRvkfugZkuobTxFTUcJeQfSvoGHvMlp1lwhRTVbAFXrRwFVN/UenTvxAY2FzjmdHa1LuW3O3UBHk9cdD0CiWtJqDwgcrOygjtU2iGhnWAsa0e3M0ijIaVIqMV55swIfNjx2bDqswvOh9/2jQ8SAyDpQ19cfgCyN8IYWLs9EN/RohAY0lWF2oTY6nESUiFl7FT4zGjZDMeSrTBkqwdBQ6TGtm8Z+IZpESUcCr/pWpgyMcGbwRllix/Si7ll72GQgdQxjrWml4xj23wY4ywOGe2X5M5rOMS/FPpju5Y+bo1Tfu50wlZVP3sge8310Y7Ths0Iq/TZhZ1xKm+0T82DDA3NCWNikAaXL2+JVaceDymZKF+22N7NzeWfwNI1CpoeB67kxxN+J2DE3kUERJTVxMwUrHco3Ioj0MB7V79U8Mo3ZuI9Lhh0RfOh68F1zPLzeRN6e7u8vF5nr/+3NJV5dbj3j578=);lineShape=1;strokeColor=default;" parent="1" vertex="1">
                    <mxGeometry x="321.26022552442646" y="605.8018782144354" width="57.68838294762342" height="59.481846287786894" as="geometry"/>
                </mxCell>
                <mxCell id="33" value="" style="shape=stencil(rZfbbtswDIafJrcEKYmSeN1171Gg6RKsS4o0O739ZBhOIir+uwG7cx1+lX6evYkP77unt+0m8Pv5dPy6/bl/Pu828dMmhP1htz3tz+1pEx838eHleNp+OR2/H57nv9+eJsvp6dvxx/Qffs1cJI0TFPj3/IJJ5hefZ/PX/eHGXIRMO/tAJa/bByFNnX2mqOv2Uaj09sJUeR1ITKUXIEqprgPKFGqvoN0RSFDzVwqFDJyQjbj3UdTlzLtAqZSsA1KkautAVdIeUKEENJj4K2mlHACQFomXuClVAUCh2MehBFJ0QqVSesAoANFmFPsr1UwJndAC14u2AFNDmIm5JyoJUm1UqwcKBlR6oKlO0E0WPJALBMQ8YKCkp8j1Gm78cJ/IpNUfUYFjreVO8YAiEUoxeUBQrJU4+kCgqp4S3F2pVTUClKR6IGLR2V0pL25Yc2soHlAUh0KcPBAxUNUDsObqHQ2ohOxSw7eiUX6PRXrpJGuADXEwXHJuZE2pgYGcffIxFi1Dtiou6qQeqCj5CuUe+IsarcOdDN0pEw99I6PcUD+17IMG3ipo6K5oeZhqNHtA/iugQ8MPy2hdO6H2J7QhlFG6Jl8QbcyhhaZdwPrAlQhXJuPFiZdR3foCEF2Lj3TmpfPcB8TnkkbY+kryGlLLLtC+23JR+ikXW8aDGtW8rC8XgGGvTIVC76WQYGrE6ieKVIpAQzA/s6RtcWiXHhaa1jVAoNsmzP18yCTI3i+JkTJoAMOKGOF2xZTZmQvwPw/uXyK+Ys7eHLWWYW8T6Hn2BSAwndmvtgw3BV7a5tUctRRZ0vBqjma4+Eph6Pew5OzVHI2Nofk0c1CG//j1+KF5e7h+qL7sX1/n79zb3/2HbXs1fxTHxz8=);lineShape=1;strokeColor=default;" parent="1" vertex="1">
                    <mxGeometry x="340.9241526070232" y="590.9276499998496" width="61.40413982176192" height="83.00827783168567" as="geometry"/>
                </mxCell>
                <mxCell id="34" value="" style="shape=stencil(fZbdcgIhDIWfZm8zQAg/17Z9j85U606tdqz9e/tmZ0c0uJ47xP0I5JwEBl59bp8/1kNwn6fj4W39M76ctgM/DCGM++36OJ50NPDjwKvN4bh+PR6+9i/z74/n6ctp9H74nlb4nbmSKZeJCu5vngmZ6jzzNAO7cX8FVKEsBuBKrgKg9oAE8gkCbLeUhEoEQKSUDZDLeWYRKIl8MEDRmHwfyBrBG6Amyu4+kDxxMoB3jhwgYu7TVAsVkFcWCs4CTBEoF4RctKeOxHIf8IXYpikHikAIf+MNUW94AGSSaoAoFIE3AlOyeWU+p2E5S9yfQZcQILVuQOwZdJNoS9Ls3wA5u2XZTIHECqeJ9kDpSaauRiNVcAY1QhdBzeLBli5WazpkSsBLV25uRaqWRyFawTQzRRIQYirJzq5atkBqLfouwqUxLBepthWb10vrWZY6UOAeyKCCtDV625mm9gmUC4Wc3VLJMMIE1BsA2FW9JraVlQB7n3c9oMKhCLEvIM1zBPZ25/umNQ1tVEC2G+fFCC8g398O2hNQuQlVu752DBfA+q0ptnqO5JFmeuIuo9DY7KjY71UxdJV4EntifPWorW++R/dC4t7V3DlIB5cHx2bc7eb3yvX//QNFp+bHDT/+Aw==);lineShape=1;strokeColor=default;" parent="1" vertex="1">
                    <mxGeometry x="706.7936381322647" y="588.2804002089015" width="5.191710857905794" height="5.183595795952998" as="geometry"/>
                </mxCell>
                <mxCell id="35" value="" style="shape=stencil(7VlJUhwxEHzNXCtKu3S28T+IMDYTxkAA3n7vlCfUtEoz6fDNB25DU9mqJWtTH8K759vrx5uD1+eXp4cvNz+OH19uD+H9wfvj/e3N0/EFvw7h6hDefXp4uvn89PDt/uPp78frLtl/fX343t/w84RLVTR2lNdfpydeUvrz4MNJ/u54v5cvEt0k3yQGIp+k1UneNcmZAKJVKHhx7AQnUSdATJLaZUCsUvwESFmqJ4AsfrYhJwlEpRglpAlQnFRHAEF0tqFkcQQQljBUnEDc6utQYDuhSSMneNhQrEq1EICKm91agni9DHBJ8hzp3ESJSk6ltRkQJRGjsw10VsoMRGE2GWwPxGQdHtzkEw2CSshW3hODVXSmEZIjUn0Mi1KQQt/vjf5eGtU/VyvviT5usdeNN5ynkPhg5T1JTPBrJlBSymlQ2lv5QvRJNskgXyPjW0xWfyXvB7uqlY9EvoqL1v9K6pDzo4hsALyCVHcXRzy3jHE0w1weDtwAPGUcCpepEm4Uy/OAJmU2updGUlbAojLbUJWegDCXOWw1iSNlAi0vmeJbqZdCtYAGtxIioYOZTGieNhAQx2ULYKmGltfSohIBZG+LS0VkCPlQzA2Xah6vOJ8NRcpsQ8WZJP0r8nnpaZG4tYWFfHn47TwgLuRDhSc2tDzyawco7IRiqQGVWE63aoswAJmpBLYao5GihN4AtDkOpdJxpwOijUMgbAUgzjYgRT0LHIxexh1GDbg1BgtIpC4hcJotgA2FoEZOFkAjHSRECwgk45pfEkgHHc8Dtlq9i0NlkXb2BES6MaPdyK8dlxpTydtpHgAlxRhe0jlwoHdgJ0Q7nPcUZUanJYESd2sZTXwHYGMG2GrmjG4Di3RbbCi0xwFQlxRltdXpMhv2UHOdrJvaaBmXrDZVoNOVBaJIXTIo8qT+NwA6lNlh0NkZmWqwOww6uxIb4MRkGrVSfpetDG0ANCW2w2ConJceEJi5NTVbKxEZzxfoPFMDsS+kVkZvZ4cdvc4PQNHWDejEqitG42zcVMZydmnq82aeiZTfmFxN7UPk2NTnwpj9d/MM29H7urq0lEi8VEdb3tdKNpLZqxWQKxMfZUsMcIsNlcF26czXJR29420dfluHD//hOqx2GAEhWMIg5dNyIcTGTmy3dQ4Z9memUr9tNXdgiQ7nPelnEmHPYkkQ1Hao4ml1D3m5KUQlJTZguy1mtFA6KUS1J/R7PHZjG5Z7jExrNfbnPFMbT5SkclyuwYOjtSIu45HDEMfaso73vV6cMxN6rszdwEsgzaPXhjnObtx+XpI33HbiWPJ7OwUrf7+3q/NW7s/LI9fUyLPumpbqxUcQ9BZzQ6I0M/uHi2Lk2W02GJmbkU9Mvgy6vMqzYg35YuPLhgnI2w8vtJn984egv8rjx+tXp0/Hu7vTR6v9/+1XKjw6feEKV78B);lineShape=1;strokeColor=default;" parent="1" vertex="1">
                    <mxGeometry x="680.4885940057115" y="588.8163599112038" width="52.549387184542155" height="75.37803618984576" as="geometry"/>
                </mxCell>
                <mxCell id="36" value="" style="shape=stencil(lVrZchs3EPwavk4BGJzPjvMfrrIcqaJILlm5/j6DsLBcNLi91hslNnaBOXpmGrzopx+PX74/XIL78f72+vvD309f3x8v+sslhKeXx4e3p3f7dNHPF/307fXt4be31z9fvl7//v6lI/unP17/6k/457ouq7jaVwX37/U/Kq39/49fr/jnp5cdPjWpDvDREXwSnfFBcj3GxyalAd4FgldJOuG9RPJ8LeI84NUTvBf3keeHJDEDvkWCdxLwvEWP8T5JzWD/ROzjzXyz/aMo2U8d3h/wJD4fwzN6y7aXiLfExQmepRZifAllghdp5KxB6uyqJo25StIc+WYrjo/z5n2moRxEZ0+Zr5VuX+fI7KlF8WAds2ZgoSYhzfhKnRVGYG2R5sWz1BIPzKAj9w+CIc770SSBpKI5fz6v5XIi5/U6MmkLfccd7CXAgiSFndgcCuEfxDM2qZi9xqeJ5FfM4mYj5SKZ8INtIM8LCj9DquJns1YedlYxdM6bannGOKJKmQOpRWkkMIpiZjbzPYnUUsYRtwVtMM19lvOS5lxrdbzz/oIoddlSIH6oZtbZD82im7yhWfDN6dOUprN9XeZYatup7i9II3K2BU4cod+Wpc0L7FQsgcwmQBk1j/J29IYyW8mCL5DQsMips+NKpSTcrP7NKdqji8SSBTPQcG4jQ+4vyMMm2wLrAVhoJGSNvJWKo+ALc+Ux1mCVpBsRaCYNQ99fYLVtJoHkaWW2BKrzlmKlfVTd2qYdt7J8sAU6x1LcWtWjBUCV0VNurU7KfGirD8oO7dAPxueJEVlDItNM2ylbAN1mr6FsgVkdinqTSDKuUyV0GZHmtC3ANsbTnLYFYXactxRlZyiDhbYFZSTt/QXWNcIb0pgCjhZkaMojrXH90LAlT8ci80MCuqdtfHV45kxraC9YkA3iyX4soTM0q/z5itXH0VpieIg7x9NfJQfAe0ZIis2e4wU9osPcmHuO8GXBc872EffPGHgrATd8YPa32uwBH5l90qh6NzzLsXvPp/xu+8cx2fHne8SzOt7tj/HJSKVuU+vPje09fhI+n8d/doA/iU/FeGD8YHjfAF9O8Ohf2p8qyggnpUyRTxz3l45RcZcv7PkRRyk3dJcjfEZ7UnwaqtAOz+yTVn+xWdPwCflBmb8svxCfTvC4n8rs/1F8HErJTVY6iX/AR87/S30pZ+0fDI3+JIDcmO136oyyGt9wlDir8W1J+UTPbAtQACqUFPsC0A7rKIOHW5oXdNpiZcahehu2QfVoAQgQ1qjQ2cPj8K5KVaC6ykaJKqB11Y22pvaQ62D2cEMK+0lytMmANckru/fZg58hgcrKtazOp7MfbH6iC+LY8W5CK7wiw6FtBsyMMvIyNDYqZtUylP/dHEtJuGJTZ5Mya/SbRz/kOub/I3kA2thyIqIUrCPWyTPW6MISqF9KO0fvHCrwZmmmi9orVtklMZ3G7Do3X7VxUaSgAtHcSPMj6Qja/RboIGtfoyJnEc9SrqFuae9kc6kZERxhZqAVxWP0tUYTwoZA6Pl3vry/YhGbbE+ZhF/Oy54SF1+XObDxRi/lobLs4pV1nsnhBZ9Nz2zUjBHn/cwdoWbXOb6zGyXgvi5fMZhSGOPD/ZxrOO/HTMcp6y3CnEFWIVgGZRRFrGax/jngLaUVRdYfLlqWVd1I8s1hp6F+3PYc4D20h/wuyGGNPrlrWvsSfqng8LwneoJD2u53cSTmFg7ud330vHBR2Ua9PoBDkhXaX/jRyd7EH3prhPeaido+IZNG3iig5Bgps/vlkowrlD5hagXaZVvuFlQSCsushGziaAesDosln+w6WwXAs0bNOsW6TI7s/s1h2+Xo5Zh1cYuywe4z8jaI7iZBVpKWST/Q0M9xoQZ6SW94uF9R+gMPw8PVhA6HH+FRc6fDgeFBmdQhfR0+vwGe2j/iaKCSSbzlRelS2vJ2+yO+MbyO8NrhWaVTnEkj99eiDJ/iP/QDpHO8fbj92unb0/Pz9cdS++/x11H2r+svq/Tzfw==);lineShape=1;strokeColor=default;" parent="1" vertex="1">
                    <mxGeometry x="615.8587013717183" y="651.9400892430856" width="138.25944756369253" height="264.873711866593" as="geometry"/>
                </mxCell>
                <mxCell id="37" value="" style="shape=stencil(fZbdcgIhDIWfZm8zQAg/17Z9j85U606tdqz9e/tmZ0c0uJ47xP0I5JwEBl59bp8/1kNwn6fj4W39M76ctgM/DCGM++36OJ50NPDjwKvN4bh+PR6+9i/z74/n6ctp9H74nlb4nbmSKZeJCu5vngmZ6jzzNAO7cX8FVKEsBuBKrgKg9oAE8gkCbLeUhEoEQKSUDZDLeWYRKIl8MEDRmHwfyBrBG6Amyu4+kDxxMoB3jhwgYu7TVAsVkFcWCs4CTBEoF4RctKeOxHIf8IXYpikHikAIf+MNUW94AGSSaoAoFIE3AlOyeWU+p2E5S9yfQZcQILVuQOwZdJNoS9Ls3wA5u2XZTIHECqeJ9kDpSaauRiNVcAY1QhdBzeLBli5WazpkSsBLV25uRaqWRyFawTQzRRIQYirJzq5atkBqLfouwqUxLBepthWb10vrWZY6UOAeyKCCtDV625mm9gmUC4Wc3VLJMMIE1BsA2FW9JraVlQB7n3c9oMKhCLEvIM1zBPZ25/umNQ1tVEC2G+fFCC8g398O2hNQuQlVu752DBfA+q0ptnqO5JFmeuIuo9DY7KjY71UxdJV4EntifPWorW++R/dC4t7V3DlIB5cHx2bc7eb3yvX//QNFp+bHDT/+Aw==);lineShape=1;strokeColor=default;" parent="1" vertex="1">
                    <mxGeometry x="312.3490919625601" y="477.16925518937023" width="5.191710857905794" height="5.183595795952998" as="geometry"/>
                </mxCell>
                <mxCell id="38" value="" style="shape=stencil(rVbLbttADPwaXYld7ot7TtP/CBCnFurageO0zd+HqiAnpKxBC/QmyxwtHzPDHdLdy/7heTdweLmcT993v8bHy35IXwbm8bjfnceLPg3pfkh3T6fz7tv59Hp8nH8/P0yR09OP08/pC79nXG+U04Ti8Da/iZEk/HnzdQYcxuMngFQKwQA4UJdtQIsULSAx1bYNKJmkGEBuFNI2IEcK1QCqnsnbABbq2QCanhkBgIm7AUihlLcBsVJiA+iFOjghagK2Bp1MQycwNTu43pdG3wYEitUDBMxBmcE+vhcwBmri41GPmIorQGABSjPLo65NBvkHCs3GZ0pgBNqfaON56djthlKwJOr6BUBTXuZ55ZBQBv0p/vvSiEE+yhfbH5VqAypQQuTsAYgQSrkuPqOGKLcuocMWqWw853TqHQK6G3LCKqhUV8JklFLxBqnCjKhLiYrjqVBD0lciWb9T4VRQtFBylh3CYsobTKorq6iAGYmYfQUFWHyk5JylwqkF4uJnEEA+wa8cVaaAfALVlTLbf4wXYusUTZ0Os7RYlla1OmSN4r1Ol2IA2s/XlXpdsn1h1W1KiNfBNHW0DVakUP/oICXJ1C3rmAKQgZpPtTVj6at7luLiExBBX00Zi0Y51pqLR86i20V8/hXFV6/KSBn0s18p89HPCjikGmcbn5eFuBUvtl61DbT+wkqWbTGmrQMc5WQx762C3cKcNhZgxD/fZf8CoA8fV+en8XCYb96f//dXbX01X9PT/Ts=);lineShape=1;strokeColor=default;" parent="1" vertex="1">
                    <mxGeometry x="695.5876789533322" y="465.4625227885474" width="23.012689705507608" height="29.386690129401053" as="geometry"/>
                </mxCell>
                <mxCell id="39" value="" style="shape=stencil(7VjLbhsxDPwaXwlJlCjqnKb/ESBObdSNA8d9/X25XayzouwpciyQ23pXY4rSzJDShu9edw8v200Kr+fT8ev25/7xvNvwp01K++fd9rQ/29OG7zd893Q8bb+cjt+fH+ffLw/TyOnp2/HH9A+/ZlxkCnVCpfB7fpOo6t8Xn+fxh/3zenwmkW58jKQBABqx9gGEUr0NsM+hdIBsUwIAZpLQASSQ5tuAHKj0U6qVAkg6Z8o9QCvlCACVYg9omYIAQPPb0IQERWgUUw+oxAkAlDT2AKWAIijF4gFScNKtBzRKgBq5UFMPEJRDpjJE0AYATLGnRgyBAppT9GSyEA2TKVYPqGBdWalFD0A7x5W0+o1QFME2gj0ggmVioTqQqSBupGGV4sKWW9yofQ6aSfk2oMjiKheNCjQmqSR9BMGrVNVLThJloFG1/+sFUepCr6uAZj7Te6VlVcBOt0SlekBCAHNjHQBgWSdXGacEzNWYw2lIGuyDkTm7HGyhQQ4rRa4QDYfwG2EaRUmYu/aCmCoEEITRX3IPMF9A61q8uxqZIgIw1ewByAVMYFI8ALmrmg0VnwOqo8bvNCQdEKBSan5ZETdUvOEXXCEsAju6KhSE5cD9lIyuDIxJL+6+EoQg8lm7M0oOAXhIWqAbm0YdWw2QETWsQCQPaCBp00McnKyiCLZKg0RRL9AuglzttIAyOtVA58ZhqTG3jCn21DC2op7s3QAjX+uXVQRqeqoorq+Mi1Ndr1nG1p58tVFBgLCQedWIIj189JUffeV/1FfyUEatw0EbwdkftKYKAPaBg89hUi2IYOdh5/dmGwraRDshO+sztqATcvWdgL2J6IC8dHgX7qXliH11/NBeMWUwneCrT4LqDJT72UdqwCMjpeiGo+KZlq/L8EAV/Dsv3vY2HCmgeBUH2O+IP2FgyQ/tlFEP1adF3au5o4uYQK258QpyNZIEv/IMeG/jnXYTvMF490XSP8fbw9ut1dP+cJgvvdbf/S2XvZpvyPj+Dw==);lineShape=1;strokeColor=default;" parent="1" vertex="1">
                    <mxGeometry x="686.9724779102485" y="485.10921010636275" width="27.85364451882692" height="59.149859940601395" as="geometry"/>
                </mxCell>
                <mxCell id="40" value="" style="shape=stencil(7VzJkhy3FfyauSKwL2dZ/g9FiDIZpkkFRW9/73yeQE1Vvq7smJsOvM2CbABv39Av5ac/Pv7y+4eXHP/4/u3r3z/8+9Ov3z++lL+85Pzpy8cP3z59x08v5eeX8tNvX799+Nu3r//88uvr77//Yivtp398/Zd9wn9ecS20bqAc//v6hz7CXP//y19f13/+9OW0voaWLutHDDHdry+hj+v6FJZYn8Ms1/U1pKnWZ1rfwyj361MY7bp+hZHV+jYv62eR902h0/oeojx/vNJ/ztCrWk/0XDF0cf62/3v6/DHu18+Q6DwtRCEPKTJBJ/4iLpBwg3XlwAhVUbRshh6AJkmUWkjXO0OG5JFGSCSkPUxBJADGlcuQotQkYJJY5H3IO0AjvtWwhBylHtqVShN7PqFSZEkqmg/9KhoLytclp/NVNFbRupa2ah2AGrpS5hxWvQIgrerSldUZgKmO1PfnHYAeqpalSZceWjRWWJ0vXcSlzSTRkeLm/WMALNZVvKHTQxwpHyb3AKSQhBEAgC4NnZZWrLHZg07LO7R9gNMOWajogyOtTYa7Hcjz4NJL3WGEcj0SXIMSjbxCv4q36bQ4UsmOcRBHIa2lbkt64vRU3rlvZ3y+gzAzZTnrvUIRgOoddJHGuNYQr4xDRKLICkC97tBTqCqEKeyyGqgkDBnuQPrQ4nbDd1Qic1+7NPdlcBiGPZVdKm3T5ADgSFEACrusohkHwIruSIKsOFKmS0ND1JHw7+sdGoRF7eCEr40tLI8Zlzha6nEbzzvRiNcdepEOBcKXaYe6zcJjQGPrDYDy0yAimUoAurr0Yi+KOwzBh5a2UTkA4IOwGmBTnY6swnq3woA2peVrlS1fO4TlbgcWDeyg4uLirMYRrtwByNyDD8qxG4Co1KQCAUC5VUesLuwSqDTJi8JSKcY11mkYY2X5QHUKEs1PK7LObbbO+ZgwM7DVHHs36dghzJkunfQOzTFOe1H4Gxa+Fao60mSXZawU0goA6QOUtgk+ANCcbVXpAACU9wGgYj4TNQdQOg0ABVhm7tUOzi4BoMwMABTzAaC8KADFAVTyCoAn65MdxnjnHVZ5D5WsnNIdH4QsAZAcHxSnAciRAUtQ6QFghqyPRD4O4q2MMQAUL5mLERo3XFkGpk3xAYaRiggwbUuI96gcnMDHScZ1NmTmUNQdxg7NT35aGYG3BObsgQRgRqbSk+BkZs4fDCDIimyBkibcQRVzkI8UukPaCcJjwKEuJ8ZVwYe5WFohS4qsyJ6nNzNih5W2MJ8i4yYCrJVZNIoWPuwwrkdCNF7VDpHzOCSbypCBSlSnRP6rdNrKkley5iwjMjCOst0cd8j1GIBA4QpIT0qVjcOfNLQsNQ50U5Olllm5Gpp09Rf6QNJq9VHBuOnquVMT6QjwDv0JRZmAtCPIQ1Zl/DadYc1bFO/WE5eTVAVbTyzYunG7/qoJcYcdd+sp/oxS+UHPGGl9UfSBTefPT0oLDj/2tj5q/pKfivuAd+sX00dlxBDQXPn8iv5lG9sTffT6zvRR7Yl5FIPe1qtIwdZf75u02WohXempnTKMEJk5ne/ALJI/W7Jusw5xOVmUISyKdwWp7yTuMaDsGsoBWNIlr8p2FzRVMrQ6B/LmCpQ7Gxyi5iLjkLU4P7L6r/Lhi8UIgKr4sNiHA6By7RQjWwqYXhkmrJ2hnQAyEFmcUQGgKtAAdLr1kNoAALmnrIMpAGJhgMoK13TCNGRBGYCaGaCqhgBQMRYAlc4DwHfosoC2BttUAFRpyHZw0qe8FAAUo5q4KoWYXO7NOt8xPjiAVGqXXBhA7bC4vGU6qgHUPwRA+VrTB3ck1VV6qHFKNB4rtYq/bAsHkAZ/cV0lP8kuFnvct0bTHSA5K6B81nI1OgNoYWpOqVUU8H5A58jchElRqTr7XbStLC4dQWimrHHmVkDWvQPrwlIorGt0NolxNUypysrN7Mw4ZBdqTsH6i1TECFNHk5QKZ6lwP6L/H9H/nzr6d59fn6XvNIvRtoDf6RfRZ+j7urGHJVsXVuGgbCFrBneOCFPV+Y7rwdrEiwJMNos2DKVoNLm2m5aMCOdy7inJKSArfpEDrJJtNrdEgLkNzZ3zSK4el5WLdd6mTNlHBoDyyJplhxR3YICe91qRdeGtBXrHOKoptinjZgjfci1Vaa6b61S3LSx3+klDbl1HX1b+cgDpk48ZuBNAFSHHdF3eLntOo7ONwaXVhKv1Q6/60IucPhllpwanGntTrYvEd7A2rtohMuOeTND4Vl7LcjCpT47929GFugP86JD+6JDeAP5sHVK7NB1pyTp7XzwgBuutQiUTb7J8UTp2m3q43qF3Oalvc0tusk9NiXbXXRy6NtQjV27Gki4LZovuMHSs0TpTaWgfBztHEb3dQR3JTTINHVO+GcYTWdVkX/NPGpJsFtq8F2WFulnYXIDVdX3LAK5TrYTPjkTCl58BaDCp6REDAMjytbHl95YPV3MP3quXHOA0+YdWZWRs01jU2u7SxxmAhhimDB1sQIwigahFAwHWeicfyE93XYeBnSO3C1nqaoDYNQ8s5hOMq+2BIVNVj1p4RBlHUsa4JmacibcaIHYDMU8isuIGxJr2QMW9UwArVWmiFG6ew2XJh1x5l0YOQNkDv48BiYWv6CE37MBJ09ix8mNA5ap40ToNKmU/BK2oNDebjksn+bysOkMGcVQzCdXNocJ4KjNTDyt0skvKodTGRZOeZJUCAOoSdS0adgcayazSZUEf5pVKNqqk9GE4QJOVsXLMSB+AIRlXXClz6ow9Tx6on7oPld2AGO6gghMrVl01bhZZsvaPJ0FWpUA23EHx0pT9wFy4nT70/Ekubocqew3W13IzzSoiA1nJ7SJeUrKU+4P3hCp5tRGbxVR68pSINM7qEPqxEstSlylNduWilaQRyM5PrybjJRvWolKlrpEl1yo+ddceI5xnf4pouzV8HGrtOPAxoLAPeuukPgZk995Pv2RLkT3E0tHG4gcjS4fG9ijSsVo+Tj2GMQ5A1JwrnARZ6U8BXOY3daoIvvEOx0PMOwBlHFM/SUluFnAsTaXKZbih52pMlOjN75QzymDcclZAHWnt0PxEVdX47ewT7QGvikK56r2KfL+bnQXQBePEnQEIqprkiO6J85QVu+iepneZ/bjevrXLhAxFPv/QwaHr99oIuPxqADJ3QzcR3OvPoV/WF5f3TFkcrxxIdv3VCdWVlbucM6gPKuNaPtvg9Uo+ndO09SpMZX209epNGRdX7fzivn60vctwrbH8dz2X5L7KwfJalf3ziHcfO3q7W794vSwWcIiN9fr87/uqkefr8cPb95r89unz59evRTn/n78HBX96/Q6V8vP/AA==);lineShape=1;strokeColor=default;" parent="1" vertex="1">
                    <mxGeometry x="338.7022626710618" y="300.82225319529687" width="213.24941880579746" height="170.5846186918964" as="geometry"/>
                </mxCell>
                <mxCell id="41" value="" style="shape=stencil(lVfZctswDPwavWJIgOdzmv5HZuLUmrp2xnGvvy9UhbJBS9vmzZawBIFdHBrk4W3/9Lob2L1dzqevu5/j82U/yKeBeTzud+fxor8GeRzk4eV03n05n74fn+f/r0+T5fTr2+nHdMKvGVc9CU8odr/fn1Ry5e+TzzPgMB5vALlSEQMohWLaBqRKyXrIhRLwkBxJsABHPmwDoqNYDSB5cnkbEJiK9RADxbgNEN8HHQpV4IE9pWwBiSJvAzxTsjGIJhoAhLJ1wBXeSCPo7BNkQXPa2TMxON+Rc8beZ2Jwf9feLvZMDpDsib0VBXEFBFBJNp0UAMGRnD3dURVQBBS4M3+PftVcmYydeQaXuWbienkPjveqBRtsooLsQ69m7ykALfjY6m8BqHhAftRDsjdS/jICKD32ShoDI4Dva16znEAbqiTWgSwlut6FqBRrr6wA0rSBWP0LJpmbHpf7Z6oe1UvtEiStiW3Y+64etWNBe2cZm1QF7u+axJYxQBnWI9twVSFAoqE3V7JAclJ7ey0wD8RT+1h14oDTVWvScUUe1e9H7etdeS1TeT2Z2n86sgoJSKeEXs1TQoGHkCnZEFTOAlIaI4WuZy1HrFMW+4auEzIDFrJWmI1BfaKhXQKJHWFJ0wA0WlPbGpYZEyAPVXmwRZBjS/Q6QFelbooVuG3pMtZJqbg2+LcA3awp2ieQuN3d5C65TcMtF9kSUXWYo/FXe6qrDjRERLlbSiPsLkqEt1Hrk4LStJx3s/aiCqqhtYil5Nw/hj7fpUk3NKSmj67i/wHQH9fN/2U8HOYPh9v3/ZeCPpq/MuTxDw==);lineShape=1;strokeColor=default;" parent="1" vertex="1">
                    <mxGeometry x="517.3351852198512" y="331.1575274498332" width="36.737275090850844" height="17.346273498443576" as="geometry"/>
                </mxCell>
                <mxCell id="42" value="" style="shape=stencil(lVbLctswDPwaXXdA8H1O0//ITJxaU9fOOE7b/H2gqnQMSYatm0zvklhgAbLzD2/bp9dNx/R2Oh5+bv70z6dt5791zP1+uzn2J/nq/GPnH14Ox82P4+F9/zz+fn0akMPXr8PvYYe/I4/BaSAxfYwLJSHGfyvfR/yu31/ihcCKkHJbWST4Ci6KEAk1XCckQvCK4AmRrhNygdchOY9inFAdOGsCfDLwjKIjIngjRzUgpgmeDAE1wdOa/TNKWhN/BWm9jOpNfHEKH1CN+B2d9TVCBlkCKpKuWIWzBBRkHZBzIGdmyE8qzAgWISLrEouH2CJ41DIleCupPO0DCSlbSSIUnoqOhq1Lbft9ZbUYnSl4VydVy3kNPiIZtpjH483RsiC49d2dGaVmqztLJra1xsTME2S7dGY6GXSrXM232njSNcG06EJbpjYp7+z7gmAYYj5XnMxuK6PzwcW3+ngdoQQk7TkxnVUEub1ImzoQsqEhJDjtouTauF++MSuitpFcWP+Ne6VuzZbnPpYbzhKNrCOq1Txg5tOh8IaCiKJTdOGs5Rwh8PSAbOB9uy0uBFcrQygTAeITA0/tujvjE4IhmMBasNzoxSjArM9k1JDRaILXrh5eJEZ+pKt0gWW0Wn0mu2m9JZsFXv0IvImXj68X50u/240P1sv/py9UWRpft/7xEw==);lineShape=1;strokeColor=default;" parent="1" vertex="1">
                    <mxGeometry x="516.6506933570881" y="311.56091697969737" width="28.793440636220314" height="23.447727177929462" as="geometry"/>
                </mxCell>
                <mxCell id="43" value="" style="shape=stencil(lVfLctswDPwaXzEkwBfOafofmYnTeOraGSfp4+8L1aUjQtZ6crMprARiF+ByI3evzw8v2w2H17fT8fv21+7x7XkjXzbMu8Pz9rR7s18bud/I3dPxtP12Or4fHs//Xx6myOnXj+PP6Q2/z7icKdYJxeHPeUVI47+Fr+f4/e4wi0+FeIxvFGQ9XgrVPMRHoZDWAVwplhHQKNd1wPRYBgAniiClyFTHLbBSBCnZ0ziWSKiBjCpVHuOVBLw/BkrjDlIlRjtoJGONcqUMviCRwshCUQoKaU5hAFSl2tYBJfSaX3SBU6oGGFNSJskAUCg7QKIEAE2ojDxohjxbxv8fXwCRagEAJR5TasYMIE6D58G+mZD0IsmovWYNhQDc23cGkAAAiUr1gAg2rSaN5RcAD1pJiwc0BFDPw6QloFYDtOR5yGCKGUDbCNBbAC8+a1rQD9p6xjMtCcMqcfAARUxnyk7eTIxSEj+Kp45Dm2av1mkFAQKV6PeQQD9MVa++rAV8wQDBaUmp4BZ1w9ukcQNQF4OsIuJCF/NM3pC4y5ybARIqa6KwbFFwAJk0likx6unaxTwDFNSijVrwVYLy1sWYaRRBT8dgs9J9QvGudaHvgCfZpwGFwlgmo0ZRSmHR1K1PnuvqC90pXNzPRx2uH4tMaeyIad4CJkru5mV+LIJNmEV0XmAqEzIPkeI4mRpTBLvm7D1fjd0dXBdHpDZ2dcYWTrzZSNi2LrQnDQ4B9u5HuPfsdRK88mxFActmmp3t5giPRHus4/kTc2/ZNYvoDiyzpcioG8s8NkOCIyMvDF+AR67Fq49nQEGOfuhdzNb1eLsGqI8HBcriD4bQp8H1+OQPQ8sfMGZtJtXFF5RP7qPnQhgFVB9zaY5gyuj95rdHfvnW+51F4r6wFs9jPtLP9rX9NnbxGbTwZ2+2t+Ptx8c1+mm3359v4fPn/tptS+cru9z/BQ==);lineShape=1;strokeColor=default;" parent="1" vertex="1">
                    <mxGeometry x="381.6629792103545" y="463.00682623182" width="43.42898186812615" height="77.34371031115201" as="geometry"/>
                </mxCell>
                <mxCell id="44" value="" style="shape=stencil(fZbdcgIhDIWfZm8zQAg/17Z9j85U606tdqz9e/tmZ0c0uJ47xP0I5JwEBl59bp8/1kNwn6fj4W39M76ctgM/DCGM++36OJ50NPDjwKvN4bh+PR6+9i/z74/n6ctp9H74nlb4nbmSKZeJCu5vngmZ6jzzNAO7cX8FVKEsBuBKrgKg9oAE8gkCbLeUhEoEQKSUDZDLeWYRKIl8MEDRmHwfyBrBG6Amyu4+kDxxMoB3jhwgYu7TVAsVkFcWCs4CTBEoF4RctKeOxHIf8IXYpikHikAIf+MNUW94AGSSaoAoFIE3AlOyeWU+p2E5S9yfQZcQILVuQOwZdJNoS9Ls3wA5u2XZTIHECqeJ9kDpSaauRiNVcAY1QhdBzeLBli5WazpkSsBLV25uRaqWRyFawTQzRRIQYirJzq5atkBqLfouwqUxLBepthWb10vrWZY6UOAeyKCCtDV625mm9gmUC4Wc3VLJMMIE1BsA2FW9JraVlQB7n3c9oMKhCLEvIM1zBPZ25/umNQ1tVEC2G+fFCC8g398O2hNQuQlVu752DBfA+q0ptnqO5JFmeuIuo9DY7KjY71UxdJV4EntifPWorW++R/dC4t7V3DlIB5cHx2bc7eb3yvX//QNFp+bHDT/+Aw==);lineShape=1;strokeColor=default;" parent="1" vertex="1">
                    <mxGeometry x="420.6823913874732" y="528.0952602349432" width="5.191710857905794" height="5.183595795952998" as="geometry"/>
                </mxCell>
                <mxCell id="45" value="" style="shape=stencil(lVbRTiMxDPyafbUSx4mTZw7+A4lyXdFrUSnc8fd4tVpdnXan8JZuPbE9tice0t3b9vF1M3B4Ox0PL5u/49NpO6RfA/O4326O48lOQ7of0t3z4bj5fTy875/m36+Pk+V0+nP4mG74N+OENE8gDp/zB42U5y8Ps/1u3J/Zc6PIDpAjxbQOkEa1OEAS4rYOKEpZHSDaFbwOqIVa8wAqCuwbqU8hUAT2jamEn9hnSqmPByTclIqPR2AJWiP291eSsm4fQ6DgE4iJQoQeqniALpxdB1RSXzNmisiD1cyHxJk0AICQ+KQta9R3zUiPHtAgoNZ+FMxDwX0XPUtcqCAPQqHzkChVAOCFk7NRYMCSAbgrnPWSYA+eJSs96NUpBT/NGTbGxJG3ZxKUsRWhdrOWUVtYlaWzDzfayJcgUkCNbX3qZzPBWWsX8etC2OqkdfHEJcJvD3PBcmQt41MwjhTNpvZ6Z4KEBmESvA6gJDcUMv4EoELV64vIIrJXAVmJfR1ypQAaOxmgewgz9GASWnxIDQuSFbaj1Soj6F2g1D1rATe3Ln1w5gDpUaZwkYGA+xNxpxUFylfs1asl+BCG/h1sARJkbPjZnzYBMGwXk1PT0rgr9uILoLY5oApf2BcoFkzNx6/GD+Dz6q4GxP32bmeH/4vh87jbzXvl+f/9Immf5iU03X8B);lineShape=1;strokeColor=default;" parent="1" vertex="1">
                    <mxGeometry x="421.0061609585723" y="518.9578233500317" width="22.204306345561236" height="13.553527342372844" as="geometry"/>
                </mxCell>
                <mxCell id="46" value="" style="shape=stencil(lVbZbttADPwavRJccs/nNP2PAHFqo64dOE6Pvy9VQbGWkqfImyzPUDyGszvow9v+6XU3CL9dL+fvu1+H5+t+0C+DyOG0310OV3sa9HHQh5fzZfftcn4/PU+/X59G5Pj04/xzjPB74rVGOY4s4T/Tm0ix/XvxdcIfD6cFvhZKrcOHSCXeJxSl8b8FQRrFfJ+QmYLLqJCG+4TYSHtCziQKCEK1r6EyZQGEMGc8E1rGBKuh9oRCBaSkmWrpCZUKKFrDioDbKmmOtyA0vk8IjVhWBCCNIJRWXyigS1Zz9vgAahbK2fcIzZlJsx9CKAgfelnYlDmhfIKLH6mB+BateTyDkYVAqRd2U4poZIVa9gQGGdmy5+IJAXxBeeMLyC9M2L6pkQR9wTTjCIkCmMK4nOzHJsCRbDlr8rpQ0CWtq22ucA6qVFxKDaYkZZXSRxu2CYGkn0NgJkbasFGvtrOCvlbKqxoU1KAbDpZAfJ7dZzGFBOJ/lLcYcwTu8ll88rqrH35wbzulV0VOs0Ftz4yp9ISYKQGCmsG4o9N0h5QdKWivCp09cLvmRNKLwvyiAvzKsmUOsI1v/tCxZQWOndXfLhiuQbYDoDi8ghnbZSRWh0cOXyo18XiwZDV6TTA8cWqbD7AbHu2MmW1i188A6jXJ1+jwFQjIVpx7H7IzF+hhYTo3ASVA+Ox18/94e7jdbV8Ox+N0NV7+7+/C9mq6R+vjXw==);lineShape=1;strokeColor=default;" parent="1" vertex="1">
                    <mxGeometry x="255.92200245362937" y="700.86165892705" width="8.052428544460781" height="47.988049340341" as="geometry"/>
                </mxCell>
                <mxCell id="47" value="" style="shape=stencil(rVjZUhwxDPyafVXJh3w8E/IfVLGErRCWAnL9fTTZ8rDS4N5QlbdlUNvW0W3Ju3T1cn/ztN9Ffnl9Pn7d/zzcvt7v0qddjIfH+/3z4VV/7dL1Ll3dHZ/3X56P3x9vT38/3SyWy69vxx/LCr9OuEAsCyjy79MHptj/fvh8Mn84PJ6ZR2rRmGdKcW5eKBdjHjIVsHwIVKsBJKbAANAoWEAu1AtwoHiHS6Imc0BKJNkAqlABR8pMxTrdIqUAAJUkWIBQBT5IGuutgEoR+CCNUveADnzQmMTkAZwBoFJxgEy9zQE1kDQfpQyOpFFnm+naSUAt1UrV7rB8QTt0ajZxumcFPrRAjS1AiwXkoSUqzgeGR2prqa3VqoEGhFvyavNQMtU0B3Sm7PgQKIOwdpUAG9alukBpdC0E67TI4OD7gEJiRUYiBeRDo+5UqY8wvA/ogy7rDip7INMKEFsaEsYhZwBXGkpaASKggO6OpEoFRCAwE7NPRMNOdKtkmmqkxgpwDNJiChggrvoKzpwmwmZO6xvdP5rq1j0AUU4BLnN6JCR9CojOaRnqOQOw2yFRQHmomzwwro0NqaWOO2Z6JMegPCgydXpDOUE+tCESZwxqFxIXPIAxg0LeAJDT3TcbylHGlKvJO430fiGQ80EofJCj9ZIyObHU2rhwpuaKKVHGXhdHORkUmQGSI3UdXs0AvLm0pP5PQPF3UGlUUTHJUJV/vHh7Gok9v9pRlHQ9q99VDwky3ZRyroljfLWLrz5tJwQ1D8nrzLIEOlIYLdt5mwjEVTsmD+hQ77UDc/Ld1qZr1vVFWxodX7zaVxZ7JO0/EtihrE3hCiiwc116Y1saS/0C6Vv6I8vpM12YNfjbLRCpdYTIltTLFYCHFGEfpgJ20DEoWicaVrIoPhFKiAj6xFAHhVetVKdBInRYdFHKER5JfIsVdXoE5a1jm42RTpsFrM9DtFZ73POxn8pChJLBI36rfRiX6sQ+2IAGhoLBY8RbUwyJsLnbKpwDeFzGa3pHgczM3WAPScb+HSDCDon9BK1DD7hweBTi2ysJIsvmBUBPB82bN0fc/eCTzUVz/fH2OnR3eHg4PS6d/9+/Jumn00tUuv4D);lineShape=1;strokeColor=default;" parent="1" vertex="1">
                    <mxGeometry x="261.47684531426376" y="700.1457794012665" width="197.74195558597864" height="23.27891833040212" as="geometry"/>
                </mxCell>
                <mxCell id="48" value="" style="shape=stencil(lVnZchMxEPwav6okjc5njv+gikBchIQK4fp7Rri0rHq8bXhznGnv3NMze5JXX+/ffbk7Rf/15fnp092P8/uX+5O8PsV4fry/ez6/6KeTvDnJqw9Pz3cfn5++Pb6//P3l3ZAcnz4/fR+/8POC8672AYr+1+WLmp2UP9+8vcg/nB938uJSWeWrS/1YvrjQVvnuWj2W7y6kRb5FV9KxfAiurw9o2eVGAMlVWQHVdaJRqC7XFaAmEJXUpyEvgO5dFwKILq9B6MEVYkPMLgAgOvEEUF0xgJZJmL2Lq9FdnBAvSXQ9IiCTxJDsikdAIjZIc7EgwBO3Jj/DtDOaqZTUREFACASgqRYwcJW4NWkuJQQk4tbUXfUIYPWQtR482uCJW3NysRkvkQ6QyzRxF4fAVGqudQREAigaOKNSJzYU7RE2DsSGokZDpL3zTKWMNmjXYAVU6ozrri8VplLDbG3iajwGVNV4rThtlYHkUtVEAJW0yolbq7i+qqTNO5GK09lRDMCTRlYLdo0BIHGoDStOAYHEQU0UjwBhAO2kHQEsDi1hqxwjjkRaE8G6lQI0l4zRlbhVB5QYlRJxq2Z/NSqxmu5mZI3IkFzqaWq8Iw6ZEQFlDhEBgSRf1zEOKhWarQoAbqKNJxC3qkppfYIOgE4C1zP2JR2Tmbk1zVSbgMiHogLC+oTQpt+uA2TW1wbQqccAAePQZ/oepRL2sVnjR/LYM1zm8nkdP1trPpRfaUPiQfZIlThpGNwOIjAH6pE/49qQtENx+Swgz+a5ysPw9HQqDIrTQZ41I5VPCfzjWbzMbBYeX5Vfe1emQ8r+fuH5EHGDabzCoovALXg+GAIW/K0CgwRVAPWQZlBEAA2xN9zcCaG1Yxp4cBENsccNSRslGbFDfk2hRFnzKMm1BJRwspBpBoOD6DqlDvVYAoUNDuXsEeQ98/9GRnfyzN5o9WEr7X/LC3JTmRTmcCrB0s/juzHdzf+JD6WCPTEoI2IZWhEQt0XpOkCXRxjdwhlRnyvK1oY44VcAHCLqRqqu3xX81si3Mgs8rxtuLa3NJfrQr7C1KL1mzT1NPrMD0CdEpHVafOlGb0kIoHzccNnOq8eyZf2JSlSyfHwYTerfMv5bALNTDJVIxdmtRY1mfNzuRcOtDGA2rxE4kho1uWZWZmHLoFw5gzHmVQMGbjR+Aij9yumCGa1LOR5HhF4jiykg7W0scCXN0b0BKl3VSpy/twH6JGRHxxHgm50T8nF+WZ+w6zyHFx6PjyhEp2zPKZ1ynhxmL90AjW5SqSMrVEBmx7+Ka4ICmF/HLU8Q4G9cC5t5wo17pAEU0pjEDK3O2/e4qUYEsBVYoikI3snGXdg+gdgwLs8JjWb8fNy2TRzYgBj7GRREpXTyL/vaATyxIdS5Iey6ANtple6gSonOrBBw77/xBqBhE1AmwLa2bOZ6mWvN9TjjrV1nHmsZG+Hc3SJZ8Xhk0Ep9WCP22Okbv5vrpAH9t7Z5IH/lNEoi7GfC/OOBzVA9Hdiszsxtt1ZKiD1uACrPOoXHpV/5gNB4Cdibb8QLXxNur0oO5KFxjdeQ1J//99rytrx++PuO9MP54eHyinX/f3ynql9d3sfKm98=);lineShape=1;strokeColor=default;" parent="1" vertex="1">
                    <mxGeometry x="254.1036115631323" y="710.7653146497291" width="228.83356724535108" height="46.180590679175815" as="geometry"/>
                </mxCell>
                <mxCell id="49" value="" style="shape=stencil(rVrbbhs5DP0avxKURN2ee/mPAk03xmaTIk338vdLrcGxRc2ceIG+OQ7PSKLIQ/KMT+nDj8cv3x9OkX+8vb78/vDX+evb4yl9PMV4fn58eD2/6adT+nRKH769vD789vry8/nr5e/vX4bl+PTHy5/jCX9fcFWIeaAi/3P5JiQK5b9vPl8AT+fnG0BpVOMMiFQaAETi7gGRjwFZqMoMCFTTMUAqtewBqQOAHrEtALCl1KlVDxCwQiqLlwJ14NaUqIj3UkUAJnFnSNTBlmKh7lbI0K0xUXWHrnaqfQBTngH6DcsxQJ8nDhApgxWCRmuZAYUYnCEwlfkeUiAGK1QqcyilChfIFMJkr7GVwZHVp3MySKcA9pMozvvJGigoLOxpm32lBPcT56AoTD0j+z7fWNk8cOCfPF9YZbifaqtv9oVChRec5zRogQpIg5FW8401DSFwYo25OB+hNUuMfUCxGDZAD0ZQR3mT5jN0gYeOYjGwAdTPaAXlr+ABDRGebiB5AOSv7gOv68WBLYkYRd+uAOrISBT2gIBSU3PNARIl4NbcqM9naN04c7+0iVWNDZCNlfcB3dNRY3hxdfFSVdIGK9RG2QGCrbkLaHFhgApX0CPmOTTUDSiBNF08gGF4d/b1PBdIqj36SpWjXeU+QHN6oWFUqTTUxPG8wGqr0R/nnBYtRSBaFdBcpcr4DFqY5kNrS9DQlqq1XVvxzFZ/D1eYDx065FY9Q3GtnsYvqA7DS3PwacIhJ2XfYRTYJOk9y0yUYteybx88TwplsH/lB1/+YXXW3Gku7uzW9+03drjao+pcu6c8/HxlC9cTqsNQdW6UXHtEDZy3VkuSq31Az6/ePxF3C43YNcHWbxyy45xkbI39kT/doMDmgCN71x6xNaxH99uSt0fxFnzhZ4ogX5Tck98PmtXU3vlf5yIUn8mI/HpfDPy5Z4/8v+4nQRJdz6v5jp6/+FPghLPel0C+WuNBIEWv8SZWzu+MZ7GEuDNfEhyU9/KxgPhc830j1Dv5JJhYcCdfKUGCNnblQ4Yt48q3bPLIr7Ff+P+d/SxdNVvjclS/enD2sMJn69yu9h3Vax2PXQtBBT2/Wbpe6zXsB7rfT7dp7chenHolUL1SQJ0TfrQ04MYCsxfIxkyL9+RidEgOYImxJ9fIFaOBI4AbOyTAsqrX4NwkWPrRew7zGTJDGWTtj7NeBIrUVdiouN1lP7eXgGtBNaq6kSoKmlO2WrEBOuyGRva7WUvpFLUfhWROByVMNNhcZ7dtXowkwEtlaajVDYghdRQr86F1mEItRRav0GgTj2qOrNpDg/qvTlZOCtWAR6yXVmWgv6duuNFpJC3WT7w6y5jplSR6WvaENJ3gh61BnuCqQzOm2wAVyhsh74lAaIVFk9asRRLNEMUdgKHaGtg0optwRapRtfVv8gGJFZninD+acFBZ8/WqYmZli7NbjgFhsRSTIbeC/bMP1Iz3z8YON3IxYqTg9yMNDlDbOLbZR0jC4t+bpIwHrqXfxBQ8Im4OoKFQIzU3W0DeNACoJdc0c/JvqFBDUJ8WN5OKif5HVOF0mfFGDRw6LnyneYTKeVr0sW5u27cvi65JFdl3nwbNdJf9qEiLpA5f+8ia9nCMHTXKafywrS3Ry4Hdyui+ffNjXTeJ80jFjd4e+VPtvXJtc+e+fd4JCFSdFODSRgERdS55eZ+5vXg5AnglgeELBAU4n453sogq8vI+M2BpPPso1TxDZFoXtVEB8J6zb2oVAOffhR+15sLXk7Jc3DuK2v99v38HQD9cf07w7fz0dPk1wu3//c8P9KvLTxfSp38B);lineShape=1;strokeColor=default;" parent="1" vertex="1">
                    <mxGeometry x="-490.1627169229596" y="49.484842195046326" width="95.11668295870277" height="102.07770658071092" as="geometry"/>
                </mxCell>
                <mxCell id="50" value="" style="shape=stencil(rVnbbtswDP2avBKSSN2eu+0/CrRbg3Vt0XW3vx+1QE5I22cZsLfUPbR4PSTlA998fbh9uT+k8PXt9fnz/Y/j3dvDgd8dUjo+Pdy/Ht/014HfH/jm4/Pr/afX529Pd6e/X24Hcvz68vx9vOHnSU4ytTakUvh1elIoy58HH074x+PTJT6RVIOvVMs+njuFYvD6IAJ8JskGHwNJBwKRkjUgJmJwgioc3QmCBdibECsF4KPYqAQjkBavbQsIJXuCegkKBIpiBFitavsChTobvKjNYR+fKdkoS6OK0oLEvj9Hqozw0QYtF6pAH8V3i+/UoT5s/VOYCoixUE0W36aHd/zjqyBRB/oXKtY/tc6IbOIbZZujTd+PEkKrwB7QKjE4QFNOrEd7oJaBQKdkXdQZ5ujIISeQiROo5OSD3AsJEJAwc+BCAEVBuk8LFcjAhlxnVi4CWqrAS6V4t7aFADcFqlB2AgFWjiaCK80aKCOBRuJqQf0GaqEnytbozJRBHNQnxVazsgXKVk2EZlXSNiTAhhGmaAXiVHJXwHqJMcGoSt1mK2s9gMCp0Y6Czwm/LRC9DSlADl4HLhZKSCD7EyLDZjtIxbKGNpYC0ltzM1svaVsAzblqGPx0wagaeB6/pB7kGE39JB4P9ClCwaX2bNXbePazwjKebON19HB9igLI6xKpWX20cQF7Fe9Sgmej2MOz1T/B+Co+u4SA053iu42vUgvyf/J9UIc77H/x+ID8o+zcPR7UZMkUo8MnZK8SV3L4ivQpvuFEnJ86J9j3pxnAK/H8t/bk9JHpgCvtFWoon1f+zPPA3Xi5OXASxm4+JI9H+qzyLUMGHfns5l44Nq7rhbF/Nuqx43p09Z4oYLzjk2UuvJKvApyH1nwY5oMr+TbMB/8H36a7r+OHqnTm9Uf1Xld7QZgPtvFt0uU5Xhk34Ob7RQH8oB2e3R4B80eXAPf+0eDBAWMJcIQleKpRAnEdo0EXdd2drUqDg9Cg1Ve7rjYN4NQYgs+iMfzhI5or+zQHi22BNnelRaBgv9YV0eHOp37tjkkFtlaNnEs9Le4MjG6yscPC4axsLKVoRC6r7NMZGI0fufnLn14hv0j3Nmgo4Z4f5rx6LghMMRxnh784Avn1PMItAmoWEIh1Xq1c7r0g1DH5EtJVnEHbbPO/F0spasur25+RK8hkvztVvP9Fv2COuR+8P/jEU95HbSrMJnlx+4N26hVf5A7buDY9659cMCN5BtPiR20hraa0CteO1e2Y4LGiTm0XfsRjV4x+7dNXFEDyMfu9YPgMeFRdFFara0MuWu+6AVZ+6r71N3yvLPOO97qLca6TCy9WP5DTEifZnkfHjvDiRx0cY8mrO+XZ5Pbw7hIH32hqw3MkxHDVVbx4exPSp/h+xvOmbA/vUo7ng2189auKwBoeeHeFDpuf4oO/OkBfGVT/5lchNEeNgcPqrwFB9hZP6gWulv/8YeiveP1x/gr18fj4ePqIdfl//9VKH52+ePH73w==);lineShape=1;strokeColor=default;" parent="1" vertex="1">
                    <mxGeometry x="-643.9924606883069" y="211.27772272038226" width="90.41723377894982" height="85.7241222156872" as="geometry"/>
                </mxCell>
                <mxCell id="51" value="" style="shape=stencil(rVnZbtxGEPyafW3MfTw7zn8IsBwtIkuGrCT237voxXB3imQtDORtRfVw+qiuPniKH749PXx9PAX37f3t9e/H/86f3p9O8Y9TCOeXp8e38zt+neLHU/zw+fXt8a+3139ePl3+/vqwSC6/vrz+u7zh++Vcilbyciq4H5cn1bz79eDPi/zz+eVGPlbraZJvlpKQ99b9JO+dvCBky3U+ECx5ccCZmy3w2bxQCf/OpBKMauKA5wNhfbJ7oFmMs3yxWI/ls9XZ5BisqyBYnS1OzopykeUwy3ftIet9ks8aFJAvk3yJ1rrSx8/+Kd1qkfrP/qnJgpCPlmd9KgIcj+URnTZjGvFV9nqGXMsW1YFqwc0HuoUgLE4W5xt6sCZMQJ6F2eaeLSkfNbahQ8l8fCBlC3Pm92Ze3JCDxc2BIGCau7nKKlUVN5g4A7sXKyKTqxs4uPGSE0bXsvFSlKnQ3AjTesCNUO4fAFnNydaKZWH0gpzZS0BrF9m8IGeOA6yqIg7wCeePtyqMRpgo0qUOsOwfaBzpEqyqA5XLFCipC7cCCG7OOMAxCU5CXN1M8mmlhf04rGBeWbvJOLSV1NcDXpIAWKvObgWzKRKo0cKMJa9zGvmQqNjCDcJLpQ1ivCnnCq0AAlPlaAj25dOG62XYgJsyU0CxJkipoPtgeUliqHyzPmB6EbOcWD5J/2Q/KvcKCtmLoHJH6hVGcT9ibUe9iHXRiqTEvQLYQ70/DTq8yit70W82lvdanhIfDlP6x1EArvJe4GfRZ/ankyUH9lIlB70L/ECe9AcABf4RL8/6OEG9kK+sjypoIDXfSF5W/cK1APmu8FkGXK7+l/qXzXxg6c77I8l35f8y1L3iLSo8FI4vCpPOr7rJL4WfvH1/V/oAP53kVWu94JP1KaIoLfhn/wTl/538UiVpL39VOwT5OtvrhoJH9jrGc7rDb5wvXr+/sz5O44H4042+4n+Rz27U5xv/CH8uTfgmv0Q+on7RfB9GAdmXb9w2hUHw+/XXc18GgKj+IQ66v9bTpEeCTo2ixBsamjb7E52m4BN0TJS/XeKtbmZdjyeqJUtsgC8jhPsHOk+vSwiESg0pMN8Q3RgpjiYO8tEyPIog9MRJDJgX1a1XvgG4VWnWu+XNiqIJL3nnGHiAlqpMuIIqJXpZlWrLFDTfgOCrNULfcFHV4MMoSX5tcQxS+5FD9aNtXZXtHEbJRmsEL/tpjJLUzy3BFwUHoyQRHkY1tfxBRldSqUkKyOtqZT3Q5bpu4UjKUXen60qjib65QpX9WDdWN9m3ICVp5wh4qcYRPJo8B0IxPWiFKgngpZYnnbeOQJei7g0JYADOcutInU5t0gDHk1/VpcFxZ126pIw9wlCtCOTnXMtFtnaOJ93U5NbX8xon6dYFg+TsnxjGeuBgC1qoc8xytb8s8umAk/s9n3h2BQZV8fSdIer1tAvMtc3XBsWo0TNnN9n+Io8TgWIU06N2lizIsvpDPhaWV+1j5CTQ3z62426WK6ilvWb974y7gd+vcj4l9mceLHMoz++/Mz6RfBnz0aG8J/k74wRt3MpgscN1SSB51ashXrQzrHqc+M3Peffl8eP67fDz+fn58unx9v/8rRGPLt8p48ef);lineShape=1;strokeColor=default;" parent="1" vertex="1">
                    <mxGeometry x="-325.2406925258738" y="202.60404847938753" width="128.17560299601905" height="139.97033427985718" as="geometry"/>
                </mxCell>
                <mxCell id="52" value="" style="shape=stencil(lVnZbhw5DPyaeSUkkbqec/xHgDjrwTp24Dh7/P1SO1CPVT1dg7z5oLpFskgWq0/64efjlx8PpxR+vr2+/Pnw9/nr2+NJP55SOj8/Prye3/ynk3466YdvL68Pf7y+/Hr+evn9x5dhOX76/vLXeMI/l3MtSNBxKoV/L39JksL/f/h8sX86P7+zr0ViQ/tO7P3fFexzObYvWVpY7FU0HdvnKi0u9ibVju2tS7PFvkhh9kliX+y7xHhsr1nq6m+MUpUcCGJrQKOJkQz4hePqcawS2YGEKY4eBHKl2CQBJnjS/Ma1rAcyjZLHRNcspyaFXKmJrllTpT5nKWtQtc033s6C2OqAqXQCaw/p+nxr8423HZacFvucxDJ7fltR5DhXYu/+rigt7hGJZxdbMVSDKEuYzirZDlSe4YJ10KI0hqGOjaVlCSxEHsH1Sq1KrrRw2hqk5nVA3qAb6rfa925AmpH2XbMwUQIjM+l5PVAksAMdK61XSQR42STsDnSSBwcavqHNR9zu2I7tiG9gLdVbfCzodCdhLW1ieTvgXZYNnYjtovOeWk0S5IFn2tHf1gMOPiNOD/SvPvjkZU24ldngtorjk7mH+e+tByRR1gMUo5R1pvL2gYxNwLJ0Aj4HQlzbnm104+gATPMxT9mVGsJb7zjdJMJs65JI4saB9UqDMXAfOhwwKcyHOkfBu3HLKIOXC3T7FCQzHzxxKzR8xLPx6eWS1sTFrWhvH0gIjehoZQcikpIundzIW3WGcpBKoNcatuIyXToqNwOozpF9297jkcGeTavmFGm1V+6v4X28NknLc3sYn06QyDBs23WvvJwRmLabI4kCwu0TsNR7zwcGFuficGQPnSJQwub5Smjf2PO9ZBI+nxSx4ydAiVF+5PaK8TEWz4IMMt67T4YeMQF1aG9g3/l4Umi8lOmM+KB9Zf7uGC0n5CO/q71R1jLwg/XCaFEzjL/SwTTwbxgfFn/DjSJRbnqrftncG/1htY+cfjhxhT2W59cwX97geX2Bv2Gy8yN762jP+snv2tcJ92s8KX467jcbhTycdziPAsHDGKhrP2l0fo1FA5b8MG94RCKgIH3HY8qJ05QMQkXhNKXNCf1OdzBGFzvuW3eS4AdgfUpGu1wMAdt02sjU0StgE3eiovxOKD34GsmQ0TFzyndAjytAw1l1YWyu7tQKd5phY6fn+BrJ5AFHd16jVHRqSEflhgKEcn6mCNeWZipvb2ht9vPtQONL464jdT6ifMsEPcFrKpEo+R4L2uPYlLkYamumPfesa/suDjR81BSTB+os4WvbCDSuviNCQYwSIa+wjsyub1LPkSgC+B4rFTmgu0YzEkHi6hUJzdhT3bl0BGytR6pxDLYL636n+PaFLIBeVujA9YUM2nHjkmhMuFFUrok2XN4d8ExEsalQbj2Aiy4RwZ25MrVr3TnRcguYAvMYE/uEGTCdWsGRv9DoK6UAFRmYRkrxfIDrmoBUqSgVNxBvB5SKUnGvPPCtaCxlwPK4kJAygs5xy4Rsn67QVB23bPHVPPXPq5DAdGaLcwpchQQmq3n7gsXIKGFwEO8Wr0oc9h5fkJgn/kEtrkkOk+neti8oeAW6uNc+96yrPZsHbSc7conP7Q3t6aIckFoE2tvdviaMD1ukHPFoT4WKgItjkM6E3519pHgb9qCkcWEgTNZ+ta/8+QWFBypEBfzMcmcxCrj43hGKfvMD9H17/+H6tfvb+enp8rH8/f/x67j/6fJlXT/9Bw==);lineShape=1;strokeColor=default;" parent="1" vertex="1">
                    <mxGeometry x="-794.7415880705298" y="393.9291130236601" width="161.5531295247422" height="128.810926129859" as="geometry"/>
                </mxCell>
                <mxCell id="53" value="" style="shape=stencil(lVnJctswDP0aXzEEQXA5d/mPzDRtPE2TTppuf1+oLmUBsl/Sm6M8UMT2sOggb77d3Xy9PeT07fnp8fPtz+OH57uDvD3kfHy4u306Ptuvg7w7yJuPj0+3n54evz98OP399WZBLr++PP5YTvh1ksuDSlmkcvp9esLU+98H70/4++PDFq+k2eGVMsIzJX/+gHiuxOzvUygrEGBq4gRyogTe0KZ+K75SS9fxhYbHi1DL1/FCSR2+mAkYWIhK8/hOGdxHokFVaQADFSr+PrUQt+v4SuLt2TK8fyceHt9JwfmcSPyFupAiD2eq/ka9UQY3YqXqY3QkyhW4wCKmegEhAT6woP8XMquAPQFKW8xwuFKDSpdM6sNudEog7NSsxPENDHSo+zfozL3LicNUvB9GhlayQOg+VHunClKzG5d4K/VCKtcFzK8heXoiBmYdhZq3UivUBxBolLzS1XQAsXT26yqQqAMrjUrqY0mZGCltNvFmNYZBjGRuCilq4diBlfqg4a20sCYIb0vI4XUwmoICOjliw9oNmLXnaFZu1BDND0peaaMFBlayQBhBIM9guSywIzKjtgJ0qEbUIVqhzpWpekcb74FY1RZ5r0LaUysN3s0K48jiMjCGwtJcLGh87hTYWxSdhe+ML0Bf48hAqrhVECttNeClALxGSrXzEd4iyPtLYGU2fMkBryDgDM8hy146P+WAh/ra+d6/xisYH5KYYV02e7JPGGNGjO814BXEg/k3xL/hQfxLiwmccGfXYv5aZ4eKfo8Fk2HNl7U6nv3FyP6GDyRKDZ8f7iOz13ulvkbq2D4SChMxsn/d5xe8j86qtclHFA+7eCvYX7t4lmngV+aLYH9dyEd9IR99vjMNZJ8dnzAJ4Ns9XyV8/o4P0yxQr+TbhPX9T7zxfxkBj/iq1F1LAO1jg5iGNghOQtaCBz7JsEVRjfVL5qx2Gd9ne/G6emQdfuBDnQRwGd/iaFlpgPy1gSCc36H9W42jqA3vCSRwXzvnVQBnpI0LJVSwtbu+1riG7QEP2PTZxBFyPgtsK635ziEocBc39iwkMEzH6qXNPCDoDX22DWtcJOhoTjYge0fYUDOQmca88iow5mx3TYnmBZrCOy12DVsBhrNir7PZXgUqXBQto2QY8hN0RMtxdWK+RAWhytzEbGb2BASMYbpnMDM0KmkLRYb4PvvyMgnvJOwVaKrJ64i+XW0AV3OPSWpmQn3FkvRBa4aDwTKH7RYPaLXR45BvRII6WZuTws5rwOWMxHl6CRWgQN6lW5kaXcSnSBlaYVjs0tlKHcYHoi/2BO3HYqNgFIZSTedpK0fqHB0vJ/9uGYDtz2VX+TNmvDHvex69O0oCiTsZgaONHSexdRF0fourgLUOXcPvWruEzu+UW8QjB/fosRfxQyIeBFwecROY4FJ8+YwR7w8TbMwl3qaVRf4ac727GV3x/WPnAivBcn4N+ILvU+NoibaS//2Z50W8/Th/U/p4vL8/fZLa/j9+g7JHp+9X8u4P);lineShape=1;strokeColor=default;" parent="1" vertex="1">
                    <mxGeometry x="-541.0836583443349" y="388.93627087416803" width="101.83492688527008" height="125.93481615674136" as="geometry"/>
                </mxCell>
                <mxCell id="54" value="" style="shape=stencil(lVnZctswDPwav2JIguDx3OM/OtO08TRNOml6/X2hulTElbWZvDnOUsK5WNAnffP99sO3m1MK358eH77c/Dp/fLo96dtTSuf725vH85N/Oum7k7759PB48/nx4cf9x8vf3z4syOXT14efyxN+X85pktaWUyn8uXyTpKR/X7y/4O/O9xt8KhLzhM+S+jE+dmlpwhfRSPBZSp/wTTp7fpBsEz4m6cSBIq3M+CYpHOOz6Gx/MlFikL+9TnjNYhRf5/hnk5CP8So6+2se0MbsL3O+ikdAWXx0tr+alHKMb5LDnC/3iOA9Yf/zvx6o0liGo7TZoh6lGDmgkmaXu46kXD9QxeYcdxMjRepJy/AGDxsJauqSKh5gJulalOuBOh5xPc1VSnjNG6xgofqBSAqp2C4PWSpxunoh7PIQSGvWNip5PRDESKabSoFaKpKJD62NNK3V3SWSKPWEbyhdMvGh76JkbVTX9QOe17mhPZVGCMAPxDlK6j6QBvK82lwaC+mTsLoPUN7e5fQNWcJM2k6SgR1IYjB13CTCwl4IcU5ccuInifNCgH7wLq+sNNKYY+sB94GYVMsYTJvJk0hYa8TR06UzJq4j6M+jMBBmLT565qAWytzWcdSaVOKwOYtCpY4GP8IrSgUjGbCEUsGlBbN/x8IqjbC2Jew0HxTcnjTnK1G+W+xBKZW4PSC9Iq1Qj2dOgGdkZ3kIiWe8sny5VEB7mNIxw6EWR88d4StItZcmVKgQz0z6y/EwMxOVjo6PM7crJV63v80clKlSczyMsyyZ1U8eFPiMLyw+eYyuTT+y+KzubZ7P8Ds+yVRpOt6wH2l+d4zrBc77PcEMkM77S2EqvWR/nZ8f+fMV7YlizH7F+olDax/lN2N/KcvXa/EuhrBf2NAuQXrG+LP5daU+I8M3tJ/Po6rI53WItSN5CaKj002x5UHfmwFf2YE2FpmNhDDiscugBgzd6OKx7CVQ0nGIuyPtByJlGapM8LrSm4PqUWVTr/fdVHXNzA9AGSnX4DGEIcQ2ErkyedlGI66V1AfXH8U1zaO1Bqo9XI/WuVZboM3WDHdMrxaqFjtOY6+Wyspb0elulO9KQT2x7CJsgNfdFttoQ+SKjOrJZxLB114YyZvkX9+sm/SCr2jEJm+YtrOJyaJYkOZ7ozrWWQJuOJaVjb0h4CD0zLFVvKMw8tJgk7NiKXntMaa0kdUVr/R6Q/GOyXcjtqlE5ElfddjkCUjcLt0yxSNf8FUuoHDUFy410d+03loe3MGhcC9DWh3cqSncUUbKFVFx0hZ+pdaQvXRw8vWesd1uTLd1nwCQAM8IsV8TKmXe9I6HTSLQiyVVpJVAlYjjswJemT2Km3Sgc9/xDf1lm6vjO25mkfmbMf5xrMqHz4cCpXe4jq+4GdP86gjHRonzeO6UPlM5r/0R42W8f3j+xeTT+e7u8oPL9v/4C4t/dfl1Rt/9BQ==);lineShape=1;strokeColor=default;" parent="1" vertex="1">
                    <mxGeometry x="-327.4458125097085" y="415.5966980986277" width="90.81316547013034" height="105.5853226466345" as="geometry"/>
                </mxCell>
                <mxCell id="55" value="" style="shape=stencil(lVnLchw3DPyavaL4Bnl2nP9wleVoK4rkkuUk/nuD2XC16JnpLd/kcWOWBBqNx5zyh2+Pn74+nFL49vb68ufDP+fPb4+n/NsppfPz48Pr+c3+OuWPp/zhy8vrwx+vL9+fP1/+/fXTRM6//nr5e77h34tda5J1WqXw4/8nouG/B79f8E/n51t8kDocXiW1Y3zNUrPDd4kEX6qM6PBDcj3G5y6jO3wM0sgP5CQteYMkuR8b2AWrP1EskpQYZInBG5iT07FBtCvCL3QpzMCcVJxBihIyMUh4h1SpwZDko5aDKAlDk+SjkM1rBF+WQxa+FCnEpxnfX42HLGii3kHVXDYYvviQtSgxMnysHl9FiT+3+CGd4mvzWZbXGw7803y8tEkg923L21f8oP6Mxi/v0J6lEwcZ5auPWO8rhvs3TigUw54UmpfZx2xUaYxDEfNy6NKCfYMiA47U1yH3DYZoQgOW+VPtfJxHk07k1+Q0ereOTIlket0gcGNxa9/AEtdTo1uyEgMtqF5qkSZc7QFLjiZaE3pdanjNniaNsNuuWPyRWpJAqGFUA72rfWXUvoHJ1UZgmFstrtFHuqYVyn0Di4Nna9FV6o4MuteYkmlhsyMNX8qtmDLRtktnMEi0WRgm0j5wU3gYNayO+EunQAPXLa5Q/vNK2n22Don+DsYVxm5TGR/otkrpPr5K93EuouQClj3B3zhTmdQoCpV8hX0/ne2+EAIqYa2jbqcV9CN8zICP7P3GUmi/RNn7dWn6O56eR1GCA80aw0MrZYLJ+t+Oahckcf90xAd2noHiGBZBjvCb8wfCBw0rAW/Oz/IlIJ+vOX3Ez4j+78Q/hoeMj9SfuinikUrQPD/yM7B8D9gJpiUAR/7vmC9MH9qm1+ddjvFHK+CZgho+KeBZfCf/YfZYDw7zC/1P9cTyFwSaNtZTH5DPSvg29QfzhRW91rFTDhJ5fKHhsvzi8VXMr8DO/4t4qxcJ8Z3Vl7au9+5/mo+K8/TdegpdeKXn6RHP02nDa81ngHqR6cKhbwrSHK/Jja33K74jmFcgIbC+CXq/zHNsbGqwNVpsqRFDwK7Aejk2H9tPNDDgk4cNJsBr60eVENtunT3xaqOdinWLwfu1DrrVGKb80GolytWukqDN51sH6xYhEDZWs/ZyTtHercb3xNMffmEOL0xfIuabNc2sYawbAbCxNxKDYrMSGHS6v7IpFiTY2MVy2uZk0IAbAu/P7tcX3pyJhTpt2uo5KBMyzYUY7BEznehiwUD0a6k+WJHBYGBSpWyziRk652CCj4vKNyudQlwUcEhWPklsJObOSmqL5+uWgDxtfEe5WSzbRN3ZSgoLSQ1U5xOKRSl8Ey0JRFtp5647K1O2spt7aujUCtUWYygosFW2QSIQN7XcnkTmIhMjKLaV53HDJUVMXCoiakvk84FVyoLfA1j/WDa7IqVZORdqHt94P7uhdaWL09awfylr5XeEx834PXzD/ovOiw2Vt66B6qgfxyp+b55IsOdaA9URPuN56PytyIdK99Dz/T4HGu/HdY2f7/jE8Rv+0Ps2nLcan/821buthe4hf37pe95dvP3x/vHwy/np6fLt8fb/8WOjPbp8qMwffwI=);lineShape=1;strokeColor=default;" parent="1" vertex="1">
                    <mxGeometry x="-104.85601858390328" y="401.7775288839655" width="116.1312017455291" height="161.26697373357842" as="geometry"/>
                </mxCell>
                <mxCell id="56" value="" style="shape=stencil(lVjbUhsxDP2avGpsyxf5mdL/YIZQMqWECaGXv6+2wZtImz2Ut2Rz5Oh2juTd8M3r493LdpPC6/Gw/779tbs/Pm74yyal3fPj9rA76qcN32745mF/2H477N+e70/fX+4m5PTpx/7ndMLvk10Xqm2ySuHP6Umilv49+HrCP+2eL/GBJBl8pp7X8ZIpWHyjCvAtkxSDj5FaXzeolWK2BpVyXDcoQoVtxIGaAINEKViDDF3KlYKNIXVKvG7AfZw3DDhTBS4x+6rlSAm4lDRom6XcSECWNMT3n4dBYUqgMbRvxGapNGLkUqRejUENxKA11KDZoGuGlZ4MbB1qoxyAQaBq69ACdRB01LqKNWDYS9qb1aa1Cax0LKNzhoFEKg0YMLFNq1QqoA7Kr2oZqhxHFI2Bku2lrkGDtDbfSio674W5TumR8xnfYScVX2bFC6ja3DWzYoRAAQTAFKr/gw7wkYQ9voCMqqZmn6B3bqzg0yKhCRBhjm7GKzVB0wXfc11bCBRM/bcs6AWKi+aneTzUR4ou3jz+ca3AzeORYBcvXYrv4PzqlUv9z6Dh2qK+OiEAh4V4kX8B+Zehahf1RYQUCu58HQ+gXo3SgmAJnK8jecGXBs7Pi35QfoH8MJXwGXwak+sCX5Ek+pVC8RHyhcXnM0O824m0XhXyPbp4KxS4sFB07TeoP5/DJ2LXD/OTlfq6fhMVdNA/hbo9X8pg9Bofbf4ljRP+r/9FFQ+c3z2/WoObik5IcXtEHovC2tDO1iNdPOCUL17iaoUjQxePYF3S5QlxOLaRknmf62PpvG4wLzKzgU4NELTSLFiaTZs2GANpcTfQTRvpHC+Ik2fqXTeovg66aaMsZW00O5pULFHhcvdapGzqaDYVv+progVdiNirUcwjquvqruR14xWqkS6g1ZahEKNpJn6fS9AfFZ9m8VpGhF+MpzD4vYZ34x5vfyrmvDgf5EfxUr3/oGDTdhsdHt1S+lyeMx4Rc9qGu8Oj7eZiG547iBiw5jx9z/iPHPINAQvQFzd2eNmdprW7f8P1+9PvQD7E64fzC5eH3dPT6X3N5e/+BY0+Or3c4du/);lineShape=1;strokeColor=default;" parent="1" vertex="1">
                    <mxGeometry x="-552.8182780819864" y="106.43019164226484" width="61.247672837908794" height="99.00795113794277" as="geometry"/>
                </mxCell>
                <mxCell id="57" value="" style="shape=stencil(lVfLbhsxDPyavRISRb3OafofAeLURl07cNzX35fuQvaK8o6Rm7PhSOKQHJJTePrYvrxvJnYf59Px++b37vW8ncKXiXl32G5Ou7P+msLzFJ7ejqfNt9Px5+F1/vv95WJ5+fXj+Otywp8ZFynXC4jd3/kDU4z/P3ydzfe7w8K8kLjO3AulsG7vPUnszy/kCwAI5dABhKlkAMiUeg9ipMIAUKlKB0iREriBPWXuAJmpJgAI5HofsvKGbhAqPa0ltDvvAwqV3umiXwCtQc8rHaA6qnUdII5Kz1L1zau7gHg9b3FDknVACsQ9S6VCH7JQTBYggCUl0SSfAhg4rS92AwA5XTP5bOOQHQAUcgMApXe9xnXxpIAAlaK3cfCgpBVQ++TTSHtU005pMggm9vCKYt6kwcdOhD4QVYgxrylZQEVPysOTIgWQTDUNNCkApKsCHFuARz7ExsnCh4gAqpUDrajkFCAGwJSQ0yPAU0QFIVaNNfugD+p0rzOa39CHaHXmUqM4cMXIRmk9Zi018ljUKNKlkbh4kn+Q3gMAqkC1DUJpzUDJ7tWop/JABobcqIim2jJhkX2w5MpwgzwSSz+UHKNQ5yZDC4CgGz4NUC2V4UmAJe1BsX7GB+1yJVhAAqHWPpqMViZY1FFnMnNDgV1OtPMbH676vDZt+B6wyMfVCUisEwHNWEzOCD630KyNfd7UXCJBk2i2NZe1RNBgmdpUeAVIY/o+INqBJmXceQdeY6YAWzW5nlYRmN+JYm/PtQXmfqTJ9x4oCagpavn09abPAccPIqa5DhTG2ZxgyiCHXBsGr4+HY72Os8WYMygC3waWZu7gluHb0nIzR6dz66o3c1TCweocLsdgldrBpU3azngzR0tktLJ+1ZcV88jGPAMiP7nRPjTXH7fl+W2338+79/L/dtnWT/OiHp7/AQ==);lineShape=1;strokeColor=default;" parent="1" vertex="1">
                    <mxGeometry x="-576.3988941759039" y="161.9328233976995" width="59.32624268682025" height="49.88439347225665" as="geometry"/>
                </mxCell>
                <mxCell id="58" value="" style="shape=stencil(7VrLchw3DPyavaL4JnB2nP9wleVoK4rkkpXE/vuA2eLsENjpjW45+CbNsofEuwHOKX/49vjp68MphW9vry+/P/x9/vz2eMq/nFI6Pz8+vJ7f9K9T/njKH768vD789vry5/Pny/9fP42V468/Xv4ab/h+wSUKfYBS+HF5ECjKvw9+vSx/Oj/vljfKYVmeqILlMVJry/pGJYL1QiUv62Oi3I4BiSkZgMwj3gTkSjmtElSq6RhQAgVeAUJcASDPnycgZ4poB6a8ypD7tMpNQM3UZAGURKUAgFBarTz2BDu0TLIKrXsy8otGfT1S7STA0o2tpVugBNTahNpquBapAxl6pGAAmQoCJLdDhUfqhWJZAWo4BKhUzA5MDLy1N+LVDlepbgOYwqpWlQruoK6xGk4PibyVoxVa90xArawRHBcAh/nkNiBTXQNIX1FBEuBCZZVBn1RgB25WaO7UEKBbb2WcZpipr4lSNr3dBogDaNZAWmKrVqnU0JHKDMgNsKnhyDVisjsUhhFnZSjTHW/HdLHVR9JU9O1EpmYqVq0BZb4889wG0AIHtFQDyVqx1DIMjlRkZqEdoIMjKaBEC0DOpwBTgRRQgOE0ubPbIQHDKaA5AEozCqirpYfDI6HZhSjDkjV2aBYQkZb0ACZE+0yeRwDpFtCw4RJbQAF5SQHNHSkDGdT5QnQA7K0lOAAwXE02RIfQKOKaUytDQFNGuVpaIy4BtWoJzCamE6wPWnZNPGiagQB1DZcqBSXj5DJfm4ToKLcaCiedKsrerqAoADFjzXOGCeiRUJ3W8iHFCh2Bt45qsEacviIDLSmgOEvDHarLS8rIQDyoXePKBJScBLRDnLl6I1htZqrDsruqVWloBu49yq4hug2mmRGQ65FqIUZ8qU/SuQOgDuUa8jtAxEeqBpDvHcm0NKMFQUdi60sVc292IToAyA5iXUMBdyxdi5MBaUnrvgOgrCEue6sdEvLWMLnLDtBQ1hAS50uCeKtMETdAhcl40NpkAShE1XAsFlCxpUt5J8CqtWJf2rj8XmjUP3QX02Vyg8MQbRaAqMMAsAUg7j3qg3c+LIOp0wrouEOJLuJgyWLblt0PUWu4O0lAbHs8QhTHQ3dHYuzehvPVAlnluwEa06bGaX1A3HuQHWM4ma84KorV1Tg0dZBtKLFV0TIHSLcBbKc/WqcTSPcxaCYznR8uoyIz5nccDs2LVAhjaqUf7Q7ZMEfCPb6yHVN3VQ8dMaxgY1S2GvMfY3SnuKNRiJm3ikD2zdFxY4aDu65K6VZNSOqe7VhtEFFgiNbtsEVwWWzRdRAJEtHqeKWaBpXFnz37Rrp+9uz//549WuY6CDw6UrEBNDgUCiBtatgC4Li/2D5rtH6oBU+TRe4Gd8gOXVxeSnim68ebafYUR7nVjPtH7b4zyHZZA6mVg+2zuMKsoUJ31yCjeOjecBE2NZruo7kfENjJ9WZpor4CzUO1Q0+re+srErqBKHaQfb1XOapApkdR74KAZKtoD/CCrUfL78d1FbrNEut8Y+6AAsgZTkMKuYZWUWOHlubo4jagucupCAdGeoBumhqenOtw0ucGFSiAareZr2yM/yjzmblDyZP83s7eqvVVrZnhFV5J8zZgA+BZor7P+FLGN3I52+ydGiRY+rPh9yngS3ZPK/FkIzq23uEdoVp1jbcCCV+wAkfYzwQb/hEGQrBuHSEnCfY+NMJOxmkmwLmvG+AEyKi28eh1Oeq4wyQe1+WIJ2xecl2OzcT2yw/URWrycMuBz0TLHTeadLC8u+Ugk7zzq5W7y/WP6wcyX85PT5fva/a/2w9q9NHlY5z88R8=);lineShape=1;strokeColor=default;" parent="1" vertex="1">
                    <mxGeometry x="-408.5632231092575" y="111.43546039147714" width="108.68022008876346" height="141.09137910309676" as="geometry"/>
                </mxCell>
                <mxCell id="59" value="" style="shape=stencil(rVjLbhsxDPwaXwlK1IvnNP2PAHFqo24cOO7r78utIcfi7o5RoLf17lCiyOGQ8kYe3ndPb9tN5Pfz6fh1+3P/fN5t5NMmxv3rbnvan+1pI48beXg5nrZfTsfvr8+X329PE3J6+nb8Ma3w62KnSiFNVpF/X95EKvz3xecL/rB/vcULBR3wmVJZx7dKuQ34RpLW8bVRKQM+CElbNyiNsowGSprXDbI5UMcTV6rAICkxDwaSSRUYhB7CbpCEkqwbfKx3NVBK4NBiO4yHzoki2MGi7tPWiMEZYqI6GpRAGoABUxsTXQpVYBDs85jpGiE1QqQ6htXIMv1c5apPdBNqwKNC6qjaKAGHsqeqBmoV4cPovybKiHiUxxRog7WWKLHHQ556XpsYJOCPkTh4fEUc6vm/wSuIT+hfb/GgCgLF4vEN8IFn+VLKQOu4s+sGzyA+TBx8/DMoSsOP0qsVnpdJ2OMTiCdTrR7PqMBm/ClQGCOF6PEFxD9SKzM88F96ddzgG+Szr6/aGbJWL8XjK8hX8rJu+Y3Af1t/Vr+In+b/jJ8C+Cm+CRi+wHrU2fqKmobnf2DukrFGIPUboIRZy0izA8ACluzxEQi6eVt8AlBL4pkgtp6S/4RXd14hhfF0Y4E1GBR/oTombJq+QMEXT7hmkg0ESH1B1tojvOy/MXRUxBp6jS4bXCex6xCRe86XKRr8TFC4q9iyQe6MuQ5Cd0SreRXNEU4RYhPyWJapwbYhzY9aNkAq0olCMuZZEpyccqY2umRhQJ3YRrcwHtoyg0aJWryWBuvOwKBlb1B62JapZ8QZ8ybdxWV88bXDcECeWik7PKNSqL6ZYWk0ZRDxeMCiSamax4N4Tve42XlBaU6jj/cn4fWrXx9KxfUSdiUErnyeiWmAw/e0QXL4Ow6560aEDk2zsDo8uof+80X6Lt4ePm7tL/vD4XLpv/3ub/n26vIPgTz+AQ==);lineShape=1;strokeColor=default;" parent="1" vertex="1">
                    <mxGeometry x="-702.039143271189" y="293.1030485226346" width="72.97223227554423" height="99.25831889005644" as="geometry"/>
                </mxCell>
                <mxCell id="60" value="" style="shape=stencil(lVfLbhsxDPwaXwlK1POcpv8RIE5t1LUDx339fbldyLa42jFyW685WokzQ1IbefrYvbxvN54/LufT9+3v/etlt5EvG+/3x932vL/o00aeN/L0djpvv51PP4+v8+/3lylyevpx+jWt8GfGZfJuAnn+O7+I5PL/F1/n8MP+eBdeqJQu3GWKcT3eMeXYAcRRSADgKecOECIlBwCBYupPUEgEACLF0AFSbm/GAM2RdICcSfw6wDNx7QAlkUeASs58oVKo64DAVA1A08rrgBiJ+ywlZQbwkApF3/NQKJV1QL7+fWU6Q+KmnHAHUHU5kKXqiHstudrkOAYESj3TzpEDWaqRfE9cpYw+kCxvpfEyjs/E2cQnFF+I+TPrqz2D3T9wc60U2SaIge4UUA1A/Yq8w2yPMBkWIPQTxQASdJsCpC9hatiCTq3SNkWsNmWt0ZbZAjLaUrJVb1IqAkRLnAIEZSkuvFBwlgKFYtP6wDyu16oWTgcqxgAg+Ay6JQNwlHCW7KEZdqsprb0/tdAiohe8qT/R+gthFFhUl8rTMo/8rCJge2BUUxWQ+wKm/kSkjfwpVLE/bQmIsAQMioy2T1xkPgkIbQa5dpLc/DRuPdV2Q7k2ozHAkfTEhQT7rbZjk1adSmCDzhT6KqZLREB1kJaTq/akqWUI0MHLDEpVYL/1ftE+b2oZq2mxp8mB4BNTu+nzqlMBGnwWhsipMbMyr5oGnVw71HjsITHTZ4X+CXb/ojUKTavWPPrGgXhuDN0VGHDchZnzg9XNnBopALbYsiutvK6Em7uCh6urPHuqHHlwVG+VwK2bjNXfaLyFM9i78hpsOBB+sLRy09HY7JRMlW4yXRNlMon0MNzkXSihUvW5G+DDcH24XTbf9ofDfFe9/99eTvXVfLGV538=);lineShape=1;strokeColor=default;" parent="1" vertex="1">
                    <mxGeometry x="-710.8529214375776" y="373.316186040473" width="55.582130943076436" height="29.078390168336227" as="geometry"/>
                </mxCell>
                <mxCell id="61" value="" style="shape=stencil(lZjbbtswDIafJrcEqbOuu+49CjRdg2VJkXantx+9QI5F2X/Qu8TmZ/EkktLOP7y/Pr3td47fPy7n7/vfh+eP153/snPucHrdXw4f+mvnH3f+4eV82X+7nH+enq//354myenXj/Ov6Qt/rpynIBPk+O/1AZPn/w++XsWPh9NCvJKUTtyTT9viEsn7Tj5Bef1c5U5emGLcBryn1C+gS05/t4AglHIPVIoeAMWacFNyFYiBYu0BXaFsA4mJQ+/U2KxaBwKF3ga1KgQAZEq9W0OiALyUKoXUA/oExCGzXSGqowUAznopRorAhhwp9ID6rSCVCmUDJCpgheKIe0CVrMCGookQeyBRAiqVMACzkuuAhql3axFipFIdgECMNrRr35uB1EK5DgTKBpjXXAcySb+BpjUzALTIuB4I5IFbq275XiX9RAaR1u+FaAGPAI20saFQARtIgTwADuxpBYpRKcMioDa4agEGuaRe4j41qkYaFGMF6gB4UMj0dRULOKRSXgFgLqnXRxvQCtVWjVs6bgHWaI0DMFqYB79qqJGbNDmzBQoKRG2ps0xXtEJZye+MVsgU2QIVh9r4deGHrWyKwyYtOMFTsUBAsQ6trCwAqJJvTlkEIuBNaiOX79kgYgGHAhFa4VokOOoQk1uLBQJaIVHMFoAjX15ZARbLQtFZIKKC/2nAt/0yA5EKStehtesnUO3TnmaGhyqwaZVsVyjz4Lg1C9hOrVMfHk9MS9H5A1WmwraU6ZM7APeRzhmmhk4v3kxMHjatPPQgHU0jSO8sNluT4NlYd3BvQ9RsBRNTUq/3yReZBKik07eY6Tu3U9E6IHYACg6mhmpsupzHnVpnbVO+PbdKtX6oGaqG05MaAHy1RjtpT9YBaXVubhA6HaCjn9jAiYPJp69LDxQSMCWmdryY40wCthvb7uPuiPu+4wpVMB+yHXEFBngYMQRGa0WcQYIOyjBsOYOpDA/QbA/cDPej2BrE0O/Srgdu4gzEnT1q46HFNcsW4sBUb/2Odf/k3ctdcf1xu+Z5ORyP11ui5Xt7LaSPrldK/vEf);lineShape=1;strokeColor=default;" parent="1" vertex="1">
                    <mxGeometry x="-581.0538222488456" y="279.76196855564183" width="68.69651099717521" height="115.98378950401275" as="geometry"/>
                </mxCell>
                <mxCell id="62" value="" style="shape=stencil(lVdJchsxDHyNrigS4Hp2nH+4ynKkimK5ZDnL74OJwomA0XRKt7HcTWJpLNzIw/vu6W274fB+Ph2/bn/sn8+7jXzaMO9fd9vT/qxfG3ncyMPL8bT9cjp+vD5f/n57mpDT17fj9+mEnxdeotQmEodff39gyunPL58v+MP+9QofmThbQqFU1gkcqVZDyJE6IIjeUCyhUQ7rBLW4iyGUTJXXCZkpRkOoTBU4nTtVe0PtFIFJpVCwhJYo9nVCDdRtWFsjAT7UOmIyCJ0pCSB0yt3eUEgAoTEVe4PeycBpPc+FtWhmgA9NTWKrJaGW1wmTi5Yw6RcREhVrkiY6QnxLBj+r9zY+jxAO/JzH2/iFLgIJxrfi8AEItdeh4ys8yHHXyqr32NOJPb4je7Rwio8nOD8GtdeKThMGNKcXuLoRKg3ii01AGipfwwfXjHCAtGqjwzfQ7DRhyZ6vCkGCK5SbO79jgdbu8BnZkym69k4NxTP5zpgo4AJzXUiwoBfnM46P2u8LGPWsKT42nmH0pNX4+wKIyF/N76IgkT2qn+DwjM5f6DPA0Tfpn1180PRe1heTAD3cKGAhARfcTdAIBTcD8ojxWord0EiZApjFOmXEarQk2FR0jokNkg5b1LV0Uhabtdbh3Gji24oKCy0gtVGzhKtA32bEUbjzFQXaVOrYaGaCwD2tsB9O6nUAcc1lhH0mCFR30vFkUz2tSaBdpDC6w0wIsN/xon6KUEcF0X2UcsU7zvBwxjO0SJdp60HCq6n2Q5uE1IYYb+IDle7xAdivEXX4OrS7gg/L9wSozkW70GouYMXR/uwGVBotfwXvGrbupB3a0xc7rMD4+52Xx450W3Fe0opP4HwecrzCM2iPMhayazzw994H4//x+vHvdfqyPxwuj9vr//vXrP50eQnL428=);lineShape=1;strokeColor=default;" parent="1" vertex="1">
                    <mxGeometry x="-536.3176082331993" y="361.479573054987" width="52.27391830320289" height="46.62858855100001" as="geometry"/>
                </mxCell>
                <mxCell id="63" value="" style="shape=stencil(7VnLUhwxDPyavar8fpwJ+Q+qgLAVAhSQ199HzpYn4/ZOT5HKIQduy6Ae21JLLY0P/uLl7urp5uDMy+vz4+eb78fr17uD/3Bw7vhwd/N8fNVfB3958Be3j883n54fvz5cn/5+umqW7deXx2/tDT9OuBilxoZy5ufpiZVYfz/4eLK/Pz6AvR/sk5hA7XMZ328lWApIAKji+QrJDgBX9o7g8wDwRSwHmBEQcn9yHhAkj06NTio7dJA0ejWmfqotQBlXSEY8d6uDuHmp7AxRIqyQ91Yo4wrZSClvOUP2UsgKoUgZ45CVXY4AvMQ0AhZHnwX4NK3gxBCAyz2ui5eUS2kbYIu4hHFIJA5V6pgOsVL7IHbckDKpGrIhsWa0jz0sZ+2NpID2kUTZiKto70g6G8y1RhPiULU3aB/o/k1Be0PtPfiTx0v9k9DeEwap/wPaG0YgSeBPR7PMiTdon6l9dW+x1xTz035IMQ2T/31/ctY+9Qxf8Zn6x0oZD9wqI0uAijtKqnHkBG1LI0CLBNMP71EOchFPzqB6lEdSFC+WOCk4CWMUSuJRiFh7S6UKFSrqR9XKyETTSRwTp3qugRkzp0aqUMlh7a1BKnGrlmbgkp4hkFqk8gL6oV4y5AzF9VxfALHX4/OAhF7SV1hSLqqRPNJbuVQZwCGXsvKXeEnD5IHevCVUAEiCCj+THA2TcwhgrYUSwYBo1i7U5wEJVUQBTPhrxjLcAGxLKvPTCoX0IrX2Pnl1aMe2tOj8up9ibp1aBQ1cYF6q2Pu3QsYBcap8hZ2hYIrmhV1bAJBzBVC2pp7yKwDNh9gL47rrZIcOncwrAM2HgC2VAiyjhr5v6jojI5/HCUYjTcmnKzgE0C2FKQ5GIs/pnBBgGCBiMW4Zx9w6ya4CaByylCmnM2drnjKOzXmaD6EiIO2kqMU4sG7Ymqm/VUT9p4i5lKmksBGgTuNtsZwcBoeSEsQT+qlqppEcJXOlLr0JXqTd0ja9VTpoHiI9gzaFQPBGF8Im7VOBTavQbLVMoFotNKztK1j8NEmYm7TtA6luWsz6xNlNtr9iq3UtEGrtdVlzHKeWKfQW5zxAewVgn7qVkElHFA9ZGijARpS5lGljWXpTuNg7+snqfeZ+n7n/75kbhkONF+WzmwCZp6SqHnTPpmvK+RPb/r4FEGjHE8wEKD3rtmopfEZu7Tb70DZJzs4H0jZCQ5nwtKyEaQJQLzly6GjQrSpCgaygABC1xiS2gu2fQ9efwjnAjdTw/AOpAmD83Pucb7Fa7F0YWIzD3pWEnaZJfudhcdTbuVOxKLLLDjdPPHLbUPlQe6iPpheQrT4E9Gnh1ZY93F4Y/mnIi8P3075IR8D6FvuA49HOfgKOhDvnnVqWHX9GzOOdeEWsLDt8+Is7PG6vP/5cGN4e7+9P943r/+MFoz46XU76y18=);lineShape=1;strokeColor=default;" parent="1" vertex="1">
                    <mxGeometry x="-317.8616842256645" y="336.25473267566986" width="65.20118726262854" height="99.72832219231259" as="geometry"/>
                </mxCell>
                <mxCell id="64" value="" style="shape=stencil(7VrLbhw3EPyavTb4JvvsOP9hwHK0iCIZsvL6+zSz4HpYXNZGxwC+rUasIftd3ZxT/PDt8dPXh1Nw395eX359+PP8+e3xFH86hXB+fnx4Pb/Zr1P8eIofvry8Pvzy+vL78+fL318/9ZX9128vf/Q3/HXBefG+g4L7+/LAiQv/Pvj5svzp/HxYrpLCtDxIdPvlvop30/osoezXhypapvXeSfR7QFSJOgOK1LYHpCY5zxJE8UTinCWnGdCk1D2gOMl1AsQoLhJAGiJeAUWKEkCVMh8pOfFpD6hOyqzWFKWQI9UoIc6AIkrsUDPKkFQakaHa+2ZPykFKJoAmfjacWSYQw1WVMGspV8nEWZtbdlDJREvNS5otXcJwltuAMHRyBWRJxFtbEgeAKpXtYO+bLW22ZxHaLFxmO9QgSuzQzPnaDMji2A4qbrZDrdSX1I34GgBTdCURp2aHeYcWpRHDqWWtWWhTgxIZDNBgh6t33QZE0Rlgr8hMBtthFlqrOJIqu5YcAgrzpSJtFloLzXzmrQ4AUSqPaXANO6SyNOPxSK1JIHYobUTwwXCsoJQiEXzJsgZxb0vGGhHAAsgAkFsN4PkOCXZIIxfuACEjgGVvA/hlh0BcwwAOtBRpiHZAQwBLlf1IBQGeGS4NrV8Bgca0AdA1wij1O0BNCIgMkDEeDBDYkfINGah7G9fQBcC0VG8YrjKAYmE3b60sRMPifG2E1I4JrEmgkSNZnQbqYGnGsUQWhohXQBqEaJf5QAbNI5/vSlaZ7aCcVVr2LiBD5fUh3Uj3jAnYAYDN9CesZNVFrRZAbIeKJctKfSN5SY2RLXWaymA7zACrGJ4xASNswDXM9hwQ5ogz+pNY2S2opVxGR3EbkJEvWQtCtWSAjIDEDJeRJBrAMaEL9nCxcS0VbJoMkDmgOgQk5t4VU+W9HSqmynsy1PG+o5aYHepoL/6rHRaie8/SFZOAtWWsPvSQzwgo/Ehh2aFx91YAeK6lghWoA0hR7FlI8UiM8xkAXKMLzSOuRQRExoyvFe1gOH0vgPVx65EMwBrwLjQAmjRm6UWtPYCYDAXbgR6i3HC6ZI072TssAEZDV/c2AG38lgAytQbm3rdClPVA7we0kSMO9YExMgO0mZwYR6OWViQnVrJYP20AbPEDT2SKFcg4mhKhvbue4FDZM1OT3mrkmG/oaD0PpE9ZFqg4efxumi3Dmk19EGs7FQDWp8MhdzQxZgQ44q/GtZtHIVgXZFTXA5ku1HS1jTbsQHUTSfg1Ye4zQ7AG2Xp2GOl2fk9yX/d/aGoazd8/WvAL4EcL/r9owfNw5gOAjdUsHmDM3LXEXEOH5xybfNaCh+Gbh3hg7LsuZLpdW7XtIBsynxshtZsaw6WIcjv08SakyussfAfAaaWnMd2Wuyx7wkYh6yDbpGKsry23WWa4wtJ9kTQ7X1VKpvswExpkfk9jWSjNarUCwCbfbbkJ6myDCe2xxhV+E9QcXrCVyr1VMZH11MYADUtW8ZQJWDxATOdGOwjT+koTWUwbAwM75DsyJHS+7GnEmZmgPqQ2vGuXZmDYkvJoQnaz9TIHkPWKbMJUosSlC2LTmaxY2GOivmRKRH7vqB1SHZl0AEKmduhjiVkG3+h4M9TlhjrQPssvauXhoEgcEr1HdVhyA20THfLJQLmbdeb4dpblHdJbT9mtQ1H9GMbtlntYzjLX0vR4mt0dBqQbNXEnKi5njukwsTtKjBz2hG7MZjfL4YbV0SGPQwbPG6l3flNyd7n9+P75ypfz09Pl65fj//FzF3t0+VQmfvwH);lineShape=1;strokeColor=default;" parent="1" vertex="1">
                    <mxGeometry x="-205.22585376054508" y="312.2631936029986" width="151.7344750370935" height="114.25479173971189" as="geometry"/>
                </mxCell>
                <mxCell id="65" value="" style="shape=stencil(lVjZbttADPwavxLL5V58Ttv/CBCnMZrGgZNef18Kztpayhohbz44WoocksPdyd3b0/3rfhfD2/vp+GP/5/Dw/rSTL7sYDy9P+9Ph3T7t5OtO7h6Pp/330/HXy8P5++v9ZDl9+nn8PT3h7xmnjUKbUDH8+/hFSc+/fDsDng8vcwBTrSOgUYrrgBYpyQjIVHgdUJlCGgFMDbhUAoUwAFolreuAHEjyCEjEug5IQllHgDkJANIolwFQWz/zNkCojCdUgVGKSpEHQCkwcTH1mHRAtkcgAPsTMhOHdQA3D0iJmgBA9lxKgSLgEltMRi5JoYZcYkojNSzQishHeWSGxTmDvFWS8Q0kUQLEqJRGbov2J9zmBfHoj1ERZVlIdBEgxLuFfaBaAClIxnZhLBFgf/m323MhBvaLUs6UgHmjNjIuUEaEa53xV/sA6GPBYHH2nECfYO8PQ3srKNeIYm8Dt+2trYz+J4ogu0WoJh9OwLZSqYz+FEro+a23zas9Yo/Zl9Efqx9Q72avrlFTQM/X3pWv9gr4MNm7UdMTuOaPz2+ggl/gYzZeANZVcQaUPaAilyyCyQMaOuGSovkJgKQGiNkD0CwrmVryUaooStnT2jTIhj07+4DeIPckXWnBKETZJ6H2MbIWIZcDa7rI/9L1zKzMMClS8faYpiE6+w2WZv++vFEG1dmjKTyVWXXxLxtl6fmQN9rEODWMcGgqlYU8M0oHJDGbbywGyKBTW8qyeAAaxJN6W1TZBok+CZCurWZRQlrFpo0THyYY8TRztKvdxbVpuZg2FWmh0Kv2ao/8sWmfvX0F/qhvjHjYZBJ25mh229mOQdK14Iq0ccFnU4qgyJTYKbPcu9KKfRntJ+UH/NeF9K5wBVKvjE25ogJovoem1rXpihJ1PSVluIeyH0qysf5QGNNryh4p17jYHCpFVF1eSlxPvO3/gv0m/gIoFzZ/x3Kc2ig6oXixYssSo5CaunEcql0w346RUWwkUYpw0th+4iZ3avAdpqA7xVvw4s2+jK1PFrRhZb8C2bhChS+LyqkJZtq2ZndjUvGWm9nPy6p4FARf/E3ghK3Wqt0Er7C72PPcLNAAh4FGrzJVuiq8DVjsQprwCc1fgGiG9Fbty8kMgFqMAQp7QEM9WPv9yAWA2TpdzhUPQBsOh8VGrSZNsE/qdqLLKFoDuMlmACT3VX2r1Mtl1hrAFfUUaTQLmxfYU6RBr9RFJ5sFbg3xyYvTbYB9uN7TPh6en8/XvPP//b2u/XS+E5av/wE=);lineShape=1;strokeColor=default;" parent="1" vertex="1">
                    <mxGeometry x="-699.5167782591411" y="199.6376371994627" width="87.15469640358197" height="57.153878973857104" as="geometry"/>
                </mxCell>
                <mxCell id="66" value="" style="shape=stencil(7VvLchw3DPwaXVkEXyDPjvMfrrIcqaJILlnO4+8DRsXRsDnTG53iVO1ttULPgCAeDZB7Ez98u/v09fYm+G8vz0+/3v5x//nl7ib+dBPC/ePd7fP9i326iR9v4ocvT8+3vzw/fX/8/Pr3109dsn/67en3/oQ/X3HiXSkdFfxfr99ocyL/fPPzK+Dh/nEPiC75CVCD00AA6nKbAepSPgcE7zRNgCYuEZWCuJAR0DwFFADYGjiggkrRZeWA2Uot8UWLy/CG7CJXyc8b18r45syssHEGYIuW5goA1AlZtNTxvB2ALdpcQwsCMvOl4mpEQKwEkF1b3uAjBYTFSplZKS1Wyq6yADLXAJVsZ8iim8uzfN0WdShvC9RZXqhjJNfm+FQdNjh2JBdAPjifzuUXvyttaHgi7+ssX6k+Jg/PN/2JT3gnc/CXQn3IY2SW7DJzISdhlk8jGZzI14rygaU7p/P+lugq8Z/oNKJ8Ifonp7LIk/3KWEFMvhF9LJ4E18vsb7sZ0P6e2EexfJi8shxhDgEO7YeKZyWwzDugeeh4mufmJVd7J9mCsO3oBog05i1JlNmJ6pYqj52iuAQAe0QjXhGdQJ4Lo+weA3RUyF3NTOQN2QI5I0CZ4/mRaHdFlmWiLLjoXpXZGyyzzftgyZ2+ISxFNlN2ZABgR1ZvEtlpA6xVmTnfgUpKfelg0ZUmjAOzNpqxDzbOnI+ZdXWN5hoJ0WQKzElA/FYnjhHVpfiuV/jFv42LsDxsaW5xV1ZIQnV54bWVZLKe6pegZiFntS0AQEd1P2U7QOZNJcYJg4vzRmilKlUkzsYulMiX4Zo7dhFZpnRtqbbMpotv50Krc0KGmuMguf/SQBZ/gXmFIKW1+CtkBXF73g6QSLSZZ0dd3sBip7iWEaCkNqxZrwNYiqkYbJm3eJ3TKZqVBZuVcL9sHMtJVpEhOnOiKlnwethpI/LkDVY6wLfztqpjgC6APJqHY4Axa0UAK1cGqBlVYmTMkii6dxmJ9gwAXClv3nUGaLBo5fzcLx2DuZdceIUggAV1L2cQo5sdzgCQiA1QGaAuXYCndMwAUhHAzNQ2K+4AhS26jEqwBzCVIhaTvnMkgqyaVQCksapjQBjzhwHoqYqYVSOm+2hkiYRcrx6za/QKxjKZ4rAqeBrUvRzMKlkRzmTRxmRAJetwWAk1m8DEQGnDmpaSlUY6P5YXpCWRMysZpPxNXpg+MhjzZtLB/k71AXJIU1JaJh7bhPKsVQK2ykPT5CGDeZpTU8Ik7GlTkjLO5czjmD5ljFvf5FlhM3kIS+EDBsVWMtAuzOT9rE+kRNv0KeifbKSdCj4/8f3NgwFuaYiWD9uvCPWGjnbNH2LD5zP7hJEPdvozeRk5cGcfNiBcZtORDmySYCvFqZfJl4D+w/JJwAmhpwzB5BXlqf4RaZTnA9SE9rnQama0j6cdvPlnwPil9nmnvHXXwAK5//QRBPR0o6k6ls84gRThRdUjMRClTKJPiOcdtpBhJUYVZxzWnbMaWQtOjc1LWNIyctMg6C+M+a/k/Ure/0fkPeNUoQidaTc/5jK7N0QCMPJeF7OyfdCEbN92ms2CSll6fuVzyLoEhF4i7zkgQHiur2sEsWK+ZZUdgB4HWfaW96jUD5wSmpXVQ0norbZx7BxYkY/0kCbbIJunba4UaCJbT2xKHpz1GJBxyl4aTcZSkQMonyuaVaGg1O0c6hhQMFXWRBNfFJw3WxFj22CtLqTWWqmVeqMDg3+heSx7HIFdj3iO+dX1iOcHOOIxnfDMk5+nGLMvy6pp6++x7NrOscl5TEsE5TGHPksbeIgU6QGGNOyWGqcOlu6h3ahKK5Clb/C+mmkDWnD4r/ysOuBtLeWXr643VK43VMDffqgbKg0pXrlwR1OWCyqJOrQsO2ANcmMeVJBqG1tnISltuZXGT5qvlzoHVfjvL3UKAq6XOi+2PL0/ZvGwOp/QHKw4c+tknlERtFENdCaRllumgQ+1sZuvMqbWZ/JLu1PoPQqgLcpnKgm7o36PnbUiSGi10gavjCjZybMcvFyJUE6KFFmXybMbERVn5v35bJaHicL098xBF+7bDUQnc+/9JcFlgH14++HCl/uHh9ffPez/jz90sK9efyQRP/4N);lineShape=1;strokeColor=default;" parent="1" vertex="1">
                    <mxGeometry x="-759.4674787136842" y="67.71062097483309" width="61.72934283032055" height="66.0266585042798" as="geometry"/>
                </mxCell>
                <mxCell id="67" value="" style="shape=stencil(lVjLbhsxDPwaXwmRep/T9D8CxGmMpnHguK+/L11DiknvjpHbencoieRwSGsT796fH962Gwnvx8P++/b37vH4vIlfNiK71+ftYXfUp02838S7p/1h++2w//n6eP799nBCnp5+7H+dVvhztmOK+WQk4e/5RSzUw/83X8/4l93rBT5TjAafhGJax3fqYvGdsqzjuVAsxiB3qnHdQCKx3aEyBeCBNMrWhRYo93WDKBTYGlQKDRgkysEY9ACDGus48TSIcIcUqLA3aMCHlElslLqQMMhz8D60homhibM7tDjeLBoUplpt4grVAgyUmTZxNYzMLBpUIbZc0j2RD3qAbo+UI6W6btB4kHnSO1FEBnmQedabZgbUT+sU7JGkEoMdOlOxTkvAFRop2x04UQGJ65mC1YxZ5Mt4ZYYlaxklu4xvxBYfqCGPG6Xk8Cikim9+fSQYvRM3h4cZUIXz61fkrwqcXZ9Hda/hu42/QIXkELy8ROpAXU4bWJJO9Vh1wB6owMpXfHKVPwp1NQFO4qlgQrjz1CE1a/jYHR5VveJdTRZqiECVmo9nQ/HR49p8aUEiQms47PlVeVF+6zjuB4EgodVfG38mzjieFh8oIUI3Kr7AAvJXNbF4PC7I5Asy44J38WeSG/Xi44kUd7EgMy4A15cSJlAfnz8Id6Pgsyc0VPTP4oufMrXFwAMl3ya5k6AIiaeQhqiiHGsKXCPmscRyIy6jKU6DDoeJJmMSuBh9kcxVLXvbx7J2NhBWnW+am28q7GT6OdsdaoZhLeITp14xGhuLlxYdGxvQCp0zHVU7FjudZJMz0HkBtL90Ncle1N/yOF4oWT1VwgsyiKPBT4PJ+GUDHutdjOMBGJw6mPvTkiFd5SpzOtwKmhJ0PXukkvGYNnrGZGuGKjzTOsuhwaki+HpLEa4fPC+SwAjNIfECj7pa8FNpYkpwfScwSkQ0pl33BNUXUAjXAtZvnd/pl6oLIHUYyjDxdYxVa/FPHo8Ip/m9unlAY74KRfP4Av7y8pW/BXaEz96E3Mbrw8e1y9Pu5eV8a3P53V/T6KvzFU+8/wc=);lineShape=1;strokeColor=default;" parent="1" vertex="1">
                    <mxGeometry x="-683.6475909004159" y="488.9201590391099" width="151.9130936869542" height="45.24473428233091" as="geometry"/>
                </mxCell>
                <mxCell id="68" value="" style="shape=stencil(lVfZbhsxDPwavxIUqfM5Tf8jQJzaqBsHjnv9fbldyF1xs1P4bY+hxGM4onb68H54etvvhN+vl/PX/c/j8/Ww0087kePrYX85Xu1pp487fXg5X/ZfLufvr8/z+9vThJyevp1/TCv8mu0K5TwZCf+ePzCJ/v3weYafjq8LuP0ubcBHUt7Ga6YUBnyjGrbxSanJgA+ZtGwbFKbGg4EIlbxtUCO1NBpUkrpt0JRyHAxUKMi2QWAmHn2KTAlkybZo4xYxUwVRV/VRJ6EKfCpCPO6QGgUQdUo+TblSAsyIgUIZDEohbYBKlcJIjZqogB1C6nW6cUmpgLSWFb6RAPJl4uTxBVQhUh7xi8p/3A0k4jeooAiBmnp8BAEw1bE5W+0ubuC9PyYHIOAVr5u1N/Df1h9J1xLsA/bN3yLknOVnFK+JEMB/y3/xeAX5jJ1eC7wA/41AzeNjRATVVbwMuriu8hmpIq3rSrjIfwUtWak6vmVqEB+dP7W30Ea8WT2+AXym6PLZKIP8pK7LC3wD+TFlX62P8EK66scM+BA6W5bxAj4zxRWeYb+zizfDfLJX3IkPEO8EbuIb7Me0EmjEn7vx7BusGmVBg1nF3NldbYABiqXJG9jJGUCJE/dj9HZOCtT0bCIxGtjRjYo2HaNj1Ww4EDQcrNpYS58vPjYwno5pVcUxFC+kJgUJFG7K0qhEVpkIgtbbOLOcA0EMYeVSCFB71Z+tBQ6m5g87uAKlCL2vbqygAla32Wl0xqYv2Pd5jDXCtrHhUxycoQq51ZUYhupE1xoGFao37K1OsK6rvHPX7K2qioMLWD15WuL5zc4jvQN+593qv3B7+HeNezmeTvMtcPnfX/vs03xl1Mc/);lineShape=1;strokeColor=default;" parent="1" vertex="1">
                    <mxGeometry x="-547.4225865987578" y="486.923338228431" width="33.49389189922999" height="43.60212371276157" as="geometry"/>
                </mxCell>
                <mxCell id="69" value="" style="shape=stencil(7VjLVlsxDPyabHUs+b2m9D84h1BymhJOgD7+vnJT31zLZAq7LtgluZrYkmZG9t34q6f7m8ftRtzT8/Hwdftjd/t8v/GfNiK7h/vtcfesnzb+euOv7g7H7Zfj4eXh9vT98aZFtk/fDt/bP/w84cST5IYS9+v0S3Dk5M8vn0+A/e5hDcgUeARUCvkywAuFNACiAgIAFPJ1AKRKqVwGhEBRBkCu5D0A6GM3AEoily4DoiceV6hMwQFAtCvUQB6UVQF/U1wAkRwoqwJKtYCKt1THxtVEGSUdKYcRkCnhFYJJWlsJGhdD3/ECqOQANRRg2KqAGGHjYrCAgsoqlMcV2KkgUNbSH6+WqKjVTJIsIAG6RkeJLYBR51ynzqoREQkiE5sVAuS3moTJoQSoINE+jfxOiRIAcCY/di4kSKZMedSDLplAG9j6GCcqIGVn26zhDHpgiSewA6wdHevjqGKTDGLikQsn14V1jkd+lLO1F+04qH51FNnGVxCfSbyJRypTArPNF0lA46vdD2JD85Hx/xmOkKbxkQ7SE3q9v27ij05ewJ/mU2bOEoMGa7yPQ3yEc1wLlLKJR3rUhpWRQDoyUYES1WjjEYH0cTX7KWj/cc5XUH3CXM+ACDodKjycNHO8Ch7VM3S3ORMODYGWrxVwAQZRl3K/UZCp+81KkKj+yodJwKj+pdNrZVhYYCZfxv8/6YW7A7xVkEIFEXRSvKeCGly74Z8Jh45bzbFGAulxCu1HHdGbeDQxmuNaQTJy3PfGOysAFTAQjE6YKd8K4tsEq3Y/gEA6Ie2JAwpeJ3AeCaoFAAIolp86kdFJtJNroWeAfsjSx8NCz9RH7OsnLO5+ufDNw8O018O0cXQPOxyiPUMUh4/rQjy2rKiI8JXj49r0n1ybogV8XJsmQZR+Jl6RySMFTZ1TQWTQuXbPGhtRhBJwMb8MpcXFhCronLqcaXWSbpyvA6Rf9BbfVgBIWm9yZjCoMaG7BE+TJwgchQrgcUuB8d0vWy5poTOoEk9V8tjJFFCrBQgCTONKBxjqtM4rmQCIfDJdARWA/L6dMGUC4BEU87Ql0Id2aUoWkIHi2hkt2LJ6tKV3v9/8N0A/nF+n3u32+9Pb2PVz+/pVfzq9uvXXvwE=);lineShape=1;strokeColor=default;" parent="1" vertex="1">
                    <mxGeometry x="-688.6804914197874" y="491.4021449991726" width="52.453310664104265" height="47.476614286394806" as="geometry"/>
                </mxCell>
                <mxCell id="70" value="" style="shape=stencil(lVfZchpBDPwaXlXS3PPsOP/hKuNAhRgXJtffR5utJUjDNvHbGnePNDp7NvHhfff0tt0Efj+fjl+3P/fP590mftqEsH/dbU/7s35t4uMmPrwcT9svp+P31+f577enCTl9fTv+mE74NfN6J+GJFfj3/IsEKuHvL59nwmH/ek2I1JsnpLhOaIVStgSh2tcJtVBxLvFi8yahZJLiLYisE7JesVtCopLWCUkoWQtBjwAWolAXQ4gat7JOCInERilVqiAP0ihaQmHKiBCpRkOoGlaQB4062zzUvqTyduJIrAFNvYA7J+rB4LtQRkGl6PAZZk0oVIvv1IA/Go7o8R3cl32dKj4C/3nwvxGDjPFSxBd8oQDPZ4dPxPC+Hi/UGPrj8tupgL7U+yaLr9Th+WWon1JhvorHCzhfKLLHB5BfWQbhlf+COoyanYytLRVyu+eJbQd37WDgT1isX/CBKpopxNYf7ReG8fH1X4nBZBc/RbWecT9G50+H+RViWz/CDC/AVGUwAPGJ/QXQCNUGcAOl3Bko7AKa7jSYG7iaYFQQPCRYWw76E1zDNEogYVqOriHrMjJW8M0WdLs3sD6GH9Z2ixTAAEpLNC54hgO6ULbnqxRhEB9dhzb+pVNGDaDu2gQXgRNaKjWbgczQQhiWfKywpOMw5PSIDJpepVBw2inALZaDtxCXvf+fao6XPb4qF4PDoyEx6VF/PpJyo+DFanRU1Azl7iQavP9IKSo+W/xFnK7hq/UnwKaZRJLtyrjs8TV8d8oVxvNqiF+K+o4OHYUoJVBBo0cNjt3xxpP0BSU3hnR6cICmuZEzXbY4qK4oplcWWAUff8fdJ+jHv2fjy/5wmF+d1//3z0z9aX6ixsc/);lineShape=1;strokeColor=default;" parent="1" vertex="1">
                    <mxGeometry x="-779.9728317373504" y="272.07372938965" width="156.7291101468279" height="23.914127784156108" as="geometry"/>
                </mxCell>
                <mxCell id="71" value="" style="shape=stencil(lVfJctswDP0aXTEkSHA5p+l/ZCZO7akbZxx3+/tCVamKkPQ8uck0HrE9LBzCw/vx6e0wsHu/XS9fDz9Pz7fjED4NzKfX4+F6uunXEB6H8PByuR6+XC/fX5+n329Po+T49e3yY7zh14SLkWodUex+TyeJpPw9+DzJn0+vC/mQqJZO3mcKAMCFonQAPZEKAI6K6wChUM77AC8k3AFiJo8ATKkHCFONAOAtIDlywGkFGB9Sbid7JvkekDNlDwG5B5RMDJzWsObQAwr5ADIdySerwQMfYqUSe4BmBviQIonRoDplH5CFau4BAZKvRso9WwtTBD7URDFawL/cbwMy1WBNYmRStZlWpxnUgwKKX4U1AWo4JadRoVULEKoi9TWq3AiAG1Ursu8apZKACtIwSe9EdRSRSZpqsYCKU809N6onBwqisnVaNWTEDU8s1ukK+K33Mduwoi6g9yVD10wR+DACTEEkciisatKKfRllWp027AuUkNMaVqOBG4F3E8cWEJFJSo2VBkGJm4O48MEhk5TeYgEVdQHNg+kCQh4Atms03mkDJkw6UjDAG0CFY3FsZaaCHHmkYbZ4ASiIfZFKH6axRpGGjwJyalNzAUA+JKGyahsF9BnxjWszILQVanuOSuu9MyBRAlFithvTmEowFnXbMPxe0Gt7VJOP1iTEb73NTMXcanBPfrXNJBBU1wp+sS6hJuMp9PZIaeNix9/QR1R3lQRyVtrkmOVDI+K2PcHSTrPOwAH1uPbFyfOqsrdG5x6gOiPQoAaUnnYMC0EXe7PjzkHelp8z1ORdm0Xb8que6mCE4opDdyitgypZeWB/1CorRh6tPMoAsfKo1+nDyvQJ3wbjtrwOjP5+hvNA5aVvvgEOQZVPvbwaiEpGbHMXbP8HH5L35fXj/6v15XQ+T4/e5f/2latH0ws5PP4B);lineShape=1;strokeColor=default;" parent="1" vertex="1">
                    <mxGeometry x="-797.6761595846665" y="272.6025798191009" width="36.34688144743063" height="43.511264153369325" as="geometry"/>
                </mxCell>
                <mxCell id="72" value="" style="shape=stencil(7VvJclw3DPwaXVlcwO3sOP/hKsuRKorkkuUsfx8wE755bLzpkXJyqnSTZfYMAWJpLLpJH77dffp6exP9t5fnp19v/7j//HJ3k366ifH+8e72+f5Ff7pJH2/Shy9Pz7e/PD99f/x8+vfXT+Pk+Om3p9/HJ/x5wrXmqh+o6P86/SZn58s/v/n5BHi4f9wDuquyAEp0KV4GdO8yAKornQCCy+uVqriaCEAvkBZA864SGRTQ2gqQqYZjQHIhroDmgnBAQQC9kgV0J1eutAqtivZMS2m+6w5Q2DdE1+sKCM6zh1O1ZgQIf4caEEDfIbpsrlT5lSQaALPW6GJHQA4UEMyVQqYAX807NA7wCAjkSsNFVxmaPhy5UqsurqZRVSryDi25sj5c4Q9Xu4srIG8fcQwQ9Adp8yMOAaW5sr60iCvEHzRs1TUISHCN+HQurq7mnRqNfNmjlpJMpz0E6I3BWmN3iahVLxDXIBBlXvIYEKcHb4AwXeoQEIvza/QOnfpD9NP6N4BeknxDUKHXdwiVytBd6Hg+k2cQl815Ia8Q8BH0fCL+6Q/uX8h9vEvF3J9ESe9iNvchCvXoOXre0/t7uH+hvrylmd35SN7LY/gKmb7v0flI/NLeRyZFeaW8MmP+K/WZXCce4DGY6vm32UNyQu+P9paofWoK7HieOWQ18mpcZA6cXIMs7goLKZofVwHqZFfH5w1FFeq/KU+mtcU4GuJG2AeDmxHg+PwWDuZ5ZbhE/zm4LnA+srSRp3mdzzNGnvt8nt154r8lzec5n2eEpWzhaScvs5+A76X6ZOezK2uAi9R/lUvIqh+ZFcYlspJW/Wt8ZucrMrrABegeDW5EOMZKNYCAxJ6XEwXrj5hoTOwVg0TMUwvHgDZzygYorhEr7X0qcSM3gcoQvAnsqbjO2H533VA6KnXHl85x+vYlqSFWF+864+LFEN8yL3kMEIy+Vb2HsZsw1b4BAi2XtbDMDb+B0dKWZ/jcFeRMhmaqriI0A2r5DR5aIg1J6tJAS/UdEhG6NlNPcKZcqwHoRzDAZpsboFJrVQBEgczjjALAgxTAzFsB0EkZJQnJhAqAKKAAVoAMwBqYNBkJ8YcDgNCwMWTwCAj8G8D4rlWOBdNbTteEhvyvUaOyhFUwoSuAMXg1PjDvAWAybIawAzAOqf7QV5/WcplZa/OoVuFVlwYBcCAFCAOk2dXYAZhpNLUcIwN7aQ1k0G+SPj/iGFBm72dTa6BUTGMrvoO4wrujHsLMFS117EKUK105204VGsg0oUBmL41eabTATDeo884iaKlufYlLSRFsSY2FEqbs/Ppw5771JQD4w6BQrBWZZ97fAHV2Pi4CCgI6BwBNV/bBwowCKsjQaWGigJwR0NhLZ+RLO5J2CRHEfAXTqxg1dVq9dUH+M9TEKJkYNdX5nRcBAQGsPdoFG3/DmNjLydTJBsiUzgz7hisJJ655+vwOQGuUjJSsyzVjKgbAQt8w14ZCX3M5j4DGXjqbgUShleIBoM5a8yIAhG68+2+F7jz0WbX2azLgw3VeomQMrgPAvwGC66jtmPFZ8+7zI17rQI0Xcv8B4M3oiTqQ5iwYAfIu1MiKqy21wCu/gH3bQQOZLflZwezyLuU/fU7Xdpmd8dDWDNnIUw2XADCrGsNeRiuVSwPTbXySlLE+1oqDAgQdSOk9yw92VjWaAowlRjQNBVAO53HepgBmGmMaZqom4fVAKagl+g3v1eu/WnqvXv8H1WtF4jqEJh6n9QUChCZF9TgYsqgtsdUE9Wn0uOYSr48rhMpASaJGPujbaSHH1is0GINplMJXRIJZ1bmyeWOG7voNdDWhIG8tidqS8q9k8gMbFo28D4ArOyUNhZbkOhO6YfROlROsNpW4AYSuJpzrkQ3gOXWoOEOPnW/eZGRksfCiKeGMJiZeUJu2Q+i0pFEm0GHsmPnWSsKSJgSXWJjps829MTI6h64ZFwF4CBh9dwgyc/Pg8PyYk4HlUa405nBgFrT8sXO+RPPnmSLszpP7jzkl3qcTfY7+H87hmLzn9ZqdPtmuSsa5cqFz+tgwAjf6+dEQ9ODpAlBIuDY4Ju9sSjGbizsXyEwCl2GTodJuzPvmyfvmCbzXD7V5YjepEm2/yGw77M+ztGcyBi8FVd1A3/U3rCQfL9ARkEnM1RAVrMkRl0nxYJuNVafJDuoDbb6IYAmicZd5ffbIoJSuMOqrVBrYR9qm3seZL5pMxlu2pWE/SDzfNxXc0RmrAyzZdzMP4325JsjRlMmyd2gVS/Ixh+FrJXAlrZMowIzoGq8o3tfaT795X2s/Avxoa+3d7NGpS7HFuL6tbW2AxAEee1rqcaz5osZcVmu9tnvTcMZdeONCRaxmoMxYeaumaqm8UKumP1poymoVN+1HX+5tV8p8Y6+aOb3QGr5VHBoqgO2Et2qaYLyRZzvhOdGU1eyGUuIbGVt/aQ/gV8LWOe9DjAaS6V6yzdW3/3HYdYD+cP5btC/3Dw+nP2Xb/z/+7Zr+6vR3b+nj3w==);lineShape=1;strokeColor=default;" parent="1" vertex="1">
                    <mxGeometry x="-1075.0436861016142" y="189.12583031180418" width="295.22359810724913" height="67.04964840386731" as="geometry"/>
                </mxCell>
                <mxCell id="73" value="" style="shape=stencil(lVjbUhsxDP2avGpsy7bsZ0r/gxlCyZQSJoRe/r5yUy9rmT3A2yars9b1SPKOr57vb572u+Cez6fj9/2vw+35fsdfdiEcHu/3p8NZn3Z8veOru+Np/+10fHm8vfx+ummS7enH8Wf7wu8Ljj2V2lDB/bn8Eymlf398vcg/HB5X8iH1110+U4nb8r4Sj/KVfAHy3D/X5b2niA5w5MMIYAp1GyDkyiivJvlt+ULJKFRIHFBIPSoDIDClDF30//wO0KDEsA1gR+zGmHlywEcxkBsByVEANqdAMkYtCQlwavY9qktaBGJgQy6UTR5FikAlSV3jFQCpVDQObAEeeKkIZWdtKKAWqqdkTvCUwQlVc8lZQGSU3M5GLmdyAFET1TwCKjyiFPJjukron9gKhDlBpNf4Vm6YZGqhAYA4uanomQIKQmyoS4U1rQXGI+vVQBHQkrJGHE9QRzPIPqVRGb2kwXegIHymYIiykgM2KG1VtiegClKAofoqXcktlXy0AFRBCjBFXXOvqbcBmjliAQF5qfTXKwB0q7Yb/0mASe+mEjA6OMqTDYgFgnJlntyKkm/OVk144NYGmFMDdXVH1ZygyYcB0VtAwnNAZgsooKZblx29tCLDrWQyjVePqCjUOgpkC0CR0/yerfaABRRg6FsDkZFKabJBqKJ5acnmFYDfsWGqUUGBkDcqiFHTkomYcnf0VqjLXNQo0hqmagGImFq6TkZDvveTWzOMw+cBShvjxKQdBXGldhRvcinA0Vsn12r6biUBgWNNvlGlknsnfrtR6+sxW0uAxJSq5UopsFELUzTDhi4IIJdK7K9X8w9q1JWJDSDB/UEHpjp2RR3JIEBHCzPDCTY69oJcADo7oOlb+uvVCWgUSGWaXBOsuFh7uSwA3SBAHLjYzq47RUYDU7bzfWToJR/7ELmsTQzpfmnjy16W4Bjq7TDTWARYMI3qjWqBi0If7xb5QAGUZ+7F+7pJI3V0MTb+kc44H2wMCdK86p/GpMO1r3Rk1gDNIESQ01qsDkZLwLQV43FBdwA/yaPve8ssqj+SV/8EI4/4XbPXTCMebnoqb1YSD29uVN5MYKE39g/LowJu+ph6xAzB9iKGSUA+NH+O9RvhqtDiVYw89M+7N2H68HqNdnd4eLjcwq3f22s3/etyZcfXfwE=);lineShape=1;strokeColor=default;" parent="1" vertex="1">
                    <mxGeometry x="-593.5789066582784" y="531.6305553577795" width="61.33625843921527" height="84.72822284488075" as="geometry"/>
                </mxCell>
                <mxCell id="74" value="" style="shape=stencil(lVjbcttACP0avzK7sDee0/Q/MhOn8TSNM07Sy98X1V1Hi6TjyZssccwChwPSTm5eH+9e9jsOr2+n4/f9r8P92+NOvuyYD8+P+9Phza52cruTm4fjaf/tdHx/vj//frmbLKerH8ef0z/8PuMCNZ1AHP70G1H+3fh6Nn86PM/MhaQM5kKpbpsXUhnMG2XeNo9M3Ab7WChnAGikcQBwJQHnt8dxBIiSAg+SqI1HyrEHtQpITHmMuUj3uQrIgZgHQGWqwEMu1MKY1UBJQRUWR2qFGBypVCpj0BpI0jagRmpjDMr9zjogUx55pwlmqSpx9QAN24DGva4zQAWVtpzkNAKEtACAUss+6AI8TDkpPq3/2bUOyMSjB/OZQNBaKYxZao0CqIM2amPQzSoD6qBKYQEIgK0G4DHoZi2FAUk9ALWoAWrwRxKgSgZwdbDaB+xBqwcoyFIMgYI7U+1ON124MzXYQbpgn3GjYA8rTY09pOoBFXODkwc0RFft5JwBMmqIttCZ0Bm/BXBBW5Zg0M0Lk9UhfQ5QKSEytS4SMzKhqWiA6mLIcEAYwNM1U8TUiIuWu8LWxAsAKpyRT/yRGFOjRQ+4wiVNPq0FANZ7NIMpN7lwhWjXxNJtV9f026Rs0UFoH/s8oHo5timXUQdlSmPlbI4mlCXp8+ACyL00W3PUSZ8dEvH7o7AXgEL9nnaB6gENAKZtY2TfjC1bC42bWpMaIkD0MmBRoxYqF1mZ5VVAk9ra57YHjb3PtxbLtNCNhHZdy+IIqLY5AjLZchzdctxgWm39TiM3pu0XtJy9cjjBT6kfcusVwnkQ7i2yDoh+8HKEQnNR9wuXhAooAy82ASh8tvu7F5QutRvmIs5cQCeETuJLOknBrDLx8eZoEwteKqTL2ZZ5cOao7c3cvRzCfjHzMe8RlslCTc48wjI53Q1UAI9DnxMf5gxDzf7fA0xkFW8Oz/6pjwRXze3i43vEw+Hp6fw5Y/7cf7+wW+dvH3L7Fw==);lineShape=1;strokeColor=default;" parent="1" vertex="1">
                    <mxGeometry x="-559.7278233639636" y="268.09796389888857" width="206.55544452355934" height="49.039656918650394" as="geometry"/>
                </mxCell>
                <mxCell id="75" value="" style="shape=stencil(lVrZctw2EPyafUXhPp4d5z9cZTlSRZFcspLYf59G1iAXDbK3/CZxZ8A5ew7wEj58e/z09eHi7bf3t9c/H/59+vz+eAm/Xbx/enl8eHt6x1+X8PESPnx5fXv44+3175fP1/+/fuqU/a+/Xv/pJ3y/8qVgcu1c3v64PinG2v8f/H6lf356uaGP1Xg30WcTqqD3JraJPpnmzulDNqkQfY2C3pn+2ySPE/J3cTPR5yLonWmR7JPyOb2rxs72qSYJfV0yfrZ/0/SQZ6bHk58WPmRo7F8XpUHhXzvTQ6N0Tg/zpYnee+MFPfSd4wEnNCFPHOYe9N3jwgHRhNn+IZoiDBqHtIM+WuNUQJswx0OEPYPS187xHJuJQh6E7yw/MrSI84vJc/ynNp6cxMPP07b4zyaKhEF4VUoAb6pwsIO8hCjFVGFRpECdRareWMVQTJljoiaTRAy5xjrUOmDgOOu9SXNUNDu0OmZIC4MfgXLM0Bi3WpA6hMCJ1hCKwg+hjji+YVDQ26F6Tv2GZBXYGOG4wgxBxB6KR17fIJRObvx8w+AUQzQxL0orOKqjfN0wJJEP2XN4w3FFADDyq5Kn/ahxxxltF09bExUExFEytvAummEJjRpMFfnQE3LWobQR8McMC+yVJM26S7wxOAkztS2FvI5Segx81rQ5+HIcT44ZkMHE4GSKIhDyHK2pmCbM2rbStDHonEb0k5WQIVZ4GgxtZojFOCVSHvm1MQTj1BsyhwaAp2gd8hwagLamdbCzpwGeVQBZB8ZZJFRVr96AnJ49jbYvKh0sV2l0SapKI7wJ7lHEggCBGrmPdHcSyI6auTEEDTOFwdj5AZ7HDIlbf/QGScA9MtjNjnNWwn3PYEI+k1WvFEcruDfbqtNA/lZL9EH1btU0QjFThMIpj+N2+iB8htauJaJXuYbWMc/Ncx7d/Vm9peEFAopS1Yc7HtZUaQOWUGmLMpNjWZp5icArvR8vPJWHQlp2bV3f2b+oEbp/aZ7olX+7v/h8NVwnO1Dnhl5kJMDf8fkKtkBfCtnHKXrPfYJuzEEfZvmD7tY82z8OmDyTn/Jlg6Qz+sjLijv25+FIDuPwb+NlQtHxQPbE+SpfKi9PtmJ7Fv+rfdRsvQyPUc/WZYh741+VX4Xxyo+6eaavnemdPr/y+Yh/NbA0joc7+YUyz+ffiZ9fo49r/qp4S8soYeXyKm3lc7enih/MNuRfJJCqp2k0nzu9GrZy417Ry91M8dwPhNGzHNPnddmo7F8WeZKsX9XxZJbHNu60iZvP17u0PgTRfKzPb9zd922NbnT90iQqxN0H+o0hy56vFd6PISaSGsuWnPd6oQYGKvKwahFZ0BoPTRg45JTVeK+BkUYufe2W5zdTk+LAK2jiiFVCHRgo1ZKXtabbda5NSTd/GORoq5atXGG1ZR5AP26VI2ATKmdFj1mORSpWAgwSItGyMsoJoualA6+yBNbALULF1CSsBIwhzEaWq5EdYxYNHU0r3Rclsx/6ACx0yEsZh+/VnUAOy7JSWwmDEy02EL9qOYNKmCozqNGgbwaptFldbJFgvKJtcsMU07Lpa2PBc7ZAZTM1uVsPZXF1kw1JBy7HjlAVFNAYCzOolr93gHOO9thQq/J1WxnldqYvPugNTurg0rjRu9nee4FkqGnUhqEQqz4bVdMSbDSZco2XM4AZuQPmPixX2VhFlic7Oej7pTgkOfguc05fIwp91/Km9bXc1wbYU9LzXBElRlq+BA12WOzYwVzQe2Mo5AlLmwSoEPTpYFmnKmHmvYxzcpB1lm/Fi8xih6pHxV9eEiMnqTLrHN57up1e2d8vW+Ug5Q+O96teyt+/GuBFkRw0PSekl/GG2hF4kJXlLIw95E6v2pC0LDL1YAR62t16ObikyHcfQV/Sp9VfctBcbvWjvGUAPV3eRIlvnZ5uVvTiJ3ElTtqeyyCbB4Kd2ZN7ZXkz1K8l+Xy1yAS95fObkucXv+K5T48/9k+Gvjw9P1+/OLr9nT8xwqPr50nh438=);lineShape=1;strokeColor=default;" parent="1" vertex="1">
                    <mxGeometry x="-1365.5931562400535" y="45.05052112342753" width="104.9360923109989" height="75.44338646195251" as="geometry"/>
                </mxCell>
                <mxCell id="76" value="" style="shape=stencil(lVjbUhsxDP2avGosy9dnSv+DGULJlBImhF7+vkozWmI5e6Bvye6RV5aOjmRv5Ob18e5lu4nh9XjYf9/+2t0fHzfyZRPj7vlxe9gd9ddGbjdy87A/bL8d9m/P9+f/L3cn5OnXj/3P0wq/z3a9Uegnqxj+nJ9kSunfg69n/NPu+RKfqHm8dICPFLNfP67jW6dePL4BfKEYHL4wwAsFdvhW1/G1Uxj9r8TA/6rLjes3GJ/K1GTAcyAGDhX9fhsNNMQgQoVtg4sBTlkuVMctc6MOXMpMdeREjPbkqkEq1MYvaFRjAQbRXpuBMOWwbiDVPF4MMC9EjGaLgTIRhDV2XzgpGVWuG2TiNBpo7YFNx0B9NMiRuqwbcKUw7iE3WGwsVMawlgSrTbmZR3bXQAVkulEct1ALBbAFpd5YDS2YflynHtVxA1rfGaQ5eVq0Znqwgm/j+qpnAuRRfOmoviJii4ntgu/Qn2icvMBnxFJKweM7YgTVaf0O8sumVRd4VPnKluzxAvgQfPfQeBYQz2DsWvDVMriGjx4fgK4E3216MTlewWfHH21nMJ7BxTNBFWIqE76CeKqO9gmPRIta8/4jkROS6vGIn1ovUzwF6fpUj9oOwX7Fd2PFIz7LlK9GFbQ+IZ74nGD9lqkeG9ATNm/fp4MACcpTAroNbCsE9QHqUEADyRSgDgvGdUnFM9jwsruLhEXoP7sCLpQAQf8Xz9aiLxoAmhe1IF0Da1ZCawLtGliylrZWYG68ZJsSVhpYHvlQG2zYxa9fExSs5gWoNOgPsz8/lEgZKWK2/CxDTYHzLmsFji7lRYWvp0CsxJfBTEULiWL1825ieGiS6Fmn86kgWSxeJ3SJjgbk4MOqmUHCnqawKlWQcmkQ3YCsgUZMytMXNJUFRKkEe70Y6DgCXCo6S44GWFt0Vs1uoIZ5VurncQeCz37N+8Mwy01PSSM+wOF4PuviXjCfpQNslvNZXfHobD/dBeh4BOIz3zXgo67is/cnoruJ5qfjYFJwHd99swx2GF/DO7FjU8s1vIsP494Rpu4X8bQ4G2CGzh6JUfCTO05wPJsjmuxA8cmMZVjBMyOyffCTjPvgdutDvP54v0p72D09nW/iLt/7qzd9dL62k9u/);lineShape=1;strokeColor=default;" parent="1" vertex="1">
                    <mxGeometry x="-1455.1982621454756" y="109.71091132257015" width="112.35524710225627" height="81.99346956115801" as="geometry"/>
                </mxCell>
                <mxCell id="77" value="" style="shape=stencil(lVfLctswDPwaXTEkSJHgOU3/IzNxak1dO+M4ffx9oapSSMheOTdZ5gqvXQDswsPb/ul117F7u5xP33e/hufLvgtfOubhuN+dh4s+deGxCw8vp/Pu2/n0fnyefr8+jSfHpx+nn+MXfk84H8j5EcXuz/QmErt/L75O5w/DsT7PFFNznh0JBrjcAIKQMAB4ytIA+kxeIKBvLWQmLthCbADCFDIA9CStS8WRT7cBwVFus1Q8+XAbEANJsAAGAM0JswU4UIckttAaQwRpzUKxBYgWDgQthVLfAhLkUmHypg49FRB0iVcseFDpkkiKBZQeAIRStEH/d/I6oFA2WdI0gBi8c3Od6lID9qmJ2PJbEycIoC4bQISC0DRxm9fSUwClLoGKs4ACyKQhBuNSmvvCdTLJzITKQgKF0MJaBUXKoM8o19iIOlBEgGhbn0YFBaEAk1ZH7LFLht8yM/5W0LlNq2QKKEuLhCtBRODSWLi20qNGMTVMHdSCQwpaJFwBUKVHerMNOqM+owIyoi7kQdDXNOogmcY2YNinI2Wj0azYJwiwNK5KEA4BFvpXAMHd9XMAUW4YgFAP8qozyI7FQj1Iq045M9rHRAP26RxNrYWqllcRXOblojKBuqsuA7a7ChykSv9VY0ogBp2KpgkU2DWW6VFvM2hfsmrYWpfmReTOfcxRab+/sfA56tt4NzbKlTbxxupsewlwZVCdG2/gHubtvqCaAF/Xwd1uC7itLJF9HGfQGXsrYEz9PJf9vuOy9h05493aeRSrX60IOJV6sTC836gUzyy8jwifvhltnteHj2vYy3A4TLe4+n97bdNX05UvPP4F);lineShape=1;strokeColor=default;" parent="1" vertex="1">
                    <mxGeometry x="-1464.2898639230536" y="165.2232670982495" width="27.674926713872537" height="42.57825355331579" as="geometry"/>
                </mxCell>
                <mxCell id="78" value="" style="shape=stencil(7VlJchw3EHzNXBHYlzMt/0MRIs0J06SCoizp90p4As1GYjop3nzQbRZkA7VlZaFP4ebL/cfPtydvv7w8P/19++386eX+FP44eX9+vL99Pr/g0yl8OIWbu6fn27+en74+frp8//yxr+yf/nn6tz/h+wXnTGkd5O2Pyw/WuPTfD39elj+cH3fLi8l+Wh5MzsfLXTAlTuursfF4vffGu2m9iyb6Y0BwJtoJgEc4KwDNxNlg30wQR4p5OGQzOZkijpTg0jIBojPBCUAeJm4A7Cm8mq2J8w7Y04oj5WDSvENKJgQBSKbVGdDGI64DENfZS9gzi0TKbfy9AYpxVWQeTJxTo1gZ6RJMyDMgmiQiXRIfqTQZh5JNnXOpelkOZcv+DZBlHHAAO8ehthGZI0CdvdTC8NtVQN2cuAEQB+WlwsnnrDVWByLNfm3VhCIA1tQ5XVs2XiVTGYHdWZ2aLIgy50azJgk3oeT8bHWt0uhUxvP2oRa58VqRGyBJL6U4an4DRJkbCRUZGVAUMYXBWzuA4koALHkpmKqO5E0LDJBe8uN5u5KrygbsEBng1Q6BC6KC0EXydS8lBgSVGogDeckONxxGOjMgK7eiaVYGJGU0MscvAJV8a7ZamUu9Z1X2ktoh40jkVkRG7dAWco2jyq/TDBKB6DtrXtrKZQOgyhXz1UGlO9bIio1xJAJArwgbcGLqu00LOByACqgDhNH4u1n2UhHc2jzTPZpSEtna4iiXXWcv6khQJ3M9ZCe1A9oHdUUkfBVuRQ+0c3pDYXlRor1pzkdKKFENiIEBTigsAKgpxiZ5CU3WVwYkDaCm2AHKS8349x0Jos8uRisvQc6Uxa2iA+20yK9GDoJqEdNVG0EjE3qMmlEAIOrrXUxVUOM2ipbhBW0gcqkxQDVqAJxbdlAlV0bD2QGUrgSAGgSMVpKsV5BlgJoVe43O2YfAxTdqdMm+qkuObbCjpn7RSygIyTN11PwOkEVHAYAqqNeoTm/Kpb6DivSSrQA0na11cavqWVcrzgobrhe1mi7fj8ChuIQgcZTZlaUrmlDT+cp9EcJSxTobR/rEakDiroVuHxXADzWyiYE09MSRGAiFAVXsAIHEciNpBZS4LwLghVu7jKRRLkoqwwDraYcgje7zK43Ibkj+o6sKkn3wm0rwXJdII3Bq4I2LTizjpuC6XkeRLjcPil1TZqLp46ggy9/j6FDwv8fR//84ivQmuoeXVGtPC90jcHJ+RZjI6Ciny5xGye8HLcUa22i4GxZViZYlvUFkWQEy5xJ6krzqS/x+ADuo2Q8jNZNAHUV7SMYLa6ipBkanpYCiuuB03IEwxquBIDfuQP2iWdM97+AkL+UyOGLTGlXSTL+/n6kya/ZGQyGqzJo18jYkbXqpyDvatYA6temG0uYSjVrNQHYGUq76FjhGnuRClUoAf7t5h+DGC67rAMtKwEdZD95xF3VFzlnOj+e9XsfrizgmviyvsOygoM1iqTOWN1N+DPAHyymvvZx+lncVunfaxZdy7F5GBveGZ6gLOpnOliWelZeTSy7rmcoy79pxNXOwnO70rCRdtMZlufCMY8bV6vedr6DfXI4Pr2+7784PD5eX5fv/+e04frq8WQ8ffgI=);lineShape=1;strokeColor=default;" parent="1" vertex="1">
                    <mxGeometry x="-1262.2344079916295" y="92.26369452701567" width="111.97522292349163" height="87.58909985295497" as="geometry"/>
                </mxCell>
                <mxCell id="79" value="" style="shape=stencil(lVnLchs3EPwaXqcADJ5nx/kPV1mOWFEkl6wk9t9nEBaWQO+yKd0oapoLzKOnZ/akn348fvn+cArux9vry58P/56/vj2e9LdTCOfnx4fX85t9Ounnk3769vL68Mfry9/PXy9/f//SLfunv17+6b/w84LLQVLrqOB+Xb7xSTT8/83vF8DT+XkCpCqtrACVkAnAfi+tAC+uEYAXjQugSi237WMRv14hS3bEPkhYbxClxdv2mqV5sHfEQ+qlBrSvt+1DGf4b9klCIvYqdfVPof4MXrxb7Jt4ch5fJa7nt4BFJYAkEXLIjsieENCjPkshLvVOIuRQk0p8VDGFzGmOJKk9fr2BxaCRnLOcrou9BZ3FOIlfz9OTilUZ2keVSH8/QMo1UVaUomsAkkohNZCw6JPlHPV/W/2TI08hy7C1BnKjDvIRI1C2Ox0Diuga4uokkCMFJ2k9UuVZbWWedAVszHQMqIN3NgC/tCoeqQWa1lqkQOnbT5A4Ryd5dWuL4hn5JnEeAYkcydi67AEs9fw4wAwguZd2xWOAyJ5gfJjQS42xhe6OZPRCWk4uyEfND78dAkoYdDLlkpI7lIJ3qIEeqfrRVKcCagyQkLStRDPjAHPrWg/mN0ZK5pO8slhnGXJp8zqkd3JDbBwDjCehlVukSYkaAIhMG23+LaMYUeuOxK0dAK2qSWCANHJz6lXK75DXS5siiOwOCdPbyDPzOKAmDFJJeltqgOSxDs8qrtZRwROgEPa2cikBAUz1dK4G5hMlxFezVGgPoyPdtF8PVKjOrlvqX1VtIFE2+wQtXSILQcUgRyk8Ag3tWRJZiKtDe3Ke5oZon87DStmjir9TBX4InMmfJF5mD2Vm8WJl6UfrnvKB5E8nO+iD98jRQY052pmb281djopsi1ja1VhjBF+Rfg1QCU9YjrbdExg59qan4KTMixIVFWeJjElaPvj7ebSsd54/DX1100GrPR9NLQK5gX1kJGEhDmBPSeuD9ia0Msh4qoCbjb4YLza6t7obHJXOFa0N0pkmTdZoDAA0YXMAC4EB2m50ZHOFd24Is6nj651L7DQFK8zupjVsplrY6GJxADHYdT1XLThAeioGr2PEBqgc4CXBCJmotrNaCCvfdRHNiseOBB25jvQ91thtdOAtWxPVFEVRPdqtPOGLXEcP3gCJTlNZsUtZ7NlgbrMOuLVxuWnTFEg1AzBt1+e1lcOmjL81EkLr70VFCiLG3QzZaGuz9AfeNjcxRatZCkx4ZfTrY0AY+5kpcoxorNMAtfZphm0LwqiXDeDojsrXsRacZkjWbX3EO1SlmtPvRnOrICbyCrYHqxBWonF0440DCvcRnicH6qJththIqdHz7Jj7ztrM4ea1r+WofQB7pSLbDck4rRUzKRw3FiebfRhTyXGAx6w7dyqWQVhm1v/ZWlTHCLTZhyHI3rfm9I3qr21snbo/08wmR2Gr2AdZUsVX+XEVqCwh7PlQYndKsuEuPo2x5yZJQEaMjcexfcYK46sB9digHO0eWrBl3mkF25r+al/Y+rHudhu0wFLYT6WJ7dUz9tdM3ztkqzB818LezeSI9zVOZWNpjgcvZxLxkAFwEeKpeDQAzCBWA4zUTZe5hADWvjtg9woxMpUTUWN7vrYzQAXZb37jXgJmNEDlT4BNot/I6ZZSq4oANroYAEeXNCTDMSDsvJToS6MPv/t9B8A+XF81fzs/PV3eVM//x1fT9tXltbZ+/g8=);lineShape=1;strokeColor=default;" parent="1" vertex="1">
                    <mxGeometry x="-1522.4705310761235" y="194.74660400196365" width="93.40040803041711" height="73.41038073473146" as="geometry"/>
                </mxCell>
                <mxCell id="80" value="" style="shape=stencil(lVnZchs3EPwavk4BGJzPjvMfrrIcsaJILlm5/j6DsLBLNHab5TeK6iEwd8/gop9+PH/5/nQJ7sfH+9vvT39fv348X/SXSwjX1+en9+uHfbro54t++vb2/vTb+9ufr19vf3//0pH90x9vf/Vf+Ocml6q41qWC+/f2jYqr/3/x6w3/cn29x0eJbsJHcZ7gnfg44ZNEgo9JUp3wRWIieCd1vo93ouVcQKOUMAuYSu1cINRx4U2gSiFXCkF8mgS6TYmAz1JmH4QsmQmoRJ0FmjhHBLzofCXd7HYosGm44eNQ6hBf0GtaJBB8RhNFL5V4LUqboyjaiYHh3fz7yVygJCrGr234MuL8BK+zx7KTRPQ1h+UZH0UjSRups4NzE0/0reLn+xQVT/S1gAjzAaVIJnlpIdfmE6qniewXF9c4zjwWKNLmTK5JGilFwUkBgSIlEwGzSZkFqijRwcJa57CujbvZomyO0+Zp6lv58nPgtUD9ELO0WYcWh++PIylgKrc0gvdYwIwIOpgriVlzEFdQIBHH5YSeNoFMrmTBn5crFZKeJUj1ywkk+Ip1pUWHQK5k6bKaNZITqpMInlYJLKWths0CPfiIHyz605zT9hNMaYtNyIdS6Ql24zYrXbaAPxZIUuYTchmV/Fggj5TfBHQQlGOBgmY1RsOKwIGAjnA8uxJ0Z+s9jaSoKZ2X5sbauWWwm7uDJglMhyBhtpL1fyWx1KxUzvnQOyqLpSZhTtHgJZEGbcFX5xT1DzpWwuptHSOS0KgqdVbaiFshoWENCk9QekJpg8puAp7mdMlopUbToXikkpnaqJjbZpUttIgTDK8O8IycGx7aVaQlqePn3NHRIM/wYf79QIPI8BlcLJUVYT9q9I5nrM3aAjqYs9qA5WurmMd4xS7iB+87xi+J7wfLOsMDjQy8DUasREpZs+ETlDpRfn+wf6Ks0+xTEM9q9U5i7/KF2T8stFyU3cejffKj+AfylUbVO8NHHH7ZVGR478H+bDTt+Tjnu0pm9nTLZDrmjDM8jEU22rJ482N3sMdz4vVwya/A8xfu48d24Sx+QgI8m7p+Gl+RDyVKVqwjZZi6JLMeqYNo7P2FEYmaB224a2DMAfv8c9ci2czVloj2fBA3jpmhZDk6c7VtUL/bnlDKGAdn3QQqrbpG6GCFpXEw52OBimXaCB0lpQ35WV9XkMLl3ZLJD1jpkUSjxdcuhcVRafab2lh9Kw+OjO2+NyxGfBWjyaYktiMwWgoNpPJR0/4NOhh3ZougGnBT1rViNbsu43KjJ9ioCQtIE2C7r85CoKruzj+bl6GP9yPYCJ/wCBMoJEuzEbOEAszVfZ/mFzMRHVJALtv4siZmDCYb9VgwqRVTOCHRhNCAhaPXHqJDX+OC0koJSViVDnRZ4+uyDuIU2C/7desBDxZ/ZS5+llNsKLKWU2ANwVlnxcnR5jDGChOSYMsotqoJeJ/CWcYydOVCvbwU4r7bJRZ1g1Pf7Y4DyX+H90+ZNsSNs2z4QNvbxum2ZpWlEn8ZKYfm5sa27WQXD6RNE51aMm6l1PM+hZu4fRt+bJ+AO1c7km11e87ACXx7by6DVUV3InsyKvhK5jN/f1DcYnlOzbUhSyr8wSUOwrKPIqwhxDYK2z4qMBJm9Abe7RztUNY/kgc867KGhwbFW2aqGNVukL4zfGyAZ0Vl30rueFZF01LYHbV/ahjU/OGh45fVCUn6jl9WM0zfhu/KgT4idH0hKSWyd+g6XgzuViEP/AUbULoA/el38Yd4+7A/wn+7vrzc3vDv/4+P9vbV7cFfP/8H);lineShape=1;strokeColor=default;" parent="1" vertex="1">
                    <mxGeometry x="-1214.3042953560282" y="171.35548805946894" width="106.94542287510262" height="95.57426379864341" as="geometry"/>
                </mxCell>
                <mxCell id="81" value="" style="shape=stencil(lVbLbttADPwaXYldcl88p+l/BIhTG3XtwHHa5u9DVVjXS8tT9CZLHHOHnCF3koe37dPrZuLwdj4dv29+7Z7P20m+TMy7w3Zz2p3taZLHSR5ejqfNt9Px/fC8/H59miPnpx/Hn/M//F5wuVEKM4rDx/KmUdA/L74u8fvd4Sq+JEppiGemVAFASXgAiFAr9wG1URkBSSnKfUBTCiPADhnSfYA2Uh05FyoRAJR0zKCBAiCtlSSPAKGUASBSdoBCAvrQhKI7UqMMAJVJXQalFkDjmGLwAAVVypFq9EdCgMRdCFekG+AghdLYOE2wDyY1dqQDVdAHA2Rnh0rcAKBSdFqyI4GyJvF9aBFmyNIpdkDV7tn1xkkXwgVg0gB+qOZp9oAGGmcU09jpFigiPzDlMUOzqQFIm4HUZci9M6uAGEIv+wWB1Tf7pY3aYBIwmMzCzek7QxI2VaLTt9FCo8/07QBKGXAo2Vvuqg7rasoUbsYAYp2s7tWTKAAgjVh9mQKy0I0jbBrCMSC9ilcABaQ59wVy2RDGATgiVspjhmzjEwEClbFKNquQI4rX93xGQMH8NdbIMlbQhVs39NG5fn6/fgoxOH2i6lY0MdjQpjBHFnvZ9DJWP8Ja2ucytjf0O8d6vN0wsotHnpEblwVI1/aaqItXUPzUbuvDQGy2EZycBS/m4ruboV3+907473h7+HsBfdnt98v99fq7v7Daq+WyK4+f);lineShape=1;strokeColor=default;" parent="1" vertex="1">
                    <mxGeometry x="-1333.0142560850413" y="68.14194893443153" width="7.48593147086126" height="23.358901278507005" as="geometry"/>
                </mxCell>
                <mxCell id="82" value="" style="shape=stencil(lVfZctswDPwavWJ4gNdzmv5HZuLUnrpxxnF6/H3X1dAxKHnTvMkWVySw2AU4xbvX7cPLZgru9XQ8fN/82j2etlP8MoWwe95ujrsTnqZ4P8W7p8Nx8+14eHt+nH+/PJxXnp9+HH6ev/B7xiWpegYF92f+IxdJ+d8/X+f1+93z1XpfJQ0AL63dBkQAggGkKLncBiQnyRmANvGVAIIEbwAxS44E4KU2AwgqnsRQvDh7JK9SlABUUrU7tL7nOqCIszFo7oleBdQo0QJS61SuAlqVGg0An/CeMO3cGHXN0hzZovW0d0BzUhmgSMkWoKIMsMgrPhEDAThRW644ZEgkr0lKslS/52EdgeII4xZK6rXkXjtXQRSiuQKuhzQleiTUaxiI8F1U6wBorliqC5UQdlCbJlRTYQV+eX0BOIksSyDWxlB4lsBDsYpAogMjLovatBa4IXEmJNG1cYdKJASavC2NUrmC6ghAVI2pukmxgkABZ3akJm3YoXWDvnWkwfBblEB4QNCjqHMX4a20Nusz2LOQ4kNtxoWombvWMJb3GcD0UEemcSRlEtWFRHO3hVsCGohrgQb9aUDWsUNAcYFkKaGYbQwZhk6yhE6d7ZHwiUw0raUb46XLwUeI4lSl2SMFaJDwkBadGk2OhIAIo/WxD8zeiR/aQ6LyKRCo1Vuo3FnRpy1Ag0TmrDrWKliILGYdJ4GMGIhngLZmgz43GKJohNgGK659RlufNXJn6aqdsNLzl9cXAMqdVJJ3YyUBwHiofa74zw3SyniV2Fws2XoYTCqSwcT31nSl5kJS6sbvg4JCtLkY9tDbMlHacr3SqWd5ntAt81a81iowoyjhC/m0NZorHUg+e/H5eD0e3m9ZT7v9fr6kXb8fb2X4a77Rxfu/);lineShape=1;strokeColor=default;" parent="1" vertex="1">
                    <mxGeometry x="-1329.6530793860306" y="61.321762584324574" width="19.723102077476597" height="24.066293568518063" as="geometry"/>
                </mxCell>
                <mxCell id="83" value="" style="shape=stencil(7VnLbhxHDPyavRL9fpwd5z8MWI4WUSRDlpP4712dRY+GbE2NAwTIxbfViJxuksXiYy7x3Zf7D5/vLsF9eXl++v3ur+vHl/tL/OUSwvXx/u75+oJfl/j+Et99enq+++356evjx9vfnz8MyfHrj6c/xxv+vuk18XEoBfft9iB0qeWfJ7/e5B+uj0reZSWfvLRM5YuSz0FKYPLeK/kSJCUmH/V9apJE3t/FdSXf0jzxTXn8t1n52Jh8jfY+nb9f+6dkyeT+UZz2Ty4SiTzepu1NUQrxp/dStAERgHBEAR5NWgE3IggKdQJgU3ASiEtjEO80RrOUThSidA0KX6fbjhSSNhpuCCwKUNBhaNKIVyFftQmFRzlJMGGTyCzO4nUQgmTm0iJB38fPB2/LV0la3lHUxTYD9Crv2Pu79GbkA2GV5Nf7O4K5FCbCXv3D/IkkMWmJPGX3QXz1++FggoeULM01yfz9sWp7+8T4kcFdK4wkq1QhrUTBTzDMCCYqjOnCQu1F+knQdBo32BCJQrVRqI3CDjc21a908QQXuLGv1uhE3FqzuLa4lZzQvGSN7MEdTCFL024F9jyr4F2KxrZHHIiXcIKpsaMKsZrsZ4ncbPDTb297qcyavSk0Cj4AoWgvpULLbKsTalvgImX4jsKpoTEiTYzu1WIpV4nkSr1JMgmEUkq81Lsk0ysALOxK3Rpd0BwRtw4Fkw91wvFIwfBSdfPJkdHR9EeB9psdcdWV7azBy8sJmYKvIyGrPYFxaw+22NbIbXAzvzYFL5UFzk0g7HmJpWif79txK2tr2wqNOJnq6ErFVDhEmtmwzQUbvNtZHOKScY2BL9mmIfPOs28FaqfQGZaajQNsSDwffLdeYkQGBeMlxIGlqHdbJ7ULdSIFAkcYqwEmygJNqmZj5KgjdRfUl5aEYJUdOdpMoc78hDTJep/U/6UCxjozqILJmFtRs8xUAnJ1rHfoS0VBUWIKyfJ96jRHAZ2m0Ye+vZJIg91Nm4s+lCkMstYnhK0NPPKSbVwLrbujxdNoRYbwuBmbMy/TbulNJhaPOCMYA/yM4xG2TdQwO7BZZiV7TH+0Rcx2Wh2tNfFp7W8sYTKpDtVZo8ExmUF18WrjA1n2tmtFVWV7CUxMTif0jgmPZlDTeo9uha8NDI01ZAOpWFCI+k4DvSQQ44TFr6wArYsJVCw2KELBDCiYNxiNxSBN2zAWgGx18HNX8nNX8r/vSri84SLv5tL6UMFM0IH2kfBQNivPMLemR5AIWiF5OldhXrbbmEJnklCW+dZRPgUITN7nRGuCX1ZQJ82zTzNtd31nI0DyC8W3QFcfPtgTUETYXFXsqnq0uiRu3iIPQw3r5p19f4t0XFha+ZPZ1lkYnXwccZYZTz6+gKjMVoV/3HG2yT75eLRNjLt2k7X9y8yJCDIq8st9+CTv7boj8F1bmO3Ajig6Kx22ko1Sw4hlousH5fMsXD94n2XNdmLvstI68We1m5STeDX7MesED//+Y+WZPH68fhn9dH14uH1Y3f/ffknFo9tX2Pj+Ow==);lineShape=1;strokeColor=default;" parent="1" vertex="1">
                    <mxGeometry x="-1503.9340783163545" y="213.16075413658666" width="54.55371087863864" height="29.736402184101735" as="geometry"/>
                </mxCell>
                <mxCell id="84" value="" style="shape=stencil(7VrLchtHDPwaXlHzfpxt5z9cZTliWZZcsvL6+/SEmfUCQ/ZGl5QPutEye2fwaKCB5Sm++37/8dvdKbjvL89PX+7+OH96uT/F96cQzo/3d8/nF3w6xQ+n+O7z0/Pdr89Pvz1+uvz728fxzfHp69Pv4wl/XnDeifcDFdxf//6lSq///OWXC+Dh/LgHBEkaEIqUTgBJslOAWKQnAiiSiwKkKtUTQJOqT8iNXik4SUkBSpPoCCCICwpQyzzzOiBK0Da0KCUTQBKnbWidXylJ1Sf0LJ6f0LIFUBtwQtSAQuMAQOgaUKWQXIKXTKR7k8xOCJKbBnQJDOBttgJAjV74AADlA5KvagI5N2N5HVElleVOjEFFQraAyBiUJQTr1wOOJgOo0hoBROnGTQekjjN1dtl3AOg6+1qSztwKGzSgwEvc6GbKhqPZB7c6HbjoeG5kGzhkiyMcxZW6jgPqc2UnJCm6ksHPxKuDovr7PFdDszUg07yI3j4fyZvIARGVVTMalG3EYgCaAXTJxOQY5wV2/adwG4zNKU6rrjupW6MT2gk5AV41mZc6r91go84LpCrtDsU23ey5DcnSDYDOKmsUr+OQgwRmtJdYLSAGkttdirMAx0rGplx2NiRGN3ipWrdmVvayJN3hELjEAEuNQWoEZjTUko50KpQPowLoOKQ8H3GzKBl5leiVRpfWVzoQcOBD1FcCB1shjGvLCU5KvA2AE7u2AZRypNbnPiv7TrUyAqF32Lq0+e0qoDnb4EApVvm6l9ztCZEwDi25L+2HXWknRDYEJB8hxOj6mhAofYnkRqviFsplYnXtS9OFX0moq7e5gVgmkn0liNdXKolyNMeZa5u430Tg9exDnAyAK+mIZNK5gWzJrN77WRk3QKWB8wvlAAhM/GzP2wCF9qxRK80JmDdYnSmL0XwEGgBNiBaOTmiLW6nMbVbc184VH7JVd/ba+PjgbaMGILJIRzuVAZDY7JptnYENLFuhHcLiJSo24CUTB8+v1KYA20X6QFUawdQS7VmwIRobuA4dMtXM3+hZB/P3wrjCR1E7sNdZ2m5NlpYPlboV2RoWilbOh754KTPtUMQvMxZLDWiHvlC08CsZHYpc8lzDFUOgTrUDKBpMMW5ziLpFUb8y7lVKd3Ca8eG1APTxbGyAJGNDULVGQ6944iW0LK/5UKJEAkBT7EbeY2oiADzPVG9oaday0GRNLkHpOmI0Mqfq1Ei8T4+ypZVATPxK3vaHmKlboTWqtgHS2DMdGudCbAOg2pKqgcC5bI1mXXQ8zwyjkS6L/p9hVLv1bRh9G0anDVeGUTIO+GLlTwp8F9qvrX+YDX1u0HYLpsau1JfJL/Cl3aKXfDgS6waQ6SoU/CmmaMwGc4s+RWfSwdoxbM3jPy42xw5B3+hgdTp0sakZjkvEtIx9fP07nKQBBwvmtxcoE/D2AuXaywcD+AleoJhFeY90NTOutBCCaUS/CYtNtlZe7YOdN4ZsZaXV2RaXefbVyeBdh2OZscR5yCdGOMu3wDuom+Juy+1OPbQs7MCOQux1Esz3K3234Wx/HjsUFgDL/h9Lmhv+MbIKTGI5F6dg2X2fyuGlUSU67OXlfVqia4C6xCvT8ths08H3WcHu9g0i/El3vnbkQXyZ/1//c45jAD78+PXI5/PDw+XHJ/v/t782wZ8uv1SJH/4G);lineShape=1;strokeColor=default;" parent="1" vertex="1">
                    <mxGeometry x="-1174.286708349778" y="203.23911344456963" width="35.20732211426366" height="46.784334836239964" as="geometry"/>
                </mxCell>
                <mxCell id="85" value="" style="shape=stencil(fZbdcgIhDIWfZm8zQAg/17Z9j85U606tdqz9e/tmZ0c0uJ47xP0I5JwEBl59bp8/1kNwn6fj4W39M76ctgM/DCGM++36OJ50NPDjwKvN4bh+PR6+9i/z74/n6ctp9H74nlb4nbmSKZeJCu5vngmZ6jzzNAO7cX8FVKEsBuBKrgKg9oAE8gkCbLeUhEoEQKSUDZDLeWYRKIl8MEDRmHwfyBrBG6Amyu4+kDxxMoB3jhwgYu7TVAsVkFcWCs4CTBEoF4RctKeOxHIf8IXYpikHikAIf+MNUW94AGSSaoAoFIE3AlOyeWU+p2E5S9yfQZcQILVuQOwZdJNoS9Ls3wA5u2XZTIHECqeJ9kDpSaauRiNVcAY1QhdBzeLBli5WazpkSsBLV25uRaqWRyFawTQzRRIQYirJzq5atkBqLfouwqUxLBepthWb10vrWZY6UOAeyKCCtDV625mm9gmUC4Wc3VLJMMIE1BsA2FW9JraVlQB7n3c9oMKhCLEvIM1zBPZ25/umNQ1tVEC2G+fFCC8g398O2hNQuQlVu752DBfA+q0ptnqO5JFmeuIuo9DY7KjY71UxdJV4EntifPWorW++R/dC4t7V3DlIB5cHx2bc7eb3yvX//QNFp+bHDT/+Aw==);lineShape=1;strokeColor=default;" parent="1" vertex="1">
                    <mxGeometry x="-1195.454976169243" y="253.21904719973008" width="4.672539772115442" height="4.665236216357698" as="geometry"/>
                </mxCell>
                <mxCell id="86" value="" style="shape=stencil(rVbLctswDPwaXTEkQRLgOU3/IzNxak1dO+O4bfL3haqRbDDW9tKbTGOJ1y6IgR/e9k+vuyGFt8v59H33e3y+7Af+MqQ0Hve783ixr4EfB354OZ13386nn8fn+ffr02Q5ff04/ZpueJ9xsVJsEyqFj/kkUCp/D77O9ofxeGPPQs3bN+K2bV8Therso52EbYBmqh0gUqsA0Kj4iGImBik07lNIkSIIqQnl6AAcqSBAo6wOkDNlkIMBupCKUmUAUFLvQRIVBKiUPGAqNGhcS5SLbzSTZtAHIQ0e0CiAkDTdAUjcBshn7hXSBAAWsfikhQRQQ0IPkAq5VI39nhpGeAVJT4DsqaFUFIbUfEhcKKIqZQrJ05thSKIUvYdYqAEPyouCbzQdAZf0U+OiXYEkmqj6HKJSRoqrvUSTYHrrMlTWspoGQUgxhD7rwosIN6cAe24oFITNGfYe1JoP+H1V5CqISAkN19aXyXwK6pzNrY4b1zr8J0QNxNIHhXrHlrYfTZZXRL1LC9tWWTfYOiXpxoAsOr9rX5Yi3k5jcD/3ja4Fk4+y73MRKGmrqJePDZkqyL6jtokhgHzD8vytaluJtRF/Vx+7IYP4uX8ZrIMFbRnLcFjriTeA5TFew6EAqmPOpd+REKHv7lTg9f/3DmYf1wXuZTwc5v3v9v9+4bOjeVnkxz8=);lineShape=1;strokeColor=default;" parent="1" vertex="1">
                    <mxGeometry x="-1153.7509134426468" y="172.42441121253103" width="14.8357434834395" height="5.206274366739422" as="geometry"/>
                </mxCell>
                <mxCell id="87" value="" style="shape=stencil(lVjbUhsxDP2avGpsyRf5mbb/wQyhZEoJE+jt76tt6k0sJwd4S3aPbEs6R5J3IzcvD7fP2w2Hl9fD/tv21+7u9WEjnzbMu6eH7WH3ar828nkjN/f7w/brYf/j6e74//l2QS6/vu9/Liv8Pto1pcyLFYc/xydCSf89+HLEP+6ezvGFanZ4ZYBPVGTAJ+IM8EypOnwD62ujqAO+UCgAXyg1h28Iz337jq+k6Tq+KrUxPo1CA3jpy3V8jMTAoCjFcYOYKAVgwCRjBqL2GF80yJnaGKKFE2CH1KiNO7Big9RdXEkk3auLBqLEIyvsSUEG3Fm80ihRBnm2tPJokAM2YKqj09mkAQxiI44j8yKkUixUymhQKIKwGhFCGLkaSAUYRO90zVSA+rV72PEaurwvc49kPJBmEkDuRHUMkdqOgKrii1GLJBDPo9iawPNI1+6Kx9Ul+AQs5RXQ1PDV4wM4f/C6aZUKoFDob8/wghhEQT0eVa/YJXKOB3xgCtN5IsSnaX2UX9PkFJ8K12/q4x8B/40P0eMLKhKk7jztDX8Le3yGeM/nhgVPVT2+wfw6vsWwUvwK4XRyQKEAkkwOQwG45rcEFOLnhP0vMdfw4vEMAmqCdIKvPcRX8Dl6POqUwXfWRTAgnrGv9k5BxomgtZeAK4ST6TwMBVnmggX85clfK4hg/JP+9rzggvU/ig+94a74TArxviExbJBzAQ1w/GYvYLVxFBSg5Auork+uNGw/7TaqIP7NT+s19Yxf9pencb3hISiRjjuUTAEpoE4DvnVBRNHoNW8DcAZH4uznMhuAI5oiJhUngW1Vik+zVDgXJPa3CImQR0k9MSz1KEo5dZ2sBhHOxxZ1HXeweRZSr/jesZAF1Opq0nLTIuRerX6DAtfX6KmXSNBVMfflTldjdNU16dZxfe43hMtaixRdgOB1YJltx5RZ9wHxsdnWNVfrbsBfK+UtOTyq1VZqpXg8Or96FQTYm06jwDvP3zylAxy2DF/9+RVIpk3X4gj5cDZbnQyQJpcNPIFQWTkNhyc8an6GdwJjOMwZ3hEO3+otwS5AAgX24W9Vb+Ltx+nD2P3u8fH4Xe38vf+QZo+OH+Hk818=);lineShape=1;strokeColor=default;" parent="1" vertex="1">
                    <mxGeometry x="-1317.653677823207" y="247.36167685707517" width="121.48365006729591" height="122.79833272160715" as="geometry"/>
                </mxCell>
                <mxCell id="88" value="" style="shape=stencil(lVjZbuMwDPyavBKSKInSc7f7HwWaboLNNkWa7vH3S8NwEtL2BHnLwTHFa4byhp8+dy8f200Kn+fT8ef2z/71vNvwt01K+/fd9rQ/66cNP2/46e142v44Hb/eX8fvHy+D5fDp1/H38IS/I65QSAMohX/jD4lk/OH7aH7Yvxvz1ox5jBTjun2l3u3jA9W6bt+o2OdzJJF1+xgoiAHkCB3oeZMDdBIESB5QCnV0JKZYDKCmKWvLgEzRepBACQG0aNUCMtUCAHUq0gRo6gEFLRRsHZoGnSGg2UL3ABspdco2S61R5HWA1jVkC2AKoPVKpWQBUqkBgGZdbNByqf1ysybqbCvdiUHQXZ8XLECoAg9d/7ZprRV2a2/E1QNQ0ApwE6pHQnXonUqcxdAhoLkjNcrAQww61MHnFRVCXbhCaC0jKkSnmj2gBwjwMxqpIA/KZDNAR3mV6QA33RdQqWXW3+oBHanOgr4TQ10gpoZKXTwLDHVA3acAKz9DpVHQF+69bSYcAzsP2q6AXBXQ2APgQAjlR0cuZg9AIqcAmc1owN3KxQMyCvqigTdpjXcmrnlAxx584ZQXgKLMjyR4dZgHre3NyEOb8X2c2nG1cI5mdESB7j4OSAsSVEEvqQaK85ApI5HTEF2WhAo4UhESy0sqe0jkcvLdqsqOmE9XvOR2hwxFTnfU4gB9Gqm1/cdR5Y3GrK2J3dLGoN1ItDQIt89oXqHKeWJqcZLi5d7wWdJ1huEq7ddQmYR4zd7xHhODAMQvDrpwIQkVYrs3lAD3BhUfO//aWGj+te/tefjSiMtdRNXGm/TmgFqCorv66CyD/AR/s2IY7mznSVDMg69WmtK1Ys42OZEyoPfZJqy6j648/ooUIAfFifiv5mhZS5S9ORpd9veEyxVxxbwmZw7ZzeddUwWYJ0/ces07g7NnT84RXjUfvrzfMdcP1/cEb/vDYXzNcPu/f6+gP43vJPj5Pw==);lineShape=1;strokeColor=default;" parent="1" vertex="1">
                    <mxGeometry x="-1335.940102897767" y="331.88706848153095" width="70.84561548289184" height="55.84385852874561" as="geometry"/>
                </mxCell>
                <mxCell id="89" value="" style="shape=stencil(7VrLcls3DP0abTEgCYLkOkn/IzNxak1dO+O4efx9wWp4fQleHVe7LLJTZB4RbxyAOaV3X+8/frk7Rf768vz0193386eX+1N6f4rx/Hh/93x+sU+n9OGU3n1+er778/npn8dPl39/+dhP9k9/P33rv/Djggsk2kGRf16+YAry3xd/XI4/nB93xxPlOB0PlPL140p1/vVEzNePh0A6nxdqAZwv1NJ0vlAA5/vP8XS+UU5A20AxzOqGodExQKmVGSCk8TpAIrEDVKrAAaKUZQKYTWu7DshMebapKS1AhywU8uy0TBEBCslsVbGoAGZVE8kBKgVwgyaKbQJkEwmYVTOV+QaNFCsAlPF7G6BQAaGkJrELPVMaxLYByuzpkqgBT2vzSheFnjZAm3Uo5mmgdDE/zOFdI9TBAGWOpZopILM20tkP1cyKCoYSVw8Q5IfNiDuRagEAq3izlaolEIjWXEcwb4DtJ44B2dfU7gegdI5eh1KJkUiLH3poAMdJG27aAHlUqmNAGYGwAzAIPgMEWQC4kLneUIQqsJIBNHpABsFnABEPQIXMAMkBcG3tgOgBGZV7A1QPQP22l3t3Q8SeVirJAzIGtOYB8bbQiLDrGkAXkWBoWFvXBYAcV0dx34sEQiOHURj3oYG6qAXz3BRLIUYdiEnmcm9VI6EepyO/NoDCjCsLdWt2JwKo5xpNoOOsCjk205QCuMFUDE6kMjLkGGCNXfwNERQBK+6uoZjSDZi1Gp1y5T5CK7Xo2YwZGjGylinNXVRxPphN4nxD7xhIpDpssgECtJIB0uw46xgNA/ICKMBxbTHrK888BrRhkz0AWalRajfeoHnRAd9QFwC0UvP50P0AQiMwj3lnh8iguPYrxANQCzJAcWaKkEsbwLs6jqZ01RHsAaijGIDjAsDBVMQDBPCfHq6LSG8lRPRmbW+kXPIARVY6AqDR+FAkxgBZEqJgHRwVMIC+4bibc5QXAHLcGnw8svb/hjfDCfwwgRDDOs5RNCAfloGCM+hGQPV7jWyNF2VQ8a3delBBdUZ8DzLGBGODR/jvxqYEbrC5zQ2XDbO+KsMmG6COTcQxIPpJbufLYwQPZrtd0QblP2ZAxZNjszSam4xGekCG9dtGapdCZiZEmVR81zKKg5hoboOz7TwnQIeclhFi68XXxlFPjhVW19/D4gD8HhZ//WHRALKIBBeifOBpATrkcBDeaOtlKeo6iiWQohS10HCOK7C4WtVwG9Q+DaLNXfJt1KZBRos4k3jZPiI+0zeybvsocBw1gNuV980dWrmaTZxZG9aheKrbzYpW3+pfILqnUbnXZZkY4LpSlwlZK1xtqPjJzLgD6nEaFl6psO1mi5w546TBnLZ52JE4wU3R6H9xbxYKty0mgKPriWECyTLlx4wrXxgqbgCGnjaJHTkJCqO1SzyHRkiQ9EXxDSUEuHgIxQMaLN5h0VlxzfDL/jy+OJbfD0AJTonLK1OEuczewWE8p1w57l7JAlw2LBQpQA62zCTbS+S147PsDJ+W2E8LOPbZPx4wfM7gMfe+Hkfdkn2RZhhj7J/RGLLf4A2JJ4Tg95EMC9WNr+dvHrcPrw/1n88PD5d3/v3f/cO+fXX5TwHpw78=);lineShape=1;strokeColor=default;" parent="1" vertex="1">
                    <mxGeometry x="-1113.0959719934667" y="228.06493290676076" width="147.45007507796618" height="130.54358668781197" as="geometry"/>
                </mxCell>
                <mxCell id="90" value="" style="shape=stencil(7VrLbhw3EPyavTbI5vvsOP9hwHK0iCIZsvL6+zSz4GhYnKmFgxx9W41Yw2Y/q5tzCR++PX76+nBR9+3t9eXXhz+vn98eL+Gni+r1+fHh9fpmvy7h4yV8+PLy+vDL68vvz59vf3/91Ff2X7+9/NHf8NcNF6T6DlL39+2BqpT475Ofb+ufrs+79UmKm9YHleDP1xeJZVofvTh3vr5JjdP6pKL1fL23f88C5SCuEUAUP+9QvAQlADtymgFZaiaAIiFPgOpFEwFUqToDkrhCAE0a7FAlhnOAOqmzlpodmphBvZQ2A5J4olZzG18RUInhDBBApCyReJ4BFEQq4ojrdZEiAhIxnB26zs7aqjgOiA0BkR3anF8RUJkd3MEOjbm3uUaYAU0cUasBQl12YO5dh/fvACxlGCD6RUvk0AZwc8SZ4ahIZXFvyzss4sqi1jiEPAN4UKsfUX4MyChSzdLYobPokjWoWpPkWaSel9iho9T50CVw1wiicwDlNtRwDHCSAZCkEZHMleYjWPJmEVpG7djWW2YlZouic7ilIoWlDHx/iiNgD9e7Ee1bdWvUBA7fHyMtJQ71E514In/ABBYCL1UOnU6zOGbhJmUGWLAGcuLgxc8ieT8owbHJdHjAZmNanpOXBGceOx6v31L6JpBE8v5s8sw+7SQRDZnHFw/rWZAZ+/AN15M8USIG5eYkx+ut5s3vtwOREmVZJ8zrEy04narMMdCdiijUqEoGj0jDC48poQ5Ct53A8gwRyXJ5m8PezpCIDaxagA2Mhxai1F7x5h0s0DLboUmevSIUyna8W3OFH5uebjHLFI2IMpnMEHMkpMD1WkQhXTvKtY0CQn7MeXjLMSBgwiuOFhDzDcjwFh+VHdpJmUUqlYrU3XWON4sQCsiY8WoYTdMxICC3sFcoUatJDE2YCcnKTs8ZC3vxREtW56FtM8uwwpOjFADEEebHAI9p2JyFcbx0xPFYojRnjgCogzEdA9zgEjvqnFipiiO+3lMfT97R6I3DLSqvhiUiIBI1GcAnPDWrDz2rLPyfFSwD5IqGYBXXANgwZDoziGtrmCgtNEADLVkJIDFqdigBAZlEkJk6LQ1DZpZOS9MTuR0sbSgemmopD4l3amX9sAGwNcz3REIAp89dpKWBZoW3Hxpcow16c6rWhADWJZnh8tIP33ONugDYDjretwNkUqi7eysC2JihB9ASotQ1/Kjj+36Y74DpOw+HP00zi7cWDgBa3AdKLOLCkHgXQIyT9WzsEEDP8N2AtgwBIs1L1pu0JWuwwV7KSDaM4LD5UGo4OrTK3ljdDdjONN4/5IK5tTYJrOHQ0RBugDJaimNAxtzaewrWcjis7JVrqTMs2MHRyt4lXma+bF5aK05kS6AA0zpUUeNcLIDaolbrND1rm8KYN230vtGRVduGzrt+QNkZEnZBsdD5UKd4cxKwtMDGDW29bqh0lN6TyqzWECmt7AE5Gy542pi1ZUak5izMlxrWOFVaRc37wTV8ocTVvB8M58NIz2cNBOZWOv0sCWcCmZJ7a9oSzMXoJc57V/g+w2GxYEnMg1vQEp0qTj4tbxMvSorUKtNO2mpVg/JJZ0Qh4IDbx2Hz47mkDq/ffMiPTuJsdAu9vfIWsQ4f3jTK27GMA/TIu+KMJ+7EjDWUeIcW653JMHAqq72FnheGJenOBYAf/e9ulNxIjPmlJ8lu3LScXQBA52ZNdWU71KUiNH7P2DA5Wq1m43MDAPG0Msgqgi5VrfoRqscAv9T+zG8yl1x3h7/8uJgcgB8Xkyvg/7iYZBf1/+Fi0i8dAyslljVAS8Y3WMvtE96v9GkjvzZEPq+0AeiZbz50KdwOyxWI5SXm3g0nrEYImLNm5KlJ+QwAx6W9P2Y5BhNAL/D0Wg8ZYaB8xGGzrfwbF7dcZyglkA6LrfK64LB49gRFDOyQHvW0zxwCyUh/QtfjR0yeTpF0ufXkH+godiFdHuI/Ybmw8nRYGMYN5G494xYrueMfYX3vR17319uP9y/Kvlyfnm4fpO3/j1+g2aPb12vh4z8=);lineShape=1;strokeColor=default;" parent="1" vertex="1">
                    <mxGeometry x="-1365.0591206731947" y="384.7436618750729" width="87.50071633740458" height="85.4058333111833" as="geometry"/>
                </mxCell>
                <mxCell id="91" value="" style="shape=stencil(lVlJbhwxDHzNXAlJ1HrO8g8DceJBHDtwnO33KWWgSZPtLiO3WciWRFaRRfVJ33y7u/l6e0rh2/PT4+fbn+cPz3cnfXtK6fxwd/t0fsank7476ZuPj0+3n54evz98uHz/ejMt56cvjz/mE35d/EaXrtMrhd+XX7Kk+PeH9xf7+/PD1r5Iqca+SCrEPkocxr5Kq8f2vazll/2QQOxbEw3GPiap6dihDon2wBE7Yg5RcjYOKUgfxw4FEezWocggMc1dqj2zImrMQaXZFbRK6ccOOqTarOUkSg49n2cPnRHoRhyyROtQkkS2QpTmHJpUElYAwYW1ZglkBSCtJ+PQAs00oO/yMNFFwJdU1GKppwWWlx2SFOdQKd3ikNIsHaLUQByq5GJX6JSgMUtzDggrc0jSm49SINCIQYYFX8WWSJS6DEvpiQxijzxbYGQEgWwIJcbiAmjvJAkqw0YIUGRsSx53WLGQnKlUC4rJDQI7sN/GR9t6wsvlQqLdP+pHJfsvnsoZNZPEsy6SXPOVpZN8XXl+xUNY9ezlHuIrdm10PwCcI00DUUlpAaSDI/4QJSeI6rsgSFMYj7PHKGiZmUPxJBgcFHHXREaiqABMq41SH7x4td0Z8morL+M0rba3CSs7NHjYbKZbkUyYgy4WbR4ahxIcavcOlWAJVHH6BQ6sWExuWfa0qwQ6chjDO7BM57zbUqL1Dg7JbUlpAZ4rRO8w+Bm6WyHTkg2HvMs0kwtInCvCcGCchsN+BQa+HGXst8RWiIvym0M3dujotS0c6KHj0r7bQsbgHVcn3kCj8kN7aEQqbuehm3dInHHBFrJJIIbWtJrllqJsBV0ycFsEOPj8Cogbd3CVDw6FaKS8U8PIQ2KZ3lMUgGeHzqsFbqDxyqHHjqKs3M8ode9At6QLzFuKMl3yvw6Knum2NFbnPppK3JDRdWXmaMhodkvo00zLQFy5QWkgM0wchvX31aGLMr1d19/XgTWExakjdeLANCqt9zGulnZ1CGtQOVJYrslhjmGNGmly0iHQkbh5STyxR0cALxH7GmsOJHGxMa2Jj7deZ5TKFaV0+/wSaIsOfggDv5XEJ/j9YARguif4IowRgzEtrDazGWGYJkl+//NEBA8YiKyESXyWr1IsLTEkFjpiuIKtfP/D4y0Xej8CxrgbmAkIxpjsR4xaqXgG7aNrUnlJoKMBwFXTHqm6iLtLoannSdJmTp0Db+WAhTrBU/gdz66agsedVdO6WtKGyOwyApnOjsmQhWRLGGKcusA0zKQteo4bb8Hlzsb/5u9H5nUdE23QEs5BuUPb3Ug2Wn6L+iaFVGaCVkzwrqDGRq+d5hWQ1S+RC55WV5qu4KOXecBytguAPgQY6Hju+Tgxef4oHhdcdM4u7+0DKRiwd+M5b/pj+AIDe4Jr2O/2wzoO7F3JDvSeHfbdXczz8w6vTyO9NNuIoH8JeyVArlQkemUzD2AToK893/Feqb6GvbupVVomYO96fqZvRv77zc6r9vjw7zXSx/P9/eUt1PZ//9oJP11eWem7Pw==);lineShape=1;strokeColor=default;" parent="1" vertex="1">
                    <mxGeometry x="-1441.425342301423" y="465.5575147292054" width="102.05605355463695" height="68.50752175948946" as="geometry"/>
                </mxCell>
                <mxCell id="92" value="" style="shape=stencil(7VnLUhtBDPwaX1XSaJ5nQv6DKkxwhWDKQB5/HzmusXe0u+3ilgM3s7RmZ/RotWY3evP6ePey3QR+fTvsv29/7e7fHjf6ZRPC7vlxe9i92a+N3m705mF/2H477N+f709/v9wdkcdfP/Y/jyv8PtlFquVoFPjP6QFTkX8Pvp7gT7vnCVwS1TDghSmGdYOQKNTRoFLkdQOt1MYdqRCDLaVAeXxDTPANORGPBpkpgDeUSDoeuiglYFBtvTgYVKVSgYH2DXSDxsQNGFjceDRQahEYBJLRra1RTeDQmaS5SNuesF+zjq/IFMEhklDN/tQCDNTWS6Nf7VggEEF7Np8jF+EbJFIbT50LNV03aD75siULcJKt7/BCCjIjUhpTz3K1ZYR3iWT4CNd3tZDalfUleHwE/jFvjJWQrL4BX0QfMMNHsB+jF/V4BudNPuVSoQoyKFMqHp9R2fToT/GIKojV4xEBVyqz9ZE/G4Xm/RPA/kVnBcCd8ldLbPRQzqQgI6yIy5gSxqZcQMgs48czF6MuEOM8q/qae9ouB21GRNXqGtCEkaNrUk0ogDSt4vusMbgAL9XiEyPXvsnlQEuP67kN1v7OZYNIeXSrJS+jVEq+hYhce0MZySX0rrWGrx6PctU2FJwYoYLxJTu8Iry1m+jwqNu0QoEdnlHvKJ1qJ+sjfPUNVqDQsQ4vyeER1xk+Zud/xfikDg/zoXV3n6UdRbR+7ZLmgofrV99sYk+QNf/n4PBIy1o+1OTxQHMZXsTvB/CW5Wds7ryoFxvecQSWpW0mGkNXI6v44PCo17eZsBZqaD+Jks//iOKb5/UlGN98/l+pR9c3BDYmy7fo+SeArmH5z37/GcW3dWl48b+gfFuox4zi+0H8ZACYdACYoa0n5KTHQMqyEI89JjbMEeaSMYdy6/piubHOWne1tgCq3lq3jKxidYHGGhsxnCK6FNKyXmmet+xU6Ax5pohMrwhS7bV39slAyqD1qfrSLFjVhdnIeyUOwj7SNjklOKl8Tk6fk9OkLv+/yUldQgs8wPEibGxPOZECYjnqc3ebgQWgzgjeJid4lzZTCEaX6OLKhhJ2XBdgFdsGylgGF1WybFC9CGm465fkVaMRPGrjhbvqPnspQZ1gcXVsak+QkDL6dYeOpSfLcuCSV45GyAF46aicnHRnGDhr3G42kwCbFPvZQzvhr8Adu9vqwKUmLGaTB9j9XIdAoWkB9nDEvEw6bob7ncgKvCQHh2XvPcNwyJpdTZwPs5wIXnDhO1v1Iz3DKwDtjD/ZDKDE2OlsclTYUT/0LeIq3H5cPns87J6eTl9Npv/3n0ns0ekTi97+BQ==);lineShape=1;strokeColor=default;" parent="1" vertex="1">
                    <mxGeometry x="-1319.8319471910127" y="466.33943229892907" width="54.91174362367974" height="76.1902560738522" as="geometry"/>
                </mxCell>
                <mxCell id="93" value="" style="shape=stencil(7VnJclQxDPyauaq82zqz/EeqCGSKkFAhbH+PzJQfz+28Djlx4TaZuMey1GpJ9im++nJz9fn6FNyXx4f7j9ffz+8eb07x9SmE893N9cP50T6d4ptTfPX+/uH6w8P917t3l78/X/WV/dOn+2/9F35ccF6C76Dgfl6+cOLC7y/eXpbfnu92y6vEMC0P4slyn6XN67PUdLzeft+nab33EusxIOr4vQ3QxJdjQDaD5wObSYWYVILofIQYpWbiIifqJkDyUohJtUirM6CJEkDzw+mbV82tngCSOJ0AxdwaCaBImHcoRSLboUotE6Aas0jgWpMWZ4DFgZmkkmAHlUzioMbkmRotS2oUkGYv2TeNmNR3aDOgirIzNMnzob2z33AEsTll20KlkFO3gNzQLWefZl9DbmjigISBUC+qBOAlOfSrJ4DSRkZukWs0EEbOMO9gfGRkKpYQswoY4zPht6mAy0imQgBZRSsCHNEZA+Q5cJa1zK0G8AUBjXApmxMTAhIzyegKZ4iiHBAXQOSAAG4NlN4dAF7yz5kUGgICobcBEuzgJLOKsrDVhEmJzhhAIwIyM0mHlO4AgZOvLDs4osbFYT50AEvRIGkBsBJkKQp6b3FoxKRqRFjygfUO3WIANHroXhVBKk3vyaFNVAIoX6AlyGpWmKmhkQbOlBT6KwNEYpIZUDyeoZJDG0BnuTflK4R8ZoCHwNmerIxGaUCNSlPU6g3mg6dlVAs2rSUPOj4NqEPct4ap8UNbOzMXlGxnYDu0UcZ3gEhUQxepNADrvA1QZyHLhXtJR5Hd78C4ZCqUEJBJQTFAW9zqmZeWothrEuvhFNnapY1xSUcGb9RwQ8+PAGXOaWuNHaO3js55B8gs49pg/w5A28qGncDzAL+axM5QR6OwA3gW6YqdQHcri0OVNBf2HjhuUlqpwQFQH/LmhsNDL/nAyq65NSz5QOndRu/y9ynqCu7geAKliADWYBmgLgBW43rGRXRrJoDdBLMLdeQZhAlh8wDLoBcDGo7g5Rnpq2Pg3koQH/IN4JeWjApTWWaarU4eFjko1EYvdgYbSGaTenfCkjrivYPtSWXDY0XRbaA9mneBfT1rWcNUpIaXmGROTNBhJZpyNu6CMJmXGFutD4Uc7TcRRDb6MAqASic/015dZkuWck+MipneIvwfFS+A/6PivxgVHWZcVXo1aLNlrehWmnFpaPUucKwl68MoRDrQqlh0yek0vjlUDdiB33zXvKRoHfdsR0Kmqy4xMQ6Dart7OzYqtqXpM20NfD7GnG7j/v8I4MFLfNzt9QG4xPsf8zq0DlbYAwOkcY2xtQ6NFvbOHOg1rK6ywCkGLm816YgawNbsxxx19AIBJSuloedHGQfaGiudB8yAPAMCF4G43IQET7uZULCb8Yk+iviMN1I8HQpmQ6Z9gxsx3TxErXE4nESaCA5vyCPtepyECMsZpx3e8Ac6Tjq8Fgv0CW5p/z2V0uVVxlNtd/gg6GjBdNg0WyAIj5cXH0cFzqE2OEp6h4nO33pe+BT77HL78OfV9/359vbyaLz/P74S21eXF+b45hc=);lineShape=1;strokeColor=default;" parent="1" vertex="1">
                    <mxGeometry x="-1275.5696997105192" y="438.0989497153055" width="136.97853692305512" height="70.85939713039761" as="geometry"/>
                </mxCell>
                <mxCell id="94" value="" style="shape=stencil(lVrbchM5FPwav6okHV2fWfgPqggbFyGhQmCXv6e1Lo1H54zby1tiqz3SuXYfzUnefX/8+O3hFP33t9eXLw//nD+9PZ7kr1OM5+fHh9fzG/46yfuTvPv88vrw9+vLj+dPl/+/fRwrx19fX36OX/j3gpPsqgxU9L8un8TqUvzvkw8XwNP5eQ8QF9IKKK53AvAuBQ0o5AnYQDYAKQSQ5u/tADERQHShmyd4AvAuijkDAQQYsWuzVnLokFxSZu3TM8eA6FpeADB0rwQQXPIrIFIrdW0kwR7Jjqr2s8CoZH12SR2gOSH7Sc6vFkreNeID0b+ftk+Oney6Wl+dp+tLWdbnMC12Y31e7ZmTa3R9U79fXWOZ6fLq34LMa8yeebVngQWI/Yvz635Kdo34t806sq3vM7FvBui6oSquMADspwBIMgZoM8snoAUnxEQxzIjcAIn7GF+3FYBSRLISWRPXrGlt2vlWOS1rGDUUCuI2ZG1Zn9CDiyxvmg68voXucSDBTXUFCI2k1GYgb4A87XZcKmBWBeAFO3dX1mTuMDR5QkmuBw3oJPsRzNpKbTaJ4/JoohUAT/K5dpeqOQMJjYYKULVZ2Rla1SUAjmNmHZGzmhXRGhgARWZtnA1dipwBR/TrGWqkVRhGDOuWUMY8ida+NeKtrqLuEceNUFszLiVKkcahVacttPIhv2Q9NLI8sNbsDQnLNJbgadUMQWkSi6WkCUwotNuOSrqeIWzheBzecNwaGsG7ShyHBCqqtrpMjlDDDM0tMihnK8iuNTAS74cyLbh5bTKC4/V+9prNB64Tn+WqCUmk+0eR7IoGz/Q+Xo88UYSNUtRsiHymiZaqrvKVtkJkVV/t02fFPF6P/asAijSm0diqClHedsRQHvD6zFqnmCd0ysEk6C4SOYkc7X8N6uFlUlui6eZX4ndTfq1nGAKPxEXcutJO61DOU7R0uUq+WwAxaopKyKy7+XgCI3pZ91oAhBG9rBkJAJ49YSP7ewl5B+A1gKpaANQZMi2o1/zdASgdzkakZkpW8bXe0rbJm55OBsBDowUN6EzKVyPl82xEN/PBHDpxSq9HKpkLPQBUAsEMTHki+s0Mhnq6mtZTXeBn8F4DqHgGwzE5zbrVkJMm45jagxGLyWnqh6z7+fA921IyDbdQxT1iM2oArRppKuZdaDDuOfIraAAtldk47g6gaKU0Bg93Gop6wp05jJ/Ka9cUMzGrRC3T0XZZTluJC7LqyRmkmi2BuxE/JK87EMgqK2TQxHoQ4AKplCnPE17JlbDfN9OVOFve/yRv4Otsvcyh7lzvZ2Adry9a83jKAXLThd5TtQDyrOwDnkT2Dz0f9Ho2pQb5V+cVOryshnzmWc+O1+c5pLmSYSacIf5Fk2FGJFt0dU1jkGHWy1ueOnxHhtnAufXJb/ZpzIS25baJtjXoZq1qO20JQ5mbkXMgleU6otlJeZaWvU/auBsWNHKG4L0uwCXSTMCempl40GnBRgN3U0wmPHuc5GA3MmTB19oshlvwJR4bZuzZOUFHeKstwdKsvkD8d9GAygZ63SSE5yUMJUMN9McjWI3sOvzGIdiNh8zf248A+aBU1JYKLfPJ3M71PPv7LU2sggmujkyAihmUIiOYaOhm2Bv4dV7RF08IV6r2oq7drfK7s64nDaiGmQGKPgPqLTMr6IQqNLXxIaOODAQ8DW89V61+aoJjt2lqWwoXYnr/RSjJ27rxtt7Tfuu1kgQhYKnj9ZQ3c5nnNW8el3MkhkzVToVebnk9vEx8iOw1Q5VOJ0mmZEue3fQ48fVQWxKtLEVf2YB0M0HYZ5vctWamaccsV8m7Rkk/6IqVd2wGHjYysRNfbBiBJA5GGjGVMFSHmS2wCxjUFS3vhAvIaBiP8DmV8fMAsGJadRuMXOmIN/JO6BgWDUELyERDSQx/GRNJ1nKKvjkfb3xwgBILQ3izyXA14Z2pvABAB1+er1fcAugBI6fbYt8gKVRhDIB5RyX9kQgeUyS+JW8GvVRml9nD9hMYkg8A6GuqSmXwmNCbyTB7SeXP33e6D8Af19erPp+fni5vZ+2/169j4aPLq1zy/jc=);lineShape=1;strokeColor=default;" parent="1" vertex="1">
                    <mxGeometry x="-996.6519772934898" y="317.7188450701145" width="134.31337992445606" height="141.49289646875025" as="geometry"/>
                </mxCell>
                <mxCell id="95" value="" style="shape=stencil(7VrLbhxHDPyavRL9ZvNsO/9hwHK0iCIZsuLH34edRY+myZ1a+BYDuq1WrOkHyWKRO6f87uv9xy93pxS+vjw//XX3/fzp5f6U359SOj/e3z2fX/TTKX845Xefn57v/nx++ufx0+XvLx+H5fj099O38YQfF5x06jxQKfy8fJMo9/+++ONi/3B+3NsXkrTYZ+J8bN875fX5jRof27OQ1MU+RspgAQ7EcQU06uUY0AK1vJ44UwIr1EgiK0Ao1WNAKRTNHVXK6RiQmUJYAEW9IAAQKRmAUAdnSG6F2ojBCqlQXv3QMgW0QiJeV2hMvQFAJC4LgCM1EHoKyKunucxHHAHCGnvMFAMExLYAeqB4YwUHELRCsOHd9VQY0MQCGrrWQMkBBFxrFOK+AhLMBwVEtoASAaBTTQ4Agi9q5FQHAKyhAJMPCsjglpQjmttSRCu0GQi7a+3oDNVda6SKtlTnv3eAiBynAHPoMNe8DtAMNgnUSdChfcYptwIiE6om4cosL9e52HKGUkAHkaTFZ91PE8gAcTLQjpMy2E+YLt3stx0e2Gdnn8B+AgVjr1EC7jNY1lZ7FBLBBmkrs9gd2Bex9hGl/iwBu6KAKNtRvNqjYp5s/Iyig+rgZIXNPsGALlSCswfPr5ZLdT/ofprzb54rHsW/Oy/MYKddNKADkCKa8obneKsPRzxnrojVZSjF+ozgHUegGPVBpyxUESA5notYWRSbll3DGokdmVpoA/Bkmutxl60KFvUMcHTulFYmkow1ZJw6YgNoMKLQbvN5G6BB0VmDrQaq7RlsqbpsE63KCNCmjtjdEkqfKjOYd34oKN+UHlwZR+3L4CsfS+AMSoglWwA6tDJ0cUIB1QQtGT68E3CcpryVUxHqr9ZdPkRIM1pVTWgMSQgSSAHZ+QHpYAVYlZqpIk93m3EdlyoFpGIBDV9rdgABNKOOM+qoa3VGfqhuS3X2D0fBZ1hDt4T0UXMpqgCYD8n1Ixk2kgpgB0hoS8kSmYYGovshEVx7EdAKWyDslTZSndWW6ZFxKLy1ormuLaHw5llv9m0eCr5uRwajzUOs0aeb9g0MuiWx9UEB7UZOm2jN+Axi220FCDqDAvovAYrVk12wvoozg/clCwBqd4AK+0KtcdkA2kypo2lSXQ8tAocSpdimJIatLzjSDobvRW7Nn7qRAgyb21ys5/Sa4PxJ7Dhp6B88f6qrq4fCAvd6ZbLS8QiguzFGm6X7qN82jhhFDgH0DKZABJijUZ+3JjUzLKOjH1j9wHUWpevT0nmHmz2WcE79aM6iIvrWQL810P/nBrpbyTa0APKX+3XhVSYepXA1c3OB9SBuAblruJG20A7dCKqR82iFPiXgjlVQ0r9NtSfgbar9G0y16xxJ7wAB1ITYbIfO+Lcw9YNhJS5YKbCdU3OEZTk6Jdzw4EPzgc1kGwffYPr1DKpc0eQwOU1YOiSBnC0Xqw69MeKKq6fHWA0B9JZWx+kmGYlzts1qutFVse2qBj2D8FYmtUIYjjG04TfEh/WFtivmUjGxiisO+AdM1fmmNoR5x0f2RuDhVkS6FQw3nq9trd1PBCExGhv7fNTpqH0rxr7i57v9oB/Adq3Zq8Og5L8GKPgE3UYEgwX8iXHhFDeZS3C+88svkNy01w+vb6t8Pj88XF522f/fvt2iX13ejMkf/gU=);lineShape=1;strokeColor=default;" parent="1" vertex="1">
                    <mxGeometry x="-1051.7218598218337" y="422.227241661619" width="68.17190706551241" height="114.89556571815433" as="geometry"/>
                </mxCell>
                <mxCell id="96" value="" style="shape=stencil(7VnLbhw3EPyavRLNN3l2nP8wYDlaRJEMWUnsv09NNlwNizsl6BjAt/WYJbK7q6u7yVP88O3+09e7U7BvL89Pv9/9ff78cn+Kv5xCOD/e3z2fX/DrFD+e4ocvT893vz0//fn4+fLvr5+2lduvP57+2v7C9wsuOu83ULAflw/mUv33w6+X5Q/nx91yH1zs0/rmuhfru8tpWu+LC+UYELrzYQKE4mo6BsTqmk2A7Us4BqTkSpsAqboUjwHZnNUJkIuzJgDR1TIBStQ7FDa6wG9qB5x4dmvN0q258Q61y8ABkGdAg1UmAZWYoQOXEek8Abq5KrgHAHGvR9e63oEA1Zmyobgyu7V317IAeJfm9PFmcovUXJz92tvww21AXqzOLil+B5dn9vXggiBTMuZGg6cFIBbXZzch1F6wLybnI5Opi8hFzynXgkzqaBwIAJJgH3SmEV39sOoIwAnhXRSBAyCS0SYzaAMEBpiQje1Is9FVB24zepa+es3aQ7caA8IbgZuTulapMwDUxoAiVCCC3pUBSitjHGHa76DZan2xQQQuZtfmjEPgFPmQcUaAOL4ciYBfMi4o1ahcghqqoi5yVKg3EVDSF12Z6Q35lmqMckDKF4bw3AQU7/Ki90lwqWRXMwOUl1Blm+cjFXEkVNlEutQkl7aUpzgE18UOiCupBvZsgt7dOz8nUEFLJhKoJ1YNdCdyB3Q7BLDRcx0BqGQBEAX5AOiz0SjdXR2psggAoIQMRTakdwKoPmxHUm7to8XbGy0i3RfyAaCOtGstrgiUIKEz2KIXBig1BoBytKCMigwCIDQGKBWAXyvZEAeBjwCWGBCVDdXFygClAmAfyQYApna4au/OaCUb6NiI3wB4tUMe3c4ucFnZsO5gOoMKJ0TRk9/mpWUHNQVtcZi9hAxqiq2IdGCAGggAoEkud02+PoaknQ2SfDjAkqMy0rcyTrX3t5O6vqEbS46q/v79gDqU7grQIwdKSqOiZdoGc4H6Suwp3NTSqJrXOppli1WXyKG0myATyixNQWB8El6qniv1NsmJXqCgLBYGqITYxDozQDUP27UAAbRbMwYzY6PlDjZ8sptGsyjtaETpggk9mZqzUuJ8QOBUHU1rHEzfGDWe8luXjSj6eyafvjHCyMHzbtYzys959z/Az3n3fzDvQu4re8kUWxsrX9O9w5bTs5dA76pkJvEtMAapLOKw6dLsJYhAUBd3C5cweak7LGhrWKZR5VYAaLjses4CgGocjJZDflruaOMI5SFgSVHlJQAipWgehD+6RqCrkGpyyM/GkS7wm4gDIh3mI+UqhQzk6/MOqY0LnqP6QDbEPgh/W5cKV9HQXBIAvwzIvo3KfbvB4hspb+Mv3Fxvw4XXA8lxAySItFy9PizXXV42GUtH7MeN9tFyemIa1/4Hy+m+xOQVv43O93V5FmXTeEoyWT/8+vym5kI/eq3X5WpQ9TyM6LeJwKKrRTqM4Wxnqmq73vfS+OZy/Hh91Pxyfni4vInu/58fQfHp8oAaP/4D);lineShape=1;strokeColor=default;" parent="1" vertex="1">
                    <mxGeometry x="-880.5708098612849" y="449.76795328737944" width="78.74581026940609" height="93.10634873983054" as="geometry"/>
                </mxCell>
                <mxCell id="97" value="" style="shape=stencil(lVhJchsxDHyNrigA3M9O8g9XWY5VcSyX7Gy/DyYKbRHUtKzbaNQgsTSa4GzCzcvD7fN2o/zyeth/2/7a3b0+bMKnjeru6WF72L3a0yZ83oSb+/1h+/Ww//F0d/z9fLsgl6fv+5/LCr+Pdq1RiIuV8p/jm0jM/158OeIfd0+n+ExcBnygFgBeKKhbX3UdXxMpD/hELOv4Uvr2HZ8pJIBnkhFfqeR1fFbvvyhJXDdI5q8zyKRl3SBW4rECytRACaJQGnewHCUQQ0iUXc2YIkiq/R3GJNkSCbhkDpQ6VlkgjVSoji7FQhnEIJXi6NKSaLCDJJI8EkN73s4bCDUZDIwrWgG1iccNSqYGCp0pj+tXpdxAnSmPvKgFtlrwATfjLvBfSEd/TAsQUcXz1PAFsIipTvgGWpN9fhY8yI9xmD2+Qn/meCPIJxOPnG4V9iV3oTrBK6D0jC+UYLzen3whn6oeH0EDzPk0rcf1cuun3tQf5EPqHbfGt+T9ESQRZ+JF+RQvcpZ/gfwP1eMrEpR+EJ3wIUJ/1PWvKQzEy8T/BPqdvb4t/QL59l+d3g4yZii5RqBy3QY64RMkkOg1CWJ/Ei8FgAlil9ByQVA8QQskKE8CnS8U7Dq8yf3ofzWBhgdGHddfhi+wfurVfDvwGmzg6kfLEkkQoY3RY4dlU0SkEJHiWIGEjyQpVJyBdlKtzSk6xhwjrkHyQQfbE+3Q+tDwZoBdslEsjGWzyQKdkzaK6Ri0MUVAlmwUc9Oc5Q2dHClSHZlnQ/KFqVpGlyrMaplaM8FOs1tBdSHDUcuIL2PVpPfS2q3G0YI7Ez94a+I+PJ7HT7cyrLyLcPJ16+fk8Ipucc0zguF94F343/EV+9Oyy78ipeCJEAIJd8ZAScE1bvZIobLMEYd+0fxgRgMcDuaKBSrgrJwZYfd0HO913wEu4u3h/aPD/e7x8fjN4vR//5HCXh0/cITPfwE=);lineShape=1;strokeColor=default;" parent="1" vertex="1">
                    <mxGeometry x="-1568.8130945003188" y="423.92864809261823" width="212.72824742151533" height="70.83384336970289" as="geometry"/>
                </mxCell>
                <mxCell id="98" value="" style="shape=stencil(lVfZctswDPwavWJ4g3xO0//ITJxaU9fOOE6Pvy9Uha4ISpvRmyxjRRy7ADj4h7fj0+thcObtdr18P/wan2/HwX8ZnBvPx8N1vMnT4B8H//ByuR6+XS/v5+f59+vTZDk9/bj8nL7we8b5SCVNKGf+fLwhb/69+Drbn8bz0t5TMo19oeS37eVvHxp7Z8lEAPCUS+sQky/bAMtUfAOIkRwDgKPUnsAOulTItSFkT5y27ZnYtiky5DJwyJLlFuBrTOuATCm2gEA2gKoZSlkDIgghxJqRBSADl5Khok6QTwAicSTbAazbBuREOXUA4FJJNeuLGApgUmEK3J1gASBTDBoQQKWLqEHFkMiAwgkgswYw4Ko1pqb9jmCKIK9yBKsgMqSrAD7qtAAUpB/5nnKpUEAAJpM1gFGaYpcmAaAYQqfRQhE0DVEkOw1Akiuucm2RJVgH13VWxjGsAZDkVlwSiYAusBJ0rJ1nM60dwCEFSeF2tY0VakSsoJ58kTxqGz29xUmsUS2gRBHEsK5RWIi+DeTP+oZuNBkrSMjZTtHpE6hyfbOUTQApqG/HEhUq9V7ANCFi5xKg6zSD0h7ANOW6ExiQKYROcgWSSSZ16IJGzbVffxb0Wk9TnZrLSoMYerJ6mCRTu9Z9XSqw8TndirOru8R6Eci0+mRbJb61XqldJgbyKKUyYtuIfaKAllxb98F7DUpdq9cBUYsnV72u27PWv2ysyCFpem2OLA5AmkNLU1O38K2tXi0+Qlvg/8Rqp+wtshd3jbJHlPZup71cclj7AxjhQ23Pi3iRfdQcNXXObdnHNv+SANB8p1tbS2nhA7IXzWj+JJT/vbfCT+3l4f8V9GU8neYb7PJ/fWWVV/N11z/+BQ==);lineShape=1;strokeColor=default;" parent="1" vertex="1">
                    <mxGeometry x="-1592.0186602151646" y="473.6785671797122" width="40.30446582289164" height="62.459783402244284" as="geometry"/>
                </mxCell>
                <mxCell id="99" value="" style="shape=stencil(7VrLchw3DPyavbL4fpwd5z9cZTlSxZFcspzH36eZLVLD5k7LvuXg21pmDwkCaDQwcwnvvt5/+HJ38fbry/PT73d/PXx8ub+EXy7ePzze3z0/vODXJby/hHefnp7vfnt++vb48frvLx/6yv7rj6c/+xP+vuK8MzV0lLf/XP/iqmnuv7/8egV8fng8AFwxZQXgEcULQDTWrYBkXBIAa2paAc04sQMOXJf1wZvWztcX0+y6vhhv1fpYlvXRmSTOg6e1dX0yLaj1JS/rkzW+igvKJq8GxyZ91i2IK6CaIgABF04mF+MEAAfImW1Wd5SKSXRJ0WRxSTkYZxngFaCYsB1JxV2xpmW+paTiwhu7pkKKJhW5A/khe+OysCGZsnq6H1KERmomrMlW4BmRC8kPNw1ALfJIPZZXQPOmqtBwxq9Hanlcw+3gKxzercrQCM7EdQdnrbHCcx4n2LZQJOZh4xobLeiUS+N5816zTAhwnF0Tos6Iv211NGUFlPmI245A9K1HKmlk7Zmr68oCiPgiMgi8ldf4RriqlEvJ2PVIOetwLVxMUjZOJQRYYN0hZhPUkTITU0jS07DBrYBOtwoQTFiZDNGlPA0aInJFBfAq5ZLxqx9ckEwWb2TQYJ6zHOXwlsyHipxXm8EyigPc4JQZGPo8zrhA6716vmUvo1yJqMB6utEoMwHrLWkSU9X5LZ8/jEA/Wx8o6EbFPltfKSIGGZxS6qrB8ABFRn4oqNf1Qd1/4NI5L+xsfW28XpWE6Z7X9e4NblzvB/EgzgPtEdfzNCk5oY84wfKQJ7dJIg6Wmg4OmlUql4Me48LFkB6k/JHUqn6Amimmox9RchswOeHAvUVEEXZIaxSholRlQxoydu4QTFZH2kpayKMbODV6BcDTUUk2AFayhuOCcFyezcGhA1NaBMLWr9zrILGU7HQcS1kmQ4EJTHZKElYkDzVUsmJCCQVONnWlEJhuKzbigloaUXa8IMEWrY37m4AoA7W5ceDpZC10GmT76oLuZEGQHUCEAberHRxfqksyd3CrpMthdFZGh43DwpgF3AbEcYADwIvAQ2NAygiAoHYoQy0eAFXdUuXZQve0IHqEBklaN7PjZHoxW4+D55T4whZ15dU+glHX1DYBaWUxgdXUFfbyr6wurMu9l4oTKZcyA6KyIXI733dQALQehW1QXSESggdVVmpUAIjqXdO0YbmY9OGYzlFH0ZflpAcADo1omrLB8ywMCaEGBvAD0wZSTgESK/Oe1Cr4Jm8dAFkRU2UVAKOjpm9qbEF9ksl+GOCGm44pKvxQC0erm3OT24DAE4nuBzWtKix9UOSKquphq4pB9tpo9pmNtTApnqeGXfq8AdgmvVEpGT/KwVG+6R3iCoi6ZvUdaAjYTBJ8nxtPk1OSCZTRigfeQVFl3prz3t8LG9AKkNGhyQF0bzbWHdBvqXYYJ6ZY8kX2q71fIk9bPdNrg1QOCSQ7vnknhxGGUvY/RxI/RxL/55EE1ofCz9czPMoYL/0bt4RJkujilpHVZOHfFLaE9LJNTZkn4F1q65HHroPVjCTb8RJrArLUwaBe6sJAM3KHMDjkO8fNAPDgKUuuzp7rfh8giGuF0TSQKE4SY9oCu2jmQmTQtZY6Zktn1YAbemh5/T6SJhI1yhYpbOOzqt8h9ZfI9IIHt/QGXaw29JZG2VD5tXDTHU/03F7UJkcAsXK3AFVZVcYl9gM8rfyAWOIaWMfs5zZgq/tZs3be3ptBnDQ1b9topgs29Uao8vua/vJa5YPlV6RJa5dot/fCXnY8fiMyGF2E0a5wxoE1FKByLe/v31U6cDeStPraZh64IisibyPiqIuP3WS8lcVna7S7PBS55nl4jkakqMzh+3lDfDWmI9dkVPcx1iZ/VSqjNbNbW67oqPdydCQvJ5I4MY14AFAC1W+CsAOE0d1rG0BJbADoW4RutAJ47r36CFMY7eeXRMdZhAKEbVKgm7XeIm8vd1Xq9B22IZKq590GEtrzC4szAE23ESxqvvjDH5F9BwA/Xr9Z+/Tw+fP1k7fj//M3bvjT9fu48P5f);lineShape=1;strokeColor=default;" parent="1" vertex="1">
                    <mxGeometry x="-1349.6352359863777" y="409.0191338959321" width="60.97715841414083" height="60.31855152213666" as="geometry"/>
                </mxCell>
                <mxCell id="100" value="" style="shape=stencil(lVnJclw3DPyauaK4gNvZcf7DVZajqSiSS1YS++8DZkzOsJ/YU77NAnAB0EADPMUP3x4/fX04Bfft7fXlz4d/z5/fHk/xt1MI5+fHh9fzm306xY+n+OHLy+vDH68vfz9/vnz/+qlL9k9/vfzTV/h+0XNSQ1cK7sflh5jFtf9/+f0i/3R+vpFXSXWVj5LTXr5J8Ku8l+T38l6luUXBlqh5rxC8OEUFX4hCkXBQULKD3TCuCtFJJHeOdoC4KgRxZAdVCeAFFU+spFViQ7d5t1dIdoCyKhRpxEopia5+sFtlcqRU0UrqxRMrZT9sMhWCZGKlHEXX2NMoje1QxK9m1SSVBHdxGK1apBCzliANLt0kEbMWlbreIXnRSBSylNXTKVI8lCoZFAzRxErVo5VSo46rEXfIKi4QhSRhjSWzW2IKhrjVSqXQHezSkDXsVo6Z1e6wXtoO6SuNpQo7tLHELlp/5sWh0IIUpuAlrlmj6UjOO8RVULDURkLDMA2ZrxlomYKTBHdoNJYMX66hQiZ+sKSSVsR558QRyEVLTA0vEdgWFUuWee6nHd6/RMZMZvHI0rcBzK9HMtQyUOc8ksRUcJLJkcqE8IRcHiDcIcitsWEYVZKYah0FZypEWuQsmt2KoBxESbhaNOc131vEe2LWZn5YIZcKdZwpAOSs7DGy0RKGRs/3bAcdmfGmBCWSNsxK8VB3mafbLAc3BKsxs7rBdiadmanqfU83rLshUO5goQHcwVdeIPKoUFMh0tCoOv6ejpPEolsRcLYAMWqXB9Y6CNdOHuoP528mX1Z5P0y2K4iQYdwIk518ayBPC64BoaA8O3+R6EFemf0LVh5PC49FEBCAIIGtP8vS1V9KUNbl1/WVZ8eKuct4IckTdt8EqUsKk8+DW8/8Pg64k4fzF86P0iiqN+szQKZDruYpwro8Bfs0Us9MHoiFMZc7eET/MpbQ11/jP9D6avIZ4/MOvjziMbF4TlIyyLOm2fyruD7jOBZv3oE8jZ9yxDtr7nqxd2AfVmN+Vb5NNnNldaMl3pIJ2GA2Su8rRPSYb5S/N0UIWMzdUYA7GMjopfOh61fOoMroByZqHCdEDa2kOhz//jDlyqUnkO9uASQtZdrQGvmua+jl2UTvbq0HosmKjZE0AH9OfOQUsJp1sszDG2YdeR5yx64Bz7nytt8OAAneSeWjC7hDnxwQBaPGwN+rk0IgZ0xXV8dZFmF+sFYNSNHVM7upFtDAjiniB4tNoAkGc0aWk47pzE2PzRxnVsKG1tMdskOybPSZJabeBIFZ6xhQbntBGCzM6rubOUGPXRrtQSz4YEjVY4mVT4cTodzGvHE3fgH+0iHKhlQZCYDZjTGqckBcqrTEFT+GAlOBcxhDcIXmMXJPW0++Ii5ZLPHQAE9rG1VsF3xQUQy0LDRSwdmIGlNhWUNxlNdHqgxAHgfPGoYZdmmmwgNAo0NbO0CBabvVXWLWWKVAiz3bpd08HzrmXqjZE0PBdtOWYPzc6NFRgaVKf6hxkY9UGzZgdmc2qE6HqUIZdfv9AyGhNGpCL4C1weRZIrb++ChPzu9wCt7PQ87vhn9u5FmYOkxg/bWDROkBmSYf6PlhHBcr7VAPvC3ykYvDR7A+ZiLx43COFedbyc4+cP5Mc53DhtnkI8m+v/oMeV/ePlzfPL+cn54uT6a3/+Mbqf10eV+NH/8D);lineShape=1;strokeColor=default;" parent="1" vertex="1">
                    <mxGeometry x="-1503.0889259374374" y="345.0467556353601" width="114.81896683370269" height="64.05902256743877" as="geometry"/>
                </mxCell>
                <mxCell id="101" value="" style="shape=stencil(7VnZbhQxEPyafW3Zbp/PHP+BRCArQoJCuP6eMosn4/ZQKx6ReNvsTsV9VFd3e0764vPtm083p+A+Pz0+fLj5dn77dHvSl6cQzve3N4/nJ3w66auTvnj38Hjz/vHhy/3by9+f3vQn+6ePD1/7f/h+wfkoNXVUcD+2b5r79c3rC+DufL8HZIllAgSV5gmgSfQTQIsoAYQgbTYpqaRKAFl0Nik3qY0A6vh/A1CDqBJAk9QmQHMSiA/qJIUZgLCSE9SLNycUCZkC3AJgiYNJeXa6IQwEAKebOaGJixTgigVEljhYnC2gMpOylGABrRBAkhhnejsnjh0RxdfFJnaEiltsyuyEIE4tIDCAH0zYZS4zfjspyQI8OwF0NYAyyvxPgN9B3BVEInQFIMyAqqLchzybVJTyG4BmVGDLzB/DOpuUgnimAt7qTAwSrwDmExQqwArCLeLahhgei2uSMrMVJeJIHsogzvZ8pMq35Bk+MXIvzEM7UZKEKsE874YmHDtcrMNFKmsmdbi35UwKIbaiUEwGJBD7I8I9O7CV0uHzCQQI5nkmR3kjzPPzrI+gSGo29iuJJxpfdCY+gWh8RSc0VTba++HzEB432+PDqKLjBLuFcr5SaWmogXnAgE2JSAt8yLMPvfuyIPkhVRsgDZ4fZyHYLGgbRh6nOdk6gLSwOoNUmUKOiUYpOfHBAgrRolgkxeUEBkijUjZAHBPEMUDtZAgAEy/EJDQbJTboRW+rB99kkgf8v2RMcqKkHuBDnfUFmaaCkcaEswEgUSys1YYV83MlAGS6rgDGJR0u7kxijTAlO90CUJnqFUs+5UMVAGviHMl0gs6YxAU6X+AE0/2RykwSB6ezqYcomVWcjvF6V0DUJGcH7shlJm7M2QHYYIifzWrVi5ZkGjFpi9ORcKkXULFhVQbwi9OBbhldBIxJjkdJx7q5I18i5ENMzGoFejNqQCpNHgBgXf0YwPqDt2MDJklHRAAbsDcys62kxy0LNT0LGbook8rSLJewCXkSVowazTT2MjahY4CzXRSzAxufcx3CuG0ltBxQ0mUma7nW4czmVsdOfTxM5sHkzQFPG1wfpuYDMD4z2fNqiwExbWxHXwCBD9zPLu42Brb0dJ6ZFQOzD7vJWJbPK1sSANHIHt/DdNklr2x6ABgiXdklddklr2yrAJhugn2YCSsAZtDoGzfbZP7fKP0G/L9R+jdulGwiknjGjWXMbY5yw29R3936FqICkFKjM8Xx3VWlzPzGus+i1KzM9EmdHJDtwtS1mI0+Y0bYuJpoiKIdGvrrATYeHrQrdi2e7GUJIpZJjtO469g9zxb1YpcADAys+uvSPQPV1GZX4v48e1nirGh3AOvnYZkYAs1AD4i3IWKlj5+NQvYcMJPiuFfYJ5lVwV+/UroOwIfnN1jvznd3lxdg+9/tGy98dXlbpq9+Ag==);lineShape=1;strokeColor=default;" parent="1" vertex="1">
                    <mxGeometry x="-1144.1939716614509" y="787.7037686621127" width="30.3799652404889" height="61.26887124657833" as="geometry"/>
                </mxCell>
                <mxCell id="102" value="" style="shape=stencil(fZbdcgIhDIWfZm8zQAg/17Z9j85U606tdqz9e/tmZ0c0uJ47xP0I5JwEBl59bp8/1kNwn6fj4W39M76ctgM/DCGM++36OJ50NPDjwKvN4bh+PR6+9i/z74/n6ctp9H74nlb4nbmSKZeJCu5vngmZ6jzzNAO7cX8FVKEsBuBKrgKg9oAE8gkCbLeUhEoEQKSUDZDLeWYRKIl8MEDRmHwfyBrBG6Amyu4+kDxxMoB3jhwgYu7TVAsVkFcWCs4CTBEoF4RctKeOxHIf8IXYpikHikAIf+MNUW94AGSSaoAoFIE3AlOyeWU+p2E5S9yfQZcQILVuQOwZdJNoS9Ls3wA5u2XZTIHECqeJ9kDpSaauRiNVcAY1QhdBzeLBli5WazpkSsBLV25uRaqWRyFawTQzRRIQYirJzq5atkBqLfouwqUxLBepthWb10vrWZY6UOAeyKCCtDV625mm9gmUC4Wc3VLJMMIE1BsA2FW9JraVlQB7n3c9oMKhCLEvIM1zBPZ25/umNQ1tVEC2G+fFCC8g398O2hNQuQlVu752DBfA+q0ptnqO5JFmeuIuo9DY7KjY71UxdJV4EntifPWorW++R/dC4t7V3DlIB5cHx2bc7eb3yvX//QNFp+bHDT/+Aw==);lineShape=1;strokeColor=default;" parent="1" vertex="1">
                    <mxGeometry x="-1107.6164446751022" y="820.7189861645741" width="4.672539772115215" height="4.665236216357243" as="geometry"/>
                </mxCell>
                <mxCell id="103" value="" style="shape=stencil(nVrJchs3FPwaXlHYl7Pj/IerLEesKJJLlrP8fRphMCQanB7LN1pGDzBv634Pcwofvj1++vpw8vbb2+vL7w9/nT+/PZ7CLyfvz8+PD6/nN/w6hY+n8OHLy+vDb68v358/X/799VNf2X/98fJnf8LfF1zzpviO8vafy19iMLX895dfL4Cn8/MMaG0GOOOiAATj4wQI1cQmAZEA2XgnAbbOAG9qkO8Q0gywJicBcMbOAF9MEFaq1TQ3A3DILACZj+SqScJKNZhCgKgBcBMBnPHipUs1xU6Aaqp4hZJNnNcX44SNyhZoY30yze6vz8WUeX2Uz89rHMm4S3W4dPOZPE9CkJGPTfb762MytdH6KMIaaVL4+V6cP7j1+V6cB+b+350368V5vBvH/bHzuDzMfV2fRFa6ZOxcipIJwv4umDSvR8aIeEa45/l98YQgArqZROubdHBZ4iePHL0fQCZS2YomqgAybqm8URgU4U75goQUzw/j7Tb7e1nkoimzfVKRDs4mh2l9RsJUZX9H61EBBNM4zwFUnHQAIs4TIJomTtQDYE4BFEllUvg4zT6+luH7PgBbzk6rCAoRpBE+mqscuMcJQHKmzW4DuymzZpDf7IcWJb3mjbk2AAJPZHK3+vzSDe8g/FAaixAArDgSjOgdH8krAi/LDtlYpVqgIApbSdFHVy20A8qRljmUP3CcIkAcIMw74K2c2iEyI0BlBBHeAOR5B3hGisFo7GylkqSnu3qcE6ggy9U7gGRmFZLb4NE9bUeyAmWmqiNZFlJ5M/SuGKQdvDQr3FTnnE5tcNeeemzzS6c8BOgegMpMipI8K7TZHHwgh6x2WCpfskOm7wHibNaYJd3eAcTBeHuAsBDowZES7WAlw8GsxEAAWJEPABTSqAeeLiYvACUaEHxUNQBQqqfiAHbZQecD+QGAouqS48oHK3lVKt2gwBvAQU6nudzD06rct60VugFUtYPlygciloTSOEXjQQJV5mkAiorW8n4AR+vBkVA1wrteOjEpHpi15/S7HNcB7woNAGpggAo+vDTJ6IPwhlmDZ4BKIHjaNwYcpCiR4kER6JS1AFSZAYDmFweFDAlEzc9BqewpSn7QxfhnANz/aCndAbOVOgPpMsPBp1vQbqW5zECNH1U+YtEo+wcASGukbbK0O8+bPZ02ubIr4WZAdpJ2WxqScAOEUTzvAzLzNBSZDO/MegmaL6jgQ4qSqnS6Fa3cP/SeRR2pcbMOZWyVpxvXpa69VS9q7XjgjbwPKkcbD/R6XVCOqBzfvUVRrs5DOW+ApHM0LH3ZgXBdzNRbRSXJEnMWzCDFtx2D2m3sc7X0XvtKCGzRVEddeJyMlyjiTGkL5xszRTWbXHqUFiSPolrHmbS6DlSDCrcMKpLMCB+YIaofA7z7Ab7IE6SQF/XbLaMQNJeqk0Ohm42E3jLKgR31QLmOu42dgRpV+6wvAZYBaypjxHZ3/SZcbnoyNVFeCgb4rYn83y5FbsWYGsDx+CBosloGjj7L8yeevrk2kntnIEuNidMT/UVxF8mEzvL4UM9vsbub1zs9sE7MIVaOb3r8eFqv6la/ACi8Xl8wkFQ4WF/5isrK8Ec02uX5wr0pjEHnD65v4z7hul6Fc46msP2r8C9ER2X/ZhWeYbRnW/xLFigLbURJrmVpOeFwFf6e7Vn0+mjSXG+REXIQVljYuXDUZXvi4qJvdgM3Ol6P2qBPyGf9mkJJnMJFMeis7CKK5il+jMb2AIkazjjGGXuAsFyYK3XQCjcJSFV5/71MncAEclZduKVF76Vys98QLAApZvMy7YhyXNgys02M8j4bAIqlmEYC7sVSXgByuJ34hismSWjovdKyg/w0Ii4lI8kLKyQQ7xCHoXczbnGcuk5aG86DsW3/RGWZ80qz/sQ3LUcA/Lh+QvPl/PR0+QLn9v/5kxv86fK5Tvj4Lw==);lineShape=1;strokeColor=default;" parent="1" vertex="1">
                    <mxGeometry x="-1177.2543827309355" y="757.9552148487205" width="76.42223773266721" height="136.26822450073405" as="geometry"/>
                </mxCell>
                <mxCell id="104" value="" style="shape=stencil(lVbLctswDPwaXTF8gCB5TtP/yEycWlPXzjhO2/x9oGpom5C0ndxkmktisQuAQ3x42z+97obg3i7n08/dn/H5sh/ityGE8bjfnceLfg3xcYgPL6fz7sf59H58nn+/Pk07p69fp9/TCX9nnDgKPKGC+5hXEkn+t/B93n8Yj/f7M9Xc7Q9CibcBWUhcB2Ah57YBJVEJHUAipbINqJGkp5AzJdkGeOdaBA2hZ1QPrihUYg/QKAGJyguAxhQA60Lcs57uBEIUFU56QKUcgRCeQn/DXR7WtQ7WG3qFpG1A4kVMBcbEhby3aYogTczEbIVA5mA1hxFCVxAgUS49wDct10k7a7/qWqbXAZlyL0Sp5ID7RCj0NaduiUCHnIidBQRAujD5ZAGItOZEvOVQEUCoVptWBv6+uflOOMRBAannoNbwFYbExq0aJLrBLaxRIIcSyZui1iCB0pmt0gpAIYlSXHSBAtpxEsrJAjxoAlxbZ7wrUWQNLaC4SKvHJZoMacZN4MuAQK73Ui7Nv6uAKK27X2eQNnQwUgJT7ZXmTAGk1QeSPkvh2hZWAYuRpV4FLcCRt2OdgWiaoD58nYeAbmoj/xp867IbA5e4LxwPy8CLFdjBR4lGa6aCa/1sXV4tZGf2o0EYc+ttt/0BxK9TanF+BhUwjZBo8oP4pkWJBTyiij2fYWf88qPwv/v14/YCfRkPh/kBe/+/fbHq0vzajY+f);lineShape=1;strokeColor=default;" parent="1" vertex="1">
                    <mxGeometry x="-1034.754649783258" y="787.7312214986816" width="5.877233039604562" height="28.19438566646886" as="geometry"/>
                </mxCell>
                <mxCell id="105" value="" style="shape=stencil(lVnZchtHDPwavqIGg7nw7OM/XGU5YkWRXLKc4++DCWvXnF6yY79R1DQXZ6Mxe7J33x4/fX045fTt7fXl94e/zp/fHk/2/pTz+fnx4fX8Fp9O9uFk7768vD789vry/fnz5e+vn+bJ+emPlz/nL/x9wY0ipU9UTv9cvsldRvnvm48XwNP5+QrQXRIATIYSgEnSBaAu1e8DWpU6VkARz/cBtYsCIMkY9wFlSF4BXVq9f95cLC/nqygxyJK0spwvW9Buno8IdoPzRuzXsN/AnsrOR4Yy+KvE3yFlDY+LN5IwKXUNv4kbO98cC6ITc5qMtFZcpelt4lChYX8iFSp9jY4V6aRAXcpqT1FJJD6apa0GRQEOYpDu6dnz27cKvF1AGXssmsiISeFzWn3omQJMRdek9S6V1PSMYVsAQymxWN+KbAdUySRKZbd4B0SfkrorTerqtHOeqCZ5zYNnUcJ1tWGjBaCyVjAphoBGaq8rZtpVGklcr9g94XQntTTSxm1XYc3kCTFCgE1HpxMhfs9XpyPThRDAjAmYlLdn3gYcEhdTaJA8BAA6rkWHkCjNvK4U3xLl1JkmmCE7K98GJKkrIFijMtZ2acBLMUZYHsbm4k58wUuk+IZJXYsvuJCaFHlYoxSzxQhrBMDgCcGFrPgMyTvoPzGTCnbcHOakNKI2bS2NmM6VNVDD+ZALrdZol9IQUJhJ4+BDoRM6SgPYO1c6gWYtDQwro8oAjEOmEwc0CKvzKPmWpr1akxgZKBElW02aQ4xFqeNACQDThZFpSwjo7Al1Y9IrQGEdV7D4wmk2RaMf2lH8MBKIFoXSGNJ5iwK3RotW3qIVAHuH3HNaoR9iPjAfqqRDP7ApGolLBQFMYEVpqB4AvPhgigagc4AfnWY++I2wVj52fw0QMy5B8WVKlTFF+1pL1uhi4hUzHaLOSZR8V/47oHOTDkK3Zumk+HygSZXzkjv2dGu0HzSlg/gu3Im9hXf9k6g0dj9IssLFRhNdGyLkh3FJpivPxDdMfM+WW2vDyybHbwN0W/p3QBUnJvXY++AJ/f+0NOhQ5/onNCGoE9/n5D15D+R6lfzbG0SswodHDOJ1rBxpIIBpsqj/3NFrJ4Q/b0sSApQBgnwNE6EkTCE7HfassjH6veUSpG6QG5Prc8yuT5ijmBDNVC8ASFQxzTuclQZi82IiTgeqjTboDFJDk2LlyCQPHcu7cjljeC9TjHKASl5LNdg+k3mSbgg4tlgeaDLnTW/d+/01oNq3e7U75ws0p1H7FWW60/Wq4LiN2UW8dbTeqAzTfFh8aNtHLCp4S8daPB7OJ+ptdBgsk5zoSsKVROnVSvFNAv6IDyvmOpCEGp0ewe2wU6nSBSbaG9pRK79YUdTy6nynakgp86qdScKOU3xunnzjKQcA9aFjVKOqM1uR+qa2rjdPplL7YS9s9DJ8+nBYVenG05G3gimNbwu424ZXPHF4AzD4pURFrZMHFXijYjdMAEtcufGExDfPX3sx9BOA+PDjPdSX89PT5TXW9f/xvVV8dXnnZR/+BQ==);lineShape=1;strokeColor=default;" parent="1" vertex="1">
                    <mxGeometry x="-1072.8824563997675" y="765.8170526702902" width="70.93503621878494" height="62.6080773125957" as="geometry"/>
                </mxCell>
                <mxCell id="106" value="" style="shape=stencil(lVfLctswDPwaXTF8gzyn6X9kJk7tqWtnHPf19wWryjEgc53eFGdXIoDFApziw9v26XUzBfd2Ph2/bn7uns/bKX6aQtgdtpvT7ixPU3yc4sPL8bT5cjp+PzzPf78+dWR/+nb80d/wa+Y5KrmTgvs9/8CJUvz7y+cZv98drvCJsrf4msb4Sq1YvCtjvM8UDSEQgwOFSD5pgiefx4ToKOsvFKZQAaFQa5oQKAWQo0iBFSGn5RU3CdlR0l9IgTz4QmYqVRFCIwdiKJmCrrNncqBuHMnpIzFlEAI3yk7hI2UGukjEOgJPFeGbLTOucgu2Bg7qtMl5gsEzqEArxMXgnQP4ZnUt5wfxCj6bCpMHBRY863jToqkRvplGpgr6suO1HrynhhK0JhQKd74QdcQOtpkQqpacaK7hnBZd41AoA28RQtJJ6llCKhKVNktgFLT4Y7VHCqhu9UbQBQmvWqvwbfHkIUFnSTyZUasJwbSmx4Wri6O/a+9fnocxW217rCSn8R7ar+CDkepiNsPe9AZf8PtZ4yP00i5sff6yZHjYOSZet5zw9pB1F7O6MGSMoxI0O8dFRe5ODHrgiIFVbGDFtE6+d6RkWoeXyT4sc7GEhvP6n4TVUOiOhAxmNXWEEFHrhGVVuSIkEHSfm9kSGA9mazBpGe3Dya/bv1sYKJysFl5nSVayAIKW5SXqGKKIBcQg6xFrLWVPDAonC1jRQRe81sqKF83WiSdDlHVLe17NcNHua6qOock4BDYcVmkVdaF+6Ku2tg3RL/pCtTYjxowKvbordOMEnrG6i1z51IBgds5uIiCnzupIAsigaBdZXiWIgYc58t5WIEG80yJqHk7alWvXCreLNT7Dvlmdp4ZlefhYvOIFDZ7f5FOaBg22Vb1YRgIUkNEDX8zsY4K7c/m9j5eH95v2y26/ny/q1/+3N3P5ab7Vx8c/);lineShape=1;strokeColor=default;" parent="1" vertex="1">
                    <mxGeometry x="-1071.0558389563528" y="914.0240783682336" width="215.3481604718918" height="11.067994974695011" as="geometry"/>
                </mxCell>
                <mxCell id="107" value="" style="shape=stencil(lVfLbttADPwaXYldcl88p+l/BIhTC3XtwHHa5u9DVZAbUjJl3WSZI76Gw92OHt72T6+7DsPb5Xz6ufvTP1/2HX3rEPvjfnfuL/LU0WNHDy+n8+7H+fR+fB5/vz4NlsPTr9Pv4Qt/RxwzVB5QGD7GNwVK+/fi+2h/6I9f7REwKvuYoaTbgJYAkwKIBwy3AbVBbQpABXJxABliUIAkIXmABFQUIBMEL6QMVXsoOGW1DKiQdA41QEMHwBB1WaUMzE5ZA6SsALySQwPSfeDs5yApGg/VBUhNmq4St+nNIiAHYF2lgY35NoAaBJ1DDMHNGjMQWRc53gbEBLHZJMjJWqihucQyQI4Dydm0IbkBBTs+7FOPoKK2lwo5wxAjBF2h1qYSLJc0AmnFaAWakwHNQhJAcDykAjVtAWSGULeEVBjSpqSrhERbyirzaXRypW/1yss7iSEqVnQfBuY5GlNEdw1VV6g9E9aV4UloqbE6nzyTMV8CYp22zZ0i06Zlc6eK4SxnXyav+d2pw1vto91Vw2JwmCpf0wWVzVOdRZItT0XGvVlrkHWLM0L2GhatgKXkrkI5T2Q9auSv88jQ9PRjAnY8SM5saErA5CqYIZ04qI59nh1h3Mkk4bxuwnWQluds1rQrS5Z7HIE1iQIUbzHLmFdjH536lGpJ4U+9nKdm30dHVxrZHRWmDbFsL/Gbc8LkcPlQm+yGQvdMK5KDtr/szXCYTb100Ato66l81V4e/l8BXvrDYbxBfP3fXhnk1XjdoMdP);lineShape=1;strokeColor=default;" parent="1" vertex="1">
                    <mxGeometry x="-1023.8484820633678" y="925.7409155892078" width="6.2915223605841675" height="36.10263921235878" as="geometry"/>
                </mxCell>
                <mxCell id="108" value="" style="shape=stencil(7VjLbhsxDPwaXwlR1POcpv8RIE5t1I0Dx339fekaWptc76QFCvTQ3pxdkhHJmSG1K7l73Ty8rFcxvB4P+4/rr9vH42Yl71Yxbp8368P2qL9Wcr+Su6f9Yf3hsP/8/Hj+++XhZHn69Wn/5RTh29lPItVy8orh+/lJ0yft55P3Z4fd9vnKIRbKYhxqphiAQ6CcjUPRELzswIlKNQ65UQRHSpSDsU+ZegQnIrEZJIEpM8Vo7ZlaWbYPlGx86ZRB/EDBxpdKoUJ7m68kSjC+NGvP1MH5mTgZ+9ipAPtI0eYbK1XQYKHcrX0ZFb5pn2fnUcSB+hSqLn6inpbtG6U8iw/Ow9oA9gkwcmCS7iuUQQZ64GRZmQJs8QkxtkZZWYRqGqjZppVODRSpaA6WlU2PhLrQSZyyJAiLKlQsTitjhz5gMCWtZQVAVWlzVVKlqCAHPbETOwVvF+CQx+vh0Cl1YF+oWCgVCqDPrQ4kT1wmRvG1qVYrlNygpF2VwSI1QCnqaSjzxZ5BB3rx2jhR47a9Kj+7fBGse/dcLtCew0xM+Y2MtaJWrfmNIzXqNgUu1FDO1es16/wA1Ox5Ji9aVTCSu8wUVfuOkla1qN4B4rrNqtRHGZaAHV0fKkSGModdlRLcQ5SaLgftdEFcK6OIkx6Nf7mUgsN2wlzuxJ4LFXVN9xDbtUAR4UjnbHT2AcVXLfTx0ZqjOHV7Gt4clTlsiZDHZrhk3239G+ZNH1vNVM841OAPObQxLa7meEEOMyrrHIcOeQywqUZCgtSF/fJY2hgpSyMt2SPpVGyA+7reu3VNy4DkqMSxfV+IhpGXlZoWGTpXAkhCx3Zwu4XAzkkYm8TVulMBmHha0K52i47uRSRutfgHLxUg/v9Lxd++VPDsjiCZEkhBa5pmmEbqpZARx7IwFujbPA5+fVT1QjkoSaIlfg1wKKcJlZNDJAZalKK/ttQ05u6SQ7JMqwVqkTqwc1DJRlXi8b3k6uoFHfS1m5yTPN1uXPf3TdVTxE5pnj6nqxJAqyh/xDugsaPYdFhSB7SuifhprjkgRfrtT1+/4KA/Ll/anra73flD3fV7/2VOH52/6sn9Dw==);lineShape=1;strokeColor=default;" parent="1" vertex="1">
                    <mxGeometry x="-1033.5152607281111" y="943.2571681209693" width="33.400781062892975" height="21.47789258547982" as="geometry"/>
                </mxCell>
                <mxCell id="109" value="" style="shape=stencil(lVnbUhsxDP2avGpsy5bt517+ozOlJVMKDNDb31fb1JtI3j2BtxCkXV2PjpQDv3u+/fR4c0jh+eXp4dvNr+Pnl9sDvz+kdLy/vXk6vuinA3848LsvD083X58eftx/Pv39+GmRXD59f/i5POH3Sa8FkrZopfDn/zdU878vPp7k7473F/I1UyhePu3LS6EuTr6D55dCtRv5Tj3sy2emau2PkYrsK3CiaB2I6hJQSJFatApCpe0rLM9zCo1K2VfQiFgXUhg2bvtMNVh5NRF4IMO/Vb6TVCRfrD1cocOVUjXyWUiAPZWqtacwNWBPo5itvNYcgwRo+GyAJFECRRf1/ckqaAwiUOgjoUOhalmBEGlMXVnXNrK4XaZM0ZrUMuUOFBoFtgoNd06kbNPQIwxrrsROgUmAQomUmldooLCLEGev0IHTom+wme5r8+3BUZhMqqh31lJbFRIVEFYthGK7oSmCAZOqhtVlWjETQGpLPqwtQgRrEwBUoYwarhHbN6hXDeShBz8VpI8e3FbQ4rNhlTy82lZQA6xJpcKwaiFkWxol4DdoaVgFnS0FlLe+oVuntQcjyIMqJKeQcJS0lixqKHYGHFYHAilRR5nuw+KLWRVR8SnYW5MUPBFUajE7bO2jQbblFSKsC5kEYLfKi00bX3t+tfYkyqAsFHaj7ed4Tb7b6a8MC7TOEh9x8hHZLwMczvKoJDRhjl0EOKmWqeGfjwaVVpC4CoL42KfhjPFU5ZONJ4+m2LPH+Zsh2VH5bP0tJKiem683Gfi9F3+JTh4RZs1vyV4e2V9G+53lr9SneH8RedR+6Y7djQDv9qO1nyHhn+UV6bF8dwBEDdVn9s8PeLqWAfpneUb1IGPduOjHK/Xgnx9wP07yiAcu9ZxdfBKyv/t4Jrh8vFW+R49vyneQPHuGpgtdAAWxjGEH0AXy2D4h6ALRoMV6o2zndlpH/7ZC9z2cMNuPIXjywRmuLH1Kg5IPlGdV8HNVOwmFqXteqnw+IpPUAPuG0mFpL4lwJFAwvSkU3RYVx/lilzU6BYHTdZ5OtcNUz9x6IQAIj6KnyvpORtv1TKAKpJk1+OrTzKARq0sRO5M6xGxdu9xyelHAe5ud45lLPYJEKFmvkwI6KmRNRPUKAbxB919xXldYTNpgzD4RGbQca56m3TGBYuIwrYJ1nLe2zwo8am1VwHeIKN4HLS907+seXAX3Qxnk42KvQ7cvJnZbWof7B1NyoJQH6mxHyLOdXOHz43T7ahDDgt/2GdP3CefTuu/s2e/YToXjto6uuhiGaE3W7c3hV8xwX1EPHKTGNBppO2Nx8KczWIwtde+k6446yhgQVEzwVQYA7sGdg5Y8DluvPHkzZqjTSX09L+5NhCReHjG8lfCe7UdXhPlelAdF3JMXH5+GGGryYxzDojJ4h9Tl2kbh5PH9fbYHt8zsL54DG/c3fDKZ8tXG5fWV9dDwBvvGn3Cuy+uH8+9FX453d6efmy7/739f0q9Ov03xh78=);lineShape=1;strokeColor=default;" parent="1" vertex="1">
                    <mxGeometry x="-1059.4221889054531" y="964.583734314685" width="66.85006064576896" height="65.17789532484744" as="geometry"/>
                </mxCell>
                <mxCell id="110" value="" style="shape=stencil(lVrZchs5DPwavaJIguDxnM3+R6rirFXrtVOO9/r7xayKI7EptZQ3ewTwwNFoYOagn348f/n+dEjhx8f72+9Pfx+/fjwf9JdDSsfX56f344f/ddDPB/307e396bf3tz9fv57+//5lk9z++uPtr22Ff0561qSFTSuFf09Pqqj+/+DXk/zL8fVSPkttIB/stnzu0sokX6RUIp8lRpDP7ba8VukZ5Fsi8kki3tfI+X05uG+TSuyTovQ+yccgiWwQm4T5QHFf4rpClj5bNKo0tkMSm00UTSqxUZc8uyB2CeTOVVKa5FOSQHxsUmaT+pNYSExInU3qPlAqn+skr1lKZvI6nz8HURbTYvP6ud25r873NZ4DZUTkHtJ+fuKvKg1SMkgm/uqSZv/WLInY0yNY5wvXIp1cwAPS5phuUTK5gQdkm13c/EiBZk2bY7pVGhOel22+Q+dOTnvM7Ap7Hl1XcCDRWSEPrLkORe6lgAos8z2M4xyo3SSTS6tjVUaFxjJBB7jtCkUCSzXfoaBCJHcwlZRRgeGjVcl9uQOJpRKlGpq1kB1KEQU/JIrxNWKN8liKZIfqiAf5UGmGVk/ROVqbjTJxVaEljFZ/osTTvh542vcMpNC2NjBrVzBJDGUilh2HJQaTXTFFN9xjCoYwY34HEnweamW+tIcjA4HupW2G1lwp8rlCnoMvJ4qtrgCxpIUfyasDKAQxtoNhOfGCxIDM08WgnntKRaKQxs87YajccXHwiQtGkli0dkQNLzGRReuS017EKjHrli6zlRpNOM+WvPBa4oWtYiaQZ7yz6gibi/VJaJeGvLbQqPDUsgbyyjhJRFJYRmrcgm2wZ6F4ZEtq3qkjhjzbKGa7fEZ5xmldPkLmS2TntyWPaYC6PPg3UTR1eQD4KMrss5tvyIdRqW/JQ5+2s5Nb/jVcn8GW95kJ5QvBlK0vhT6K9giO/AqQIp3Zs4/0ONufNVGrvFcrvj6cJ1P8We9rA4UftGfhPcjir8L7/CUeyqAkD8abJyjz7xLPxvFkyZc8Ku3D+Wgsng3PnwadfxBPIiWZK16FMbh4EA/D2PBBvA3cvz8pv+I/x4e1vvj6JB7W+hVGs3OTg6N9aL02bLY4Ga1tsOGzfCL2bwHnRO5fRtgz5m+ieOKEJmP8U37fFm48xkbXKVnAoUmlfMY5XwfOFyhBOTdhFxTOOFmHEzmrNAIRG1kHohsox+oN++kNpEnQdW8vFu7NWnxXKAu7Z11WDAHHgd5AsETzLWA65j05vfVyCcuUarldG1C/QLG676VoV+Dkzzs/KAY1UbbVA1bjWnn6VJzBtUjxt6l06AeMjrDaMiRrjbraO4KyTBGYp90mAUYnSjljqeiHzkGgJGx3O7+DV5EKo5M+DH1z/KOoQCdS6whrf6Nwc4S1HIkxQW0LMAVeS1Rx+HhPIy3s0Q/FwG9jWxE9wYJjKx/LII4RhthxauwIzTqiWAY27grexpOM2PB9mdFWdqSw5Fwezryec4t8pCS74mDDqzwLjf3V08XIi40eDYPbWQrzso4Su+OkjZp33ckYFBuLYx5AwPBsYvPicOVFCCPZS63STEn2TgH3ettoExuR86RMSaEix9tIG2tCRst3wTACKzvL2EopeMWITUXkXb6v12GHQC3qB4a2qI1ifT2C9vcwZ5oXmXzBqmZj/HjdAxFhKNPBni7cQulgfHs9DByPzmNzHz+f12eY5VQIXicrH0M1fBmr1D7WkfZzEmwrgRx9xi35hmMr9v7GmVwA9khZzsb8AFJoBri8YhuirG0MyECMjq1cPuIYk703LAtklXv2rzgG6Sx++tpG3RlbRWC+1D4//bnGXXn/4/xtyLfjy8vp05LL3/FbEn90+g5FP/8H);lineShape=1;strokeColor=default;" parent="1" vertex="1">
                    <mxGeometry x="-1181.8587626922704" y="1155.8243018690355" width="238.48191372785095" height="177.91916342586418" as="geometry"/>
                </mxCell>
                <mxCell id="111" value="" style="shape=stencil(lVjZUhtBDPwav6rmHs0zIf9BFSa4QjBlnOvvo41Li6XdbeBtMeo5NN0tzezyzevj3ct+l8Lr+XT8vv99uD8/7vKXXUqH58f96XCWr12+3eWbh+Np/+10/Pl8f/n75W6KnL5+HH9NI/y54MagHCZUCn8vvxTi+v+Hr5f4p8PzdXynkE18p9JBfKIeTXwM1AGAO41hAZnqAIBEI1lAo9C2Ab1TrxbAxAEAMnU7Q4o0eBvQmLrdg2Spgk23SmwBOVJDgERcLKDpQa4DAoVuzzlSjtuA2nUBM0DSCphRqxJBATVQSwAg1GgWIEOUbUAZOp4CZFcJUENWnO0MrdDIAJCUmzNgUAVLyiIftnIQsiBAW+hHEo0AyaeVI1VwDokpWWpwhVwSxQebJZZNA2rE4bMkKmcwgwiy2IMbctJAQJGSNSWxqQDYHShb+QymCJIadLQ5vr8Xb095NIpwPS36/UbAu6gkm+MLZbCeBU1Hhg5WKC7ikR8JYYKPb8jwaAS//gikLx5ffTyD/LAXvuSzAw2In1tGy3l1sP7l+J0YKGC5fnF8sH7Jj+PDoIK8dMGfoQVi63wtP2MIUDBJ03E1AUrQkqBDXeaDAmC44aXAOjSIpYAbLB3B2/TApSZSdIZSqIL1JMrW1UUwA7k6teHjG6rGah8fjJdsLMZH65lr0PV+gUFIfP5MPFNw4ye1mPX8Z09QZu0W1gFdDeqq6qFGVo64WwpJIxlRmRRRWtF3qbRohqE1ZQYUPZbNUm9tqONeOVftNeZ2pemuttoV1wVKIwk7KMmJFbL0hbDSFN+N16xaWgd0rXRzn8lKrq0usNhzKFmvDOvakVbaVgNJQ0RiEzu1M2Qpl4B8tfl6I4RHd5Y6/BUkZei/ckGoNq1xrinrAg2+JEfp0cAMvXmJykUtIUkvPJ6hpLnonWnmHmytpQl1Hpl1S1s3TeeRUbvCrXi26w/EoGeZHLe6+AwSKo7omooAe8ax8BdcwqXiOcebi+jWzd3JIGjRWo9nT7kAe66pI0g+/4ChU8fh4wd6SRiePwl63VUL9EYg1IOMxbVmbqu24j/3dPJuvHy8vdM8HJ6eLs881//37zry0+VNKN/+Aw==);lineShape=1;strokeColor=default;" parent="1" vertex="1">
                    <mxGeometry x="-1248.6115452244085" y="1299.4902545864575" width="112.96187542866846" height="155.84454059497753" as="geometry"/>
                </mxCell>
                <mxCell id="112" value="" style="shape=stencil(rVfLctswDPwaXTEkQBLkOU3/IzNxak9dO+M4bfP3oaqhYkLS+tKbLGMFYrF4cJCHt/3T625g93a9nH/u/hyer/tBvg3Mh9N+dzlc69Mgj4M8vJwvux+X8/vpefr9+jRajk+/zr/HL/ydcOzJ5RHF7mN6k8jJvxffJ/vj4XRj7wsF39l7pZIBQEl7ABdyEQAipdIBpJBHAKEiHSBkYg8ATNx7iIm8A4AlSUxZASCRaA/IlIAH8ZZWFZK0DYiefOgBmSJvA7QG3ceQA3kAyEqBe0BuRK8CSqLiOkDxFIE0SibfH6kwTFypQugTV4QY0FoBuY+hBAqAVu8cORNEpBygCzUu9F4Q1kNuTK8DaoEZD4UEHSk1rd0AMkpEJJ8sABV1pV3VAhLSBlNUGzSqoCqdlC2tio7kF9pIMNUjwBwpkrtzJENrpQHlgSlEq++EpCGUTKY9ZQSICy3NjWRLGiEsAIilmfUbQAHdeMxrsUHfKaBkxBfIoXqo2jQeIgmSRlW/8ZCafrcAplfWqByKIZP07XuscuRByS0qThGtdSr2ibtpVeuIQLxoG/l/AuoAKdHymkAi1Nk5OpZI2QaEuUnMM0jhHOU6BPsjZWmp2doFTBfQ0j6xDrDSUDxGF/MkubbfbHzf5DkK1KrYxhoSHD+xbQnzdqVwhGpL0Ly+aavXdVHYZazuQnD2LJa3VqwbA5q4txe4Y1T73PPJsEHWVU/N+eFwrvrJvb2D9Pja24qx9+j8kYL9Pqr6yrbp164tiuv2uS3jX/YRybPYevEkgB9elDyToAJ2dp2SNkTX7b1tpKF9YNN+cd8B/Ny/H9WHr8vVy+F4nO5mt//by1h9NV3k5PET);lineShape=1;strokeColor=default;" parent="1" vertex="1">
                    <mxGeometry x="-1260.274129383657" y="1403.5808956702253" width="79.83114818052046" height="82.1983399279159" as="geometry"/>
                </mxCell>
                <mxCell id="113" value="" style="shape=stencil(7VjLctswDPwaXzHgmzyn7X9kJk7jaRpnnPT1913VoSqC9vbaQ26yrJXwWCwA7sLNy8Pt837n9eX1dPyy/3G4e33YhQ877w9PD/vT4RVXu/BxF27uj6f959Px29Pd+ffz7fLkcvX1+H15w88zzkXRsKC8/nq7U8S1P3c+nQGPh6ctoEnIAyBEaek6wAcpaQAkFWWALFlHQJNMTAoqrg6AolIjAQRJow8lS8wEEMX5EVCpDwD4OAKaFEdNauMXqpPAvhDElRHgpVYC8KKjSTXSTCOsqY2AJD6QxFVpzgLevLoMANXGTNfMvwADsgU4kmmQL6k1KTPyuSkPUQqJklfJxukgmTiNAspjPSBxXq8DmjRDJZXIKtSWT1ZKblTj6HFCDMj7o01ajDRpDkwdHQ6V1rP31gOUUyFfCE7UAJz4QgBZdKQ2iOKYAGSrGA5BIklDDPOoSdptvPx8s7xDJRC9yFnq6LJLVC/KJPQoJiUul6maQ5JCBAa81zHPEapKslCbFRgwtZBqbr7L+qYUWJRa6gZsdZsUZ6sXBEYJV1vrxb4Cas/85WpQtWRtThKzqfXEroAogZRDK7bjtpUt18JkenrjTiARcSQTjCw81b5YQCPsqyv9NwBPolSnno4wZEIm9FeTuSUMjN/oh8YHCBVzGgDTcZtUQte6EmEFFFFectE0n8hrFGyeupUjsgGLdepWTGcQE+8tgKkAom4HGaSSFXWZOi4Sx2RjIh/CyqK0cHMUprbm/qoKjGrfkBmuM8EActfny4B1MNqUKJt8FgOMCDQeVu2isnYU5T2rrpvC9hOsIOLkNfSWsc9bbiAObGZdAFNc2XCFtmgEvySpJHNlmjVyoVqZg6VrCrTxogma3QEDViBOp2KLepmX2LChNg+YBRIxKaIiRwD2Rk+cTqmPnCsAKsAA0bYgDECRUCOt89fWabbO1G7AZjxRtiVirRwLIra+TVxu7bUbsGYa+w9xGvtPHU1auETI9764dh15X1z//8XVZVtxUNtAuARRcWOms6eTLkTFzdpKuFS68m5WUdantdu7qpKj5TPN9o43XbX2u0IP09TOrI7X/zRQYkt0xB7f96+Nzit5PtqpBMs+o0SygocMss1+GvXwPBvqm80XnmeF7FRqsw6wEQbv88lGKPHTjzClgK1KF09kaZn9+wgXF38PgO8Pj4/n8+Pt//bAGLfOh83h428=);lineShape=1;strokeColor=default;" parent="1" vertex="1">
                    <mxGeometry x="-1370.8398870376936" y="1491.3108220958593" width="61.7055054451248" height="68.21338059352102" as="geometry"/>
                </mxCell>
                <mxCell id="114" value="" style="shape=stencil(7VnLbhsxDPwaXwmJEvU4p+l/BIjTGE3jwHFff1+qhuwVtZ40tx5yczaaFSkOyaF2E25eH+9etht2r8fD/uv25+7++LgJnzbMu+fH7WF31F+bcLsJNw/7w/bLYf/9+f7098tdW9l+fdv/aG/4dcIF4thA7H6fHjiK/PfB59Pyp93zYrn3xHVYn4n99fXM5MOw3hdy7jogRJLRoKCvABbFRHW0KOoO9TpAEjEPgOSpyHVAYsqjSZkpJgDQMykjoFLN1wHZURkBRaAPOVAaTSqFUgCA1N/XAVWfIICeuoyAQhkAUqEwmlQrjHSK5LwFeMAlqRRnQAQAoVQsgEGkxVMUCxBgklKtTICM2FrIOwtI4JRiplAnH4DTmg852cAlQD4FsPEhU0VOC1VnAQ45Lf1MluRDPswAgWxdMUnZBSK94nQgD3J65Vi1CLwROEM+LTPIh5kaSkcUuJl8ngKid7C1VQEO7CC5h+kMcMSoCGj1Hk3SulRRmXE9gxeADI41S+fmcgfgdHGUxwQquAiUqQMpQIBJJVMxJmkDAMeq7yvGJCYGOyjVeOyi2gAEZJyy34/k0yZWAb01v4wOkAipoQAT6UZ4ZNKU05pSAfQ4rREmHzTLpUBAGlM0RqoIkG3LUkACdUkrqZt2SKBUtp4pFlCQSXUySSgik7TfZHusSJEpoI7U0MAhgVXP2mUpsLAPNtIFx6FavRQr1BqXjnZmq4M53TraBIiIfNn2B8HCWMknxQJQB7q0wIXTEQVuUjN6rDAfxBYyjTSkt1hVqVxK6JSkl94FW1GPU6djsgCPA2eLQIQCSwGFLUCQD3qIYdoBlcrahcLCB9QUm8KbTgk1xZZxUxwKoIZ3rkvtRaiRE+9HNCU8dYiCIlFsZVJ1wGgHjbWZLZXBuGk5ozakn9w6wNuDVdWHFJM28mxGjrOR18SDzxYQQJKqPEnvEtOzANKkKmhWXNsB5VySaeTIUGJJmXSltjGkKychuuDjx6D1MWiNAIZ98X8ctHzXbAsAqmTtpiJPPuC7EMtW3yOzntSh6/9/BKyUDYaVLE3iWCczJPDbsDg6rWMQvIhznf2LBoGo0erMaJLuWYFJ2vqj0Ym+zznr15XT/WZQBQS45HX2G6nBDK/6qp3kvIfa2Nu+LnC0nKKs4gcE2dnr3whrpLO3jgGOS5MmYdh3nFXQDMduZ+WFpwSKqbNS1cNC53rNuVykC+JBN/WyHGlIb4uig2Wa57ej7so95pflHrz9nd8M3lyuPy6fJx52T0+nrxvL/9vPGfro9Ckk3P4B);lineShape=1;strokeColor=default;" parent="1" vertex="1">
                    <mxGeometry x="-979.1558820134755" y="1295.3246106363745" width="164.07103463407566" height="123.81789218783574" as="geometry"/>
                </mxCell>
                <mxCell id="115" value="" style="shape=stencil(7VrLbhw3EPyavTZINp9nx/kPA5ajRRTJkJXE/vs0s+BkWJytgY5BcluNWMt+d3XPXvTDt8dPXx8uwX17e3359eHP6+e3x4v+dAnh+vz48Hp9s08X/XjRD19eXh9+eX35/fnz7e+vn/rJ/um3lz/6N3y/4ZJU7aDgftwexCQx/v3k59v5p+vz7nyRmqbzScc3HJ73TkKdADlIyQQQpLYJUFRcIIAkwU+AGsR7AigSZp1rFXUEEKXFCdCiJCZSFDdbqeah1TFAJYPSTZRbyc9KlyCNiNQkltkNWVq6f77i92cvnmhQxM0mSkECsWmWGOa4c5JJ3CV0gUnYiJMTGtQ38USehPKYhRO1T57to/S4BWma08CNB4fn+78VzjsivtkzJZBHibvUvDnL0xOVxI+qtDwD6si7Y0CUAh5LoxTcvQFU8BJJabGY9rPPtHIjLaUlmpNZWjZxs9Jx0+oYYAIs5dSz8mhZWBYAS3xLBEWRKou8uNwQaWYawIPSKoHdoBirZlbHdNBhk13yFyZSQB20SWB+sJYxh7cWKST4DBBnkdQqFLeSgwJgjisUUObg03jm6QLhbUISP/QS5GZAoDVPnUTQwUtiOV2lAMDRrhMztpF+J1HaukaKCGDRmprkvACIlXJZlHajNx53Nsuv5YZMRKpesiKAlRkjBxrec0Pzix/sCdGhpUWkSNt/M0/PxThaMWal0m0NakPU0TKOr2gYrslSjuRoyyPWdpzEEZlawKaYI80gc0Sac9SixbHYqBgbufFgskiYK1nZIv44XLcU3gB5kMvjhIijDO2oJCPcsUiadaiccFt1B0pfLbyISL0tww1l+P4YYDfMOtTGO3vFamwAxtCDxznGALQrJtFlaGCMr4z2sbnh7LyC2/KIrTvnyyxPSbQl1hH5u7GqspKxnDf2xDqowxJjAEZB/eICA7DRszd1jyrQyXDhrFbLWcGwHp0DGvVk0GsgUjljARUA9Yy+QW+oW9e+y8bmwOv9iIkUkPrY/Myy0xwXAgIqE8kt2Rno9FPRqqYCWzJUHD7NRpm4raCJCh8OC+a+eTny74dcTrQEVxzGLE4Da2wjineJQKmkQ4/1VOO5uWb/yT4iRwQwRtI3HgV1yDw3Y0SjOhZ1C2+zispY1fsBbZSfXTI31qbSEhiNbjF0IXo9+9lcv0m8A7DQjmvZtoJEqrDNp7if41YySh/BrDpq2jHlWcYSI1WOcaSKRdV4XmX5XHA/Z3ey4KtGqmDtWeiUUZfQSHxzYFw1zzXA7KYkNAygcz6YZwLJOBMJNgc2RDORjA0D9exEjt3gsQjoVgnvjlbLmM4AfXhbbmCVNTXcQmmly2GzeqkIYDNDXDLOAIxY6cKsLAcZjbEioMss1ki0hoXGRB1s8f89179uz8VF+u/tuXxeFsX83Ucf9iBFecaFjMOYPXFsFZ1QaUupRJTuu7rZrD5SswaHtdVInSc6+IwDaAcwvuSR5frTAU6XVwI0vD2+bOzMnb8Wc0vLOolWWOAkNzLknpVgCM2eJ1DF/mA9yfM3ObgIULrAMQASrEoHuA5Y3jbS/uCwi7Y0Sts9KylEq+Pvoyx04B1r82cjis5aG+di28CKFK4kSh3SQvnSeIV3bKQxge23k+T7HTLEaESDtNB1XVqogRwSyr5bp+cDnE+0HS6LSWufymJiUMFd96TDEvJbO8+aZ8DiYs2WURLFmdjO06Uk9gQ7z2aGiC/QTX6W90u8dQ5Gz0NDMPuzfeF7f7hxft4+/PMrkS/Xp6fbj0z2/8dfldij2y9S9ONf);lineShape=1;strokeColor=default;" parent="1" vertex="1">
                    <mxGeometry x="-831.731626758778" y="1388.1539951217833" width="140.59052350126774" height="101.9093421652547" as="geometry"/>
                </mxCell>
                <mxCell id="116" value="" style="shape=stencil(7VjLUhtBDPwaX1Wj0TzPhPwHVZjgCsGUIa+/jzYuLR7tuk1ySHLIbVnUXr1arZmNXD3f3zxtNzE8vxz2H7dfd7cv9xt5t4lx93i/Pexe9Gkj1xu5utsfth8O+8+Pt8e/n24my+np0/7L9AvfjrjUqNUJFcP345tMWX6+eH+0f9g9jvYlDfZcqTEEiAwAYYoBAsIISJlCgwAeAblQ6BCQeAAUoZYBgCmNQddCDAASScoIiBRA0LFSyqNLhSoCRMv6DNC0lvMAVo/DmKVEBcTQvUdJfawgSVTaWOdOFTgUraizvZiHq/aB8pjS2KgDf4L/fc0xY/sxP8oEgf5IHO0F5od9W+ubCuyj9fBsr18ERNOvj/5wJ0a0oT7mk5UWgPmFSvT2HM/bN4rd26MG7dQW9g34w2zpOAm4AYc4Uuq+AowoIyQj7bUoFaRUc5TGHhIdXcAlqVRHl6ZxiWedy5LSvqbzgDz/3jyJxGbTepmzscQATTsRzInKlnUDdNyoNVBv/gsNBF0TRTd+s6VhHaCTavxC6VbK9d4LFuI8HKPRex3AVMY6ZIbTpQtlp7OBCqKD6nDwACRSvVKs3qWKYmhURwJlwTF0E4wZkGFrcFgM1YyHsH6iOi3vsJk0iDaOsUkHUamXvaGkRnnNRrCTbQFJs5baEUIBSKm0mfoCkJFLwRNCY0iAQa35YV+C5e0cILrCNchRBYTxC7qEVTC+FZDHGKZ9BBSudcqOchEKhKaVXX+zKcA6IFJ3zRfgCtPTYnkOxql1QFlQjuE01vaOzQddUNDdS5CmVVDQnbojtaoYcmkh1NoaBQXdKbpVNeAYqhcIbW+0ik2A/iuAVv0JQBUFudSS7fuzZjFcBVrwyq4NX8A0ruJ192R6riu1FnZEaB6QymmdcvM+oe7TXnNToGGX0gKgwsvAJQl+J9PuQ9I+LanuWJJN99Zj8Gux4On9V44ZgD1/4Jjh/P9/zPjHjxmc/ZKkNEJaqx67FUbP5hEAtGp17FJlWUI8ZivSiU4hmunBKLl9AddZPXZEmC5tkEu6rTolxNdC033FImh08SQLrb1wtaUAR7YLl2ey2G7x7dz0gbFZ0yWH3MWWrkAgpyn4MjOsQWI7/pp9sG3jnH64S48Aj2FJjOuv9lCfks3ON9pnf9t5wZ/Ffnch3mqb0xvzuZh2F+rV7AT4tn74jdvgC/b68Hr1fLd7eDjeXJ/+319V66vjNbdc/wA=);lineShape=1;strokeColor=default;" parent="1" vertex="1">
                    <mxGeometry x="-1382.3529029951255" y="1544.4817446714974" width="86.99494898442633" height="78.07794894892898" as="geometry"/>
                </mxCell>
                <mxCell id="117" value="" style="shape=stencil(7VjLbhsxDPwaXwlJ1POctv8RIE5jNI0DJ339fUcw5K648cQ+9ZLbeq1ZiuRwSGmjNy8Pt8/bTXAvr4f9t+2v3d3rw0Y/bULYPT1sD7tXPG3080Zv7veH7dfD/sfT3fH3821f2Z++73/2L/w+4qK43EHB/Tm+cJKOL74clz/unhbLfZDspvVVWju/PqikeT0MxHoeoFm0TgBN4tJ5QGzi/ASI2BKxkJrkGZCdVGIhF+tDbpKI0yWMDQxASeIZoEppc1T5lqpKKzMgSgkEkCSFCdCiZAbwEmditCoxEh9gYXa6NfHEQq6SogXEQgAIq1pAIWFFXo0F75w4R7mx3lNhZKqDCRd6nYqUVVwdqTgAnLGQJZMwpTwSewKggpQCdCZTUwnMhzXAjzcXbqk2KjNrp2uRdlVYax6MvzBxKBHGvjU1UHLVX8M+AJhsQGea2VKQSnwoavOAqq0k09CZOEsfdIbKRhjfWwA8cRpp0jRLX6RqDCIEI65JCtEZUM0oWfI0D53Mc5TQY1gLgjKG2UIIUpiFOJhzAnjaswAwmfanpvQ24BSTE6DSAuoaoRbgmAU0ubICEKns7SCvtsQSh0x76zSrhy69cRVW4sNC3ReZY1oJE22mKwaiyLxudv4Jmce1rbaEEiE1irj6mRsYsZgaI3OhWkBmPkC+owVEZgHK2KwPhVmAMq6ilHgFabZ5YHNlr1FjAWXOAUaYQKbEVcDMZJhcaVEnqwIoiMprVIMFeEYNZNqUHFoGKzl8r1oLyovaTK6oUTa5tmbbaD9A8AKyFRdoR3mrqJV2uesR2JTOaql15OZcnEyLSJHOiV2P55orbgjuOfo5MzJBmdiRIA/hWkz4kR06muVrZzCb8FclBK/oBATtM9N0pWz6GNg/BvbLE/f/B/YwXFxaIGztR161PngC6IdqZwHKxmknOVtAJomDCmTDVmglsYAt5blFdGowgLMDO04VhdAbB4BgzhDvUKOMpnY6QxTqQ8zWBxA+EGqo2quHGCj5MFx404IqTZx3tqP4QhupHwPVKW/0jOJs222jv5xZbnlHeersnFHoUOzslV2ihblq55G2TmxmdlWp1jl7jgljyjoXyHkzno7zq2s0Rw96QVw1yz3ZDAopmeWsW+oY8xdfJw3/yrvhd5fj4d819P3u8fF4i738315b49Xxyls//wU=);lineShape=1;strokeColor=default;" parent="1" vertex="1">
                    <mxGeometry x="-1307.1430048923285" y="1565.4584213985413" width="132.6583316052347" height="72.24369714599965" as="geometry"/>
                </mxCell>
                <mxCell id="118" value="" style="shape=stencil(7VnLbhsxDPwaXwm9SZ3T9D8CxGmMpnHguK+/L7euNitqd9zeCrQ3PzQrihySQ+0u3rw+3r3sd8G9nk/Hj/uvh/vz4y6+24VweH7cnw5n/bSLt7t483A87T+cjp+f7y/fX+6mldOnT8cv0xO+XXCBXJpAwX2//ODIuZ8/vL8sfzo8L5ZXiq5bHij57eW+UordeiaR7fUxUe6f75kY2JM95dwBoqMYtwGltL8bIEXydRvAhVy/Qw5UwZnFE4ceoF4rAJDJ1Q5QYnPbOkBIDEAooag54h7AmSTAHXLvJYnE6NCBuOeRPoJBpFnIcweongICRAq9W6uahCItlho1N3atAzIFY1KhDLxUlAj9oStTxIAoFhAANYonSdYkYQiI2QICOrSjOngJmuSoGEAij+LgKBm3BhK8gykaSg0YB2fZqoS/cmjuz6BsrYB86laTosKwCCjAJhCTQzsEW2ZEyYd2CFScBcDAsS31CoiAS+xsMVaAAJM0RWXwUgRx0NpqqwbDnBZH3g1xQLU1NqotIo3Yqs8rAzUCACjVarAmCWgoWrZ+xXUGOBg4za/S76CR8YBLU53rMy5nyCWtEa4HxEoVUGMqKv0ZQml+2zJJ+srnrwJMbfW5NYAtk3xPPh9hiiqg9GfwWpeQSUw+WYBHXmJLb+8bWdYBQnHcIUGA8HAGpAQGAadeErRDpVxsHKBJlUpf+TTSGXmprmg+SL46RLo2Om55ycRBVa5HkR7EiQKQDNVI5xGAikBp/WYBQEpaAUnsocuVfDD0lvaIzYzzNg4e7aAAE7hMBR/adFGfoF6aDt0XY2UrzLhi1YzmQ8Q5bfr0lKJXqDGkqMM5zUOZyTiBDPn00An1Bx2yBrcWFOm1FHUocKsAvIP0cZj6A+ii3s1z5zyX6SCHbTJiI+sW2K+pDwSHNqltRS6Zzp7g1DSNC0bep5aEW1LADhDSYrkO8C0jZ0DFcxlb7aAApHQnwWTo6vCVANemwH5zC5WJplgqALFJ5Y5RG+omOBCormQLQEn6f5Kb6fpPTnLIpL9wkpvL0AKAOrWOfqYcS257rmdcaDPP8v4HmMTqEzNnuSa6tm7JTALxlUluKK6coUlqsVFM09gEMk4tNmqjZCixOFnFNN30IWpkq75ThUUgu9bS5sEMl5kYW+efG29qKm298UobuBciLoFDjxPH7Lb1DSibfGvXchvLjfgReIPg2iXj4n4ZGD9EGCvcoe+UdkO4sdzeFFMAzXxUPDC0w9MjvJcYbA9Xnp7MmAfHkeFC2UEp5dt9xdvyAIqDt5M5ViB/+A7j6nL98Pa65OHw9HR527L8375e0Z8ur2bi7Q8=);lineShape=1;strokeColor=default;" parent="1" vertex="1">
                    <mxGeometry x="-1245.8928801776287" y="1528.6071935617506" width="195.37318561772457" height="82.43431933327126" as="geometry"/>
                </mxCell>
                <mxCell id="119" value="" style="shape=stencil(rVnZThwxEPyafW25ffuZJP+BxBJWIYCAXH+fGq08rNszBZHythm6Mu0+qqs9h3D1cnf9dDx49/L6/Pjt+Ot083p3CJ8O3p8e7o7Pp1f8OoTPh3B1+/h8/Pr8+OPh5vzvp+vFcvn1/fHn8j/8PuNikpoXlHd/zk+0STk/+XIG3J8eLgChilYLiIkAnOTpDQzggyS1gOr3AVokjS55R9+gQbIbASqh7QMQEmMfRHXfvvbXr/ZNUty3z9LKYI8ou8Ds4xih6GnSsng/2jfxhdq3wT4lUcfs0xifjKST8yryE0cAckgc0ixu9KhE8eQNSFAca6IqBaBMUxgByAprhGwBTXuYNwFRxY0utSCeRBW9mSdAI2dIKnGMUoviSJ2mKqFMLlWSaNTBmLjm+5NNQHFSDcD19t4GgJDG3qnoBdLM1Yk3iUsSSOIqYjISUvXiGaBIHqNUWi/HbbpwvdRWQKL9iSCa0ijaM7MNiBaQUfDsDailMazJ0xZt4ADDMUrDijeUMQ9oqcKiFG0toWkzKQ1EybikVTKhSSTOj4lTL4m4VIOUkSjBVCxxKARvWpQS68JaplhFCWegfdx45CKFNEPOkpu1JyHN3k7zIo1QUsq2nWFP+AJzo2XrD4nPMmdMq/UH2/ZR0ljWuQd4z96cN3Uy2LM3fRa4/9FWnKdsB/syxhMUzuKfJI4F6ujcRL58MvaMuVKxPQl7Up8YIM4Ze8ZbsJ/Oy4RFmvrL036BfTJKSgLpl9k+Ulac/Vn18wfPiwZi8Z/iWSglzvkqVLQs9WDtqT/JKs3SH+zWczDnpfU59UuiY2zux0gl1NzvXhqrn4lPlPLtzFfQOyw+Ex+6PtM+yLeuF8h/sQf/T/zA5BzmS7P9ngj/F2cFppNG4on52MyIp4sTxF8Y4+m7Vtu2T3Yzi7TeKjZPO49YviCfzSakSrUlVFM1gEwleyvTLgrxyIRc6wx4ocsYR6tzloQg/TLJMl5h9ukUOg9sA6ZLhMz7HmrUjYeAolb2hmC1Yl03kd1Mm60gUuqq2UozyE0qLtVmDnsCC2spffZebmdsd1LLXovsJy4h6nk8A8qLifxlnhlApQIZK6m5zEGxVMIAcc3rmwTnHBbatGLW3rXbgGhXTJQXvZGqkkwivERSfWAtk7laqI7CXmLmwsJsTOhPC2Ogq5Da6s6lK8lNe4R85L2stBsmysCkYzTm+theKQY5I/67PoYvKIktWtrzs5LeqoS3M2Z1SFC6eIRp7mTeB/a8yyAkvV/tfZdy4aih6+gVkOhk1mKVrPJVaDmyGc2RlmhwVlsv964MMF8tv3tBZi+vPY1SzHZ9WhqPA0xfLi4xQLGFBwArDADqHFaSODSKmxLHLqMB8N4C2r8Bcl9jPupSobJt49CV3jtuhLW+l2mbuEYn20ZptP7hYrf4kgXQTL//qQU/3j7U3J7u78/feS7/bj/s4NH5o1D4/Bc=);lineShape=1;strokeColor=default;" parent="1" vertex="1">
                    <mxGeometry x="-1488.5075432751028" y="1094.0091445986604" width="173.37083148485462" height="120.09744503651392" as="geometry"/>
                </mxCell>
                <mxCell id="120" value="" style="shape=stencil(7VnZbttADPwavxJ7cY/nNP2PAHEao2kcOOn19x3BWUVLWRPksUDebMlj8RgOydUuXj3f3zztd8E9v5yO3/e/D7cv97v4ZRfC4fF+fzq84NMuXu/i1d3xtP92Ov58vD1/f7qZfjl9+nH8Nf3DnzMuRAl5QgX39/VK7Ve+ngEPh8cloIqmARBV1G8DYhLnB0AKUpQAmrg2Apr4sA1IWcrogxYpxCRN0soAyElC2gbkIhoGQHFS6zagFOt0yRKISRWA8Qk1SCjbgFZ71DugOQkkrK3aTAOQGKCJxhHgpbltgHdOnBsRURKJKx6RjU1ITeNeG5uyJEJX3M5jqlvpbLkMSOJH9uGZlWQOQQnGJASOZA6pNuwDoDFAEh1NWkT6MsJLdPYRmXhdQI5qvW4MoL3CFnFthE0lSlllLpNUoyT9KDSIdCEAVUmj01WlkigllTiahLLNkSgTXFzJAJUyZ8OaozjyBMixoavmriSXa670ApvFskgkJnnExACcKKtqtdoHryopagDyGFZfKTUAiJbfooR8vnUtnU2SSCyKufeP/ntePuo79+cYSSX2oJ8YGfNBHAOoFRlYxKR1YsHI7dBoP8lO/AhAEBxrcdp1dPY5UimOs8UL5gXGbUjQWAwJYSV9HU8wUcLkwLgdgyUSuO1Im36LyRwlPv3g/8yoAU1wRLsxmzi1ecgkD+BeLKsnsGEG5FbrgydR0mYTh4mrkcTlYMsNefAkSgBUw6VEhTVD2UenwSVaQK3fXsyIgRWQ2gJSqBgxCbfdqGI6G3k502kl3ZARpkpN0goQiQ+YpFu1TtMneGsSwtpIPaBEqykgpWydAGOUoBqMGjApGR8cbdJw2qhG5PMYwmqVr3RZ2EqcGYxRooXNDc02OACYD1N/UGsSm3209klnUaJsG0AB5bHDJXCJZPrDAGhrMiKQ+aK42soin67QxKvp6pwa0+46UmPqokT5Qulknvu0pz0O1CgGkPgqmnpeZ5NwhXEJLdDIfaYtCwVpFkX8hZKwpmpNUh5WSGVcrdNsvMJMa44EMLuzzbL4bsA8R3vasrDPmD6NhSUzwLyMzLsAEkfC+rkdv1753I7/i+0YACNlDQM8G7HU9tHaqA+QATMLINJ0yypWv0vqq+PWUaIZEzMmV0KmEKyUTYMjcdpne4aggZ7b+RU10OXY8KB2cJ1OL4kLWGzNNOPpCcJKMyKXJWc33cDPTp090UCPZMt9sL0hcJ6m1e+VZizbzhDmfndZX6zivdNvsZibQyIAEnHAaz9VXQDY4bIvdr2CC3Qvdn1zWcSUHhIFOwIEvi19/JD/fQA+vL1TuDs8PJxfSSzv23cQuHR+fxGv/wE=);lineShape=1;strokeColor=default;" parent="1" vertex="1">
                    <mxGeometry x="-1445.3337609133273" y="1113.105860435528" width="40.650864587614954" height="88.10498948138957" as="geometry"/>
                </mxCell>
                <mxCell id="121" value="" style="shape=stencil(lVnZchw3DPyafUXxAo9n2fkPVVmOtiJLLllO4r93M1ucHYKajvZtNQKGINBoHHOKdz8e778/nIL78fb68tfDP+cvb4+n+OkUwvn58eH1/IZfp/j5FO++vrw+/Pn68vP5y+Xv7/ddsv/69vJ3f8O/F70SxGvXCu7X5UmokuN/T/64KDydn3cKuUrKs0IR54hClFpnhSSJnKBZcpkUfJOoxwoJFodZIUkoRMGJxkkBB4Rj+RikzRapJPJ+eKTOTk2ijchvDrm+3+djefjD2F9Eif0+j9dd71sTkY+iJgKBgsJ78XOMcWQkN67DHxsmvLRKQLSArkkmkFBpMyIiEEHsUclploeLCajV2pNUAvGoSpzl1YsjEdMB+E0+i/PUnjlgyLpA7C/jbZt8GRa+H2Aneb5A8VJIAJCBxSgUighgOs2QqEEKgQSSJsxJUIE54qPopLhZodETYpE8e6kFURLlBJPmsLVE3ZqaTXwoVKKgcfx7p8CoReuweFMAMoiXAByr4Ab7HRWEOOd+reIJtksUN59QkzRy6ZJHru+gkYhC9baolUYJtUZbcvqZ5A5VpRiFQAkJPjH5kJUqNC95zgdVahKAYEgecGQZ19RWkRilEZZvKCNz4MA7jt0BCTlnnAdYSAL1E4xC5F5asIRSVMgdEAedoYHSxpgVWFoVWHNRnWWNfgKDd7PQwB1Ye9HBbE5wlJcKwGeIjCID8uYK/5PRVaopJ1L5BQwulBIxXOpmpHLCgHzzRj6x93vLqpBnmNgq01W+cHrRW/pH8KHhrzyK45F8Mnw3yOOD8pVS/GoPAOeZQ9cGEpTMLFo8CoXG09KErKclI+AFE1Cgd1hA16mFmLSiGl6q5IQ1bcAEN6blbWlfJDB7Fl7JPO2bLYLKg7wwY5JMmtSVenlBu1ke7rNpnEkaoCQvad94RW7J+IfNsW0ZrQulCe/cmLx35VLZDTD3zU0FCrIS5oKCcVGnLtYjNHGzAiavQoLcMCsbbkcxYD3C0rZoobMamvYyh6HvMBi3NGtS7waZQh7D65aYgAprH4M0M+yg7+cV1gwKFeMUK7HJYhW3YpHOzYIVfqtsEQSLZ/A1pemgzQ4KrfJFULRuBbpYg5qabYF3KfK+RhxO2R3Bci7mZXVUaC8SFpsa7+P7JqTYQDD0ebWVDaFmwz8KXzLYUL4Pcnau7QAmTJbt7FK2jdj7dx4d9W6a8iQKbllfZDqILDyZ3aCpI3mzrlG6noK8mdXcyKYjeVNIMEjR+5rCHBsdKdxYZ+4mO9bruBHN3U6XVc5gxzQ8oVmzjER13Oho/WVar0Q7l21lfW2k2HX7QLb04yxh1KZk4DkPf87+caPuHq2yfDHyzD24r4kvZzmUYG/8SRu1tFBQGvXq/XA5a3+jQ7iC983UzrdYWS1N+0YTOG+FYrdgVmJSibZ3BGhZk4ACazgFCnQ8SLb8hW2sOlIwS6nen7L5INnPDj2RuElmTR44z/UTjEl5bM4P2xDjpUK3J1BIwSqwNqTHwXwaqHzKifZrUacPtiuPNnugUNgdgqWjrsBMuvUj3AcU8OP6ze/r+enp8slw/3/7jRCPLt8X4+ff);lineShape=1;strokeColor=default;" parent="1" vertex="1">
                    <mxGeometry x="-1408.361422225245" y="1443.0195359054146" width="182.13743627244918" height="136.07327206705222" as="geometry"/>
                </mxCell>
                <mxCell id="122" value="" style="shape=stencil(lVfLctswDPwaXTEE+D6n6X9kJk6tqWtnHKdt/j5QFaoCHa0nN5nEEs9d0oO/e9k/PO8GcS+X8+nn7s/4eNkP/tsgMh73u/N40a/B3w/+7ul03v04n16Pj/Pv54fJcvr6dfo9nfB3xjEVN4HEvc0LMVIM/1a+z/aH8bi2Z+JoAD6SqwBQKRcDEGk+PwX4QMUbQKGStu0jU6jGnklAQKmQsxk4ciCeIv35nthv21ctaenih/al1W+J31PNEJCzBUSqDACVvM1Ym4JaoIDOg0QSMBUKqDZnz5RQDrWluAAKhRsh2akIoa1sAcSWNWqfUZUKpQ7gcQ6lzc2KOx5VKV+FtMz654BEKViAkKAcEjHbKmXKEQBi214AjGcpUrIelP8eNU49WIDyIeGknfSCEQsERAtgTRoogPah0zDWWQISo4APBVpRtOBZip0HVUk8rWwJxIU85nSyHlSWkOxNjLOzJJUCSJqd6+fb63hhUnfKHaQ1fwsQuulTFcB1rR3lhBLqXGm6teLox3httTr6HgCl78sAbhEvSScSwNHpArJJK0cTqFK6ulFUXBGp9QrNnQdHGeSgnJcuB/UA+qB3bLCA5CmDPrAKnSV1TlRAlYSqbcN066GI2u5COIffAdw0Ze0AUJpbUxf7TB4Q1PXvpBpIgOy5fiqqIwHxO2LLhKLCDc/v2F/0BHh+Z58DpOZVPKneqE+w90gKFHE9bb+Sa0zd6pcdiJibOm3Yf/HlfNNeP/4/05/Gw2F+5a/3+2e9Ls1/Cfz9Ow==);lineShape=1;strokeColor=default;" parent="1" vertex="1">
                    <mxGeometry x="-1347.5231910346042" y="1092.8390121829093" width="140.86669477325663" height="14.870260098397113" as="geometry"/>
                </mxCell>
                <mxCell id="123" value="" style="shape=stencil(lVfbbtswDP0avxLUldJz1/1HgaZLsCwp0nRb/740DLkWY5+gb45yKFGH5CE1hIe3/dPrbvD8dr2cf+/+HZ6v+yH8GLw/nPa7y+GqX0N4HMLDy/my+3U5v5+ep9+vTyNy/Ppz/jvu8H+yi0ypjFaeP6YVJj8t/Jzwx8NpgU+euMdncrKNz4k4dXgX2g6rBiLErjeoVOO2QclUegOfKPO2QY32hMAUPDAQkv4OwVNJ2waOmZh7C6GUwRGepKc1Kg+A1+Kby80gpXbmeiCEsvSBSxQAr4kp9jRJpuS2DUKg0t9BQ8OAV001qZ3BSAO4tHPk+hPqHPx1l8j3YaiaSwCvpPb7LyK57pGtHj2gADxbihQfAsKHPvNqoQyCpt7mHi+QIG4BWhCKCFJxiBbP0B/pc6hq0kE+g/E/koC68eSixUegLp7qzf6xogSSm/0F7B8p1Jv7gvjGpiNLPpH83sQ3Q3FMVurGfAB4vZ0pmNJkYwPvelEZ8xkoY6CYLR7lp6fc4+8XZIn2gArx7kYhkMhx+3dBUAEJxOSCxTsoEKZxaMA89McWQIa9TP03/qS2ssWPwUeqYH/lXyw+oVb5TbxGxwjWLAHr+xfbY4oGAChKcJT7GxfXusJ6CYitYdFLAUpzbC1i7sQMhwOptuq1NzMgqcw5OU8THlZN1T7WhyHExtv6CZFyHwedoTxwSaKdoUatQYOjbyTOpV/IIylVJeld0nFB0HBQbO1k8sCjcYQzI1dL3i28EV/tBcifbDMvtoUtvBnQ5gFsCx9MkIlR78utNc4hu+e/KTXNKrS/tHh+PT0qqkyxdaMTKuK/2GbDUCpCtc0MtxrFmyrDVfndp9Z9vH58veteDsfj9Cxc/m/fgbo0vSHD4yc=);lineShape=1;strokeColor=default;" parent="1" vertex="1">
                    <mxGeometry x="-1281.8637023000097" y="1039.3960495900105" width="128.64197691183537" height="117.5070191776452" as="geometry"/>
                </mxCell>
                <mxCell id="124" value="" style="shape=stencil(fZbdcgIhDIWfZm8zQAg/17Z9j85U606tdqz9e/tmZ0c0uJ47xP0I5JwEBl59bp8/1kNwn6fj4W39M76ctgM/DCGM++36OJ50NPDjwKvN4bh+PR6+9i/z74/n6ctp9H74nlb4nbmSKZeJCu5vngmZ6jzzNAO7cX8FVKEsBuBKrgKg9oAE8gkCbLeUhEoEQKSUDZDLeWYRKIl8MEDRmHwfyBrBG6Amyu4+kDxxMoB3jhwgYu7TVAsVkFcWCs4CTBEoF4RctKeOxHIf8IXYpikHikAIf+MNUW94AGSSaoAoFIE3AlOyeWU+p2E5S9yfQZcQILVuQOwZdJNoS9Ls3wA5u2XZTIHECqeJ9kDpSaauRiNVcAY1QhdBzeLBli5WazpkSsBLV25uRaqWRyFawTQzRRIQYirJzq5atkBqLfouwqUxLBepthWb10vrWZY6UOAeyKCCtDV625mm9gmUC4Wc3VLJMMIE1BsA2FW9JraVlQB7n3c9oMKhCLEvIM1zBPZ25/umNQ1tVEC2G+fFCC8g398O2hNQuQlVu752DBfA+q0ptnqO5JFmeuIuo9DY7KjY71UxdJV4EntifPWorW++R/dC4t7V3DlIB5cHx2bc7eb3yvX//QNFp+bHDT/+Aw==);lineShape=1;strokeColor=default;" parent="1" vertex="1">
                    <mxGeometry x="-1115.5979993431092" y="1057.0422253852512" width="10.383421715811588" height="10.367191591904986" as="geometry"/>
                </mxCell>
                <mxCell id="125" value="" style="shape=stencil(fZbdcgIhDIWfZm8zQAg/17Z9j85U606tdqz9e/tmZ0c0uJ47xP0I5JwEBl59bp8/1kNwn6fj4W39M76ctgM/DCGM++36OJ50NPDjwKvN4bh+PR6+9i/z74/n6ctp9H74nlb4nbmSKZeJCu5vngmZ6jzzNAO7cX8FVKEsBuBKrgKg9oAE8gkCbLeUhEoEQKSUDZDLeWYRKIl8MEDRmHwfyBrBG6Amyu4+kDxxMoB3jhwgYu7TVAsVkFcWCs4CTBEoF4RctKeOxHIf8IXYpikHikAIf+MNUW94AGSSaoAoFIE3AlOyeWU+p2E5S9yfQZcQILVuQOwZdJNoS9Ls3wA5u2XZTIHECqeJ9kDpSaauRiNVcAY1QhdBzeLBli5WazpkSsBLV25uRaqWRyFawTQzRRIQYirJzq5atkBqLfouwqUxLBepthWb10vrWZY6UOAeyKCCtDV625mm9gmUC4Wc3VLJMMIE1BsA2FW9JraVlQB7n3c9oMKhCLEvIM1zBPZ25/umNQ1tVEC2G+fFCC8g398O2hNQuQlVu752DBfA+q0ptnqO5JFmeuIuo9DY7KjY71UxdJV4EntifPWorW++R/dC4t7V3DlIB5cHx2bc7eb3yvX//QNFp+bHDT/+Aw==);lineShape=1;strokeColor=default;" parent="1" vertex="1">
                    <mxGeometry x="-1039.6720282059564" y="1086.6718437120744" width="10.383421715811588" height="10.367191591904986" as="geometry"/>
                </mxCell>
                <mxCell id="126" value="&lt;div style=&quot;color: #cccccc;background-color: #1f1f1f;font-family: Consolas, &#39;Courier New&#39;, monospace;font-weight: normal;font-size: 19.11px;line-height: 25px;white-space: pre;&quot;&gt;&lt;div&gt;&lt;span style=&quot;color: #ce9178;&quot;&gt;&amp;nbsp;You have a new notification!&lt;/span&gt;&lt;/div&gt;&lt;/div&gt;" style="text;whiteSpace=wrap;html=1;" parent="1" vertex="1">
                    <mxGeometry x="-1040" y="1080" width="340" height="50" as="geometry"/>
                </mxCell>
                <mxCell id="127" value="" style="shape=stencil(fZbdcgIhDIWfZm8zQAg/17Z9j85U606tdqz9e/tmZ0c0uJ47xP0I5JwEBl59bp8/1kNwn6fj4W39M76ctgM/DCGM++36OJ50NPDjwKvN4bh+PR6+9i/z74/n6ctp9H74nlb4nbmSKZeJCu5vngmZ6jzzNAO7cX8FVKEsBuBKrgKg9oAE8gkCbLeUhEoEQKSUDZDLeWYRKIl8MEDRmHwfyBrBG6Amyu4+kDxxMoB3jhwgYu7TVAsVkFcWCs4CTBEoF4RctKeOxHIf8IXYpikHikAIf+MNUW94AGSSaoAoFIE3AlOyeWU+p2E5S9yfQZcQILVuQOwZdJNoS9Ls3wA5u2XZTIHECqeJ9kDpSaauRiNVcAY1QhdBzeLBli5WazpkSsBLV25uRaqWRyFawTQzRRIQYirJzq5atkBqLfouwqUxLBepthWb10vrWZY6UOAeyKCCtDV625mm9gmUC4Wc3VLJMMIE1BsA2FW9JraVlQB7n3c9oMKhCLEvIM1zBPZ25/umNQ1tVEC2G+fFCC8g398O2hNQuQlVu752DBfA+q0ptnqO5JFmeuIuo9DY7KjY71UxdJV4EntifPWorW++R/dC4t7V3DlIB5cHx2bc7eb3yvX//QNFp+bHDT/+Aw==);lineShape=1;strokeColor=default;" parent="1" vertex="1">
                    <mxGeometry x="-661.8943182450189" y="1097.7829548231853" width="10.383421715811588" height="10.367191591904986" as="geometry"/>
                </mxCell>
                <mxCell id="128" value="" style="shape=stencil(lVfLctswDPwaXzHgGzyn6X9kJk7tqWtnHPf194WqkWOA1ra5yTKWIoDdJbhJD2+7p9ftJvLb5Xz6uv25f77sNunTJsb9cbc97y/6tEmPm/Twcjpvv5xP34/P8+/Xpylyevp2+jGt8GvGBWplAkX+Pb9gYv774vMcftgfb8I7cTXhiVpaDw+VajfxjVpYj9f1QzPxIS1v7gKyfj9bQKeY1wGlUokGEDOluA6olSRYQIM5t0TR1kizEgRoQ1EDJdAEYepiAYUyAiTf5aluoA9SiS2gMFXQB9HGJQvoENAjFdu4KrAPXajaxmkZggCAEoEtIMDGKaDapCVTQFvq1G3S0iiAsga+qmtBdKaEkxDLjZ6odAhw/O6VMk6CHUCoFNiIbAWhS7QKAG35+wbQgUYVEKIHMPqCitoKQpeIoBEKCNaXesZlLV5yPVBG/B4AItDJxi1JWUT4n0lLpIz43bxGVUEw6aFxrUPbGKmhAMFsdeRTjSIFjfRWb0N+Pwpo8jbApTsaVXOLWKPOBiZzQ50bjEbZUnASzsq0NR21ejBLXQLStXm63tRhDZHSBz/xQQBTGxTRQSNk8I1WqQP6KXfEfqE2KqCuys5q55Ny5df9s11bbetaAkU0DFQ/0ORCFXBDx41guZEjdFcdaKr7AsOy6siUrKpTWza5NpQ5kSbdEhr7ZNnxzYwVAfl0rnRGEyNFcMqJp1IQKKCruV/j1Z5ByoHYrV/grMHD2JpJQA+YsotPVOH60dYnROh67EfQwMsUuxbvPHIR91q4lX6FU48OdnY3GdqjjlC2WREeOuzdN0C35sVC3m9I6NAMfjOMjxt/xGLX/ed1TR/er3ov+8Nhvine/u+vhvpqvlamxz8=);lineShape=1;strokeColor=default;" parent="1" vertex="1">
                    <mxGeometry x="-660.6760833216931" y="1098.996865596312" width="218.332277838925" height="43.47785193526053" as="geometry"/>
                </mxCell>
                <mxCell id="129" value="" style="shape=stencil(lVfbcuIwDP0aXjW25Yv83O3+R2dKF2ZZ6FC6l79fZTIOyElO4S0EHSvSObp4w08fu5f37Sa4j8v59HP7Z/962W342yaE/XG3Pe8v+rTh5w0/vZ3O2x/n0+fxdfz9/jJYDk+/Tr+HE/6OuEQ5DaDg/o0vHPnxxffR/LA/3piHSFyNfSLx6/ZcqRRj7z2xrAOSkEQLEIplHVAyBRvB8EnAg2Qq1gN7igBQA1VvAYlSBIBK7AwgcotqEeCdI2cRSZ1W4ILJ2ahzoAiIE6baAYQcYK54EjaAEskDIlKhbPMqriVuERBVS1YbUmCaWAGWCKVGkFpdy8kEqE3vy0RUcmLVd6VmGaFRS+9CAgBkiq4HeCSO1ApmAmDmfKQSLCBTAswpINqirrGp5V4PTPxYDJ4qSus8S651knt5cI3LO6mWCuW6ICZHIQOAp5z7oD0IOoRG042+Gelbu0DteRCQJQX4zoO2MvxJpfNQYFoV0HUyVWtkmFaZFVBEBVRb870BVCQ+afV1LyCTzEoUflKaiQ8HrQUk87TiEk1dxWHiBsBD0tAYfOcBi0+z5OyA+ELeWqKhA+ACehigg9zbipPYjlgeQTqhLKBUuAskPc9K4zonFwG5ULEx5Nha2/LclX5Q62Bl4EFz0nXvmOF6oqtAsmrVLQ1lqXC/CjC3qJazlClbQMiwe3OhZHkY9lDUyEIryGlQ64hB0qBkVwfv4EwMbem8sfeoBVDqhkNblBfNXd9hcL9Q2VvGtDLg6c4Gq6UKBDFbPnW8g8KfanBSQxPginl3Awh4VWhtbUp82xLXeLKhuia9FRnE2XUHqCb2rOJlMPUDH1+mvrx76cP13va2PxzGa9/t//09T1+Nd0R+/g8=);lineShape=1;strokeColor=default;" parent="1" vertex="1">
                    <mxGeometry x="-466.6871445931106" y="1102.207281408911" width="86.75063972644188" height="74.67952909973114" as="geometry"/>
                </mxCell>
                <mxCell id="130" value="" style="shape=stencil(lVjZbttADPwavxLL5V58TtP/CBCnMeragZNef1+6xspeShojb44ys+IxpEbayMP769PbdhPD+8fp+H37e/f88bqRL5sYd4fX7Wn3Yb828riRh5fjafvtdPx5eL78/fZ0Rp5//Tj+Op/w58KTRlXPrBj+Xq40iuH/ha8X/H53uMFHJY0DXqlGgI8U8oBnpgQInH1ALBQTuINQSiOhUG3rBEmkdSBEJtF1QlIKZSRkinWdUCKVMBJqz2qRUIXamLS1QUEbmlBwBO1lWCYoFR4IEijwOkEb8XgHyVRA43QSQiek0LNa7nSwCMYypUIJZG0xRRkI2ZpfACH5RpRAKYMyVUpj1qWSos6lroROqIVE1gnZchgb0RIxSNqqKOMEaSAFOdhA1LFKmqGYbCLV3aFRRiH5nK33CtpgYm2fwc/jUSg99jqy+BXMp1U0enwAG2OmU619q63hy6wBMJ7szk8Qz7P6m4SQIiiOolahDEQtfUZu8AL6ZVOWPD6B+LPfFIZX0N/So73Jt4B4aq/GTf0L2HWVxMVfqID45+fXPnIr8ZeZPgvQm9XHxWPLHZw/VeMG39ATsHdnemJeV/GKgIT9DSoWqHp8BA22AWBfIPQgsGirb8AdvGsAXtLzBZF7Rit4dQsuwXhswbkNbTsbDLDMForA88Wbrjt4DhRdAhFOjGXgJNQUjrDYjDlCogZSzsk/9mqFhKLE49RUazsIqQXiUXVl0vkyIVMeZZELNI6t+SplJga605nwUuxX1u4gzqXV7pGWCZHS2Gkp3eitWVPnV8wHCjK/7E2aGW7oJoo3vxLhHYSpzN0yML9sLznOj5v4kG/0+8UmHPnMmePi1DfCysLObsH3C8vxz9x+ht6dJ3s1VRSuuzjz+lZhtI6q3y/TQl7GN//AxI8b0f7Gd8UzON8scvTnZ4SfpvCaL6N2MbXo8Mi/2tC6dRqh3Azv3jrsfRDo4Ywf40/38G7TZWpoIpnyWM8C9WD1r2O+FQ+w9nCvePSm+NmPFPfx9uP6ReRlt99fPqjc/t9/QbFLl68v8vgP);lineShape=1;strokeColor=default;" parent="1" vertex="1">
                    <mxGeometry x="-288.7685134240496" y="1079.7228470908585" width="93.13991235278131" height="103.12676596426172" as="geometry"/>
                </mxCell>
                <mxCell id="131" value="" style="shape=stencil(7VrJct02EPwaXVHYl7Pj/IerLEeqKJZLlrP8fQb1aiiwh2xGtxx8k/h6CGDWngHv0ofvD5++3d9F//315fn3+78eP78+3KVf7mJ8/Ppw//L4Kn/dpY936cOX55f7316ef3z9fPv/26eJnH/98fznfMPfN7k2XG5TKvp/bk+887cHv97wT49fF3z3rocdPrjmCT7qz4rPrgaCL27+tuCHiwzfXcr7/RTX47nAkP3uDxyTS2SFUVzer5C8y2yF7kraCzR9cigQvOgclJRdq2SJ4ULfCZToKllCDhH3ZqvRpU712vYCLarizhyjjp2AmD6SFVpATxreJbJCFTuVvUBxbZwLlOLG3nJimlbOBfJwZa9WUfQgWxIzxbr3vjdbHkqk7YXLEolYLlW103KISPaURE17ZxrNeaImcecOAtV54uCxq68thghkS7G6slfTyC6TLUmS6GDq5AYTSEZLSW15LBD1iItAYIcWLe39e0Q91XFUi6XBv4M+ORbobsChZU2WN7rze4EueYFtqbmwN1yvNKhDVZ1sAsnVTASK83s7SF7IxA5B7Lp3jdZojIaoOtkEJAuwFQJWoCYliGnJu7JXa+POJwE8EF+IkjrmYsEHgm/oqhepWApgRjxLrKKOhniaw1wBvKiYhY7RZ9A3HBsAK4ngK3l/wNhv24oneMh3074EH815RcPE45LLcN7mBonj7ALsZ1D/yajPWXuJQ0sy3YdYD0qaTvwH/E3wjeML4jvZT1GGueBZfNmcEjWPneEr4iPfT0J8IvvJutsFz6pZVusveOb/1l6c3GVlQSue0RyN1hVP/a0Wgyf5QfzT7Ifx36zevuqTUSIsGeI/TD/CDeC8Xpues3iHktSpfwa0r8Q7ZQZ6ug1fldme4D3k861JOsR71+D9QlOJvbx675IPWb3wpn5Fun/T3cz8T/cD+aHx/OaREdShzcuJfYHU1K7c7sQ/Ib8JntVHw9hro7Ssuwy9WdUKeEZQQKEikJkDBczoIpCYhwZt0hcB1nQEU7OnADuDacOvt4RWrpxZioBZgdKIoFV9EWD95eEKjEgcnIG3ZlNLFQVYKE87GN+7Mpw3AnxLJRgBfmiYn1yEQzB8bmqJNR0BBwNiB0bQDgUYg50CxtI0xQcdEa3eynq5gEl4xgMXKMZb2bxlWrq+U6AZLV1sqZuskbnhutkS7QwOQ/RiS0Zg8ADqxls9d29gX9O9+RnaewOomqxxEaLvFsAKdyHgDwQyG9Nqql7wlfheNdHQXaAlOkIWG9pUnVAASACNj72Drr7gB/Fsj47dtlpxRvFgP5G2UMFFoISJ6nMjXP91BoLztzlkoS0yUGyhtKzljTiZbRdDTTONHjq0OPGHZMZQbKD+s+X92fL+n1vejC3C9B8S71kHigs+EoKTsGWUeKF3BqZF60oLz1ouwF90LCY/Z6offzDyZNeMkr0hXwn/YrTAjEg9HTpHJGfNU56StDNZ8LwlbWakykhHwbuI2YLTkTOOJAOtd13pwjoSYJeqyAfmSJvdjZjbxTkz5+R12CEviYCQ8G5ESh5tU7KecBn7RMZFC86FZ5AxgYpVuyfe/TWkTf2ibe/ac28C/epSCy6eh3eBBb7HyjQCFxAqZK7NWCmeuQWuLyMlr3M+n1GAkpuM2WLeFRItCX2tGQUY3ZL4gfo0Mh2pJXsbWahrzFthEKiUIaSK3joabeaymUqNzjmCuTwf/PoyD6yaU4CxomKukflNTE3YR4ha2ajv7WZqC6DBv2/xJgnwyzAJSJgktEgvqofhUnVj88cCHYtJifwDF/OZRM78grRj1khd08KxQNEcsQkE+knCMDN1iXLWcPWGjFayLWMAPZuIU85xjI/6uk2rtCJ2c+sc6XhTGiBwVU9nXoIPBfHMswdOyT2t0IL3A/AsECa+A55li6P3sw+Y5v4D4FkpnPgMeMaomqmEnDFPe+H72VBz4vG8NBMNLOWX+Iz2ZRH23g8Fr/Hyx9tXiV8en55uHzWuv+NXjPLo9gVk+vgv);lineShape=1;strokeColor=default;" parent="1" vertex="1">
                    <mxGeometry x="-1386.1860238025865" y="1236.4075801149338" width="1248.0536644478452" height="659.4703941065841" as="geometry"/>
                </mxCell>
                <mxCell id="132" value="" style="whiteSpace=wrap;html=1;" vertex="1" parent="1">
                    <mxGeometry x="-2140" y="120.71" width="190" height="149.29" as="geometry"/>
                </mxCell>
            </root>
        </mxGraphModel>
    </diagram>
</mxfile>